<?xml version="1.0" encoding="utf-8"?>
<!-- Generator: Adobe Illustrator 18.1.1, SVG Export Plug-In . SVG Version: 6.00 Build 0)  -->
<!DOCTYPE svg PUBLIC "-//W3C//DTD SVG 1.1//EN" "http://www.w3.org/Graphics/SVG/1.1/DTD/svg11.dtd">
<svg version="1.1" id="Layer_1" xmlns="http://www.w3.org/2000/svg" xmlns:xlink="http://www.w3.org/1999/xlink" x="0px" y="0px"
	 viewBox="0 0 576 576" enable-background="new 0 0 576 576" xml:space="preserve">
<g>
	<rect x="76.5" y="60.8" fill="none" stroke="#3DBB98" stroke-width="8.4029" stroke-miterlimit="10" width="423" height="454.5"/>
	<rect x="106.5" y="93.4" fill="#59DFB4" width="363" height="49.7"/>
	<rect x="371.1" y="176.1" fill="#59DFB4" width="98.4" height="286.6"/>
	<g>
		<path fill="#3DBB98" d="M343.6,181.1v80h-80v-80H343.6 M348.6,176.1h-90v90h90V176.1L348.6,176.1z"/>
	</g>
	<line fill="none" stroke="#3DBB98" stroke-width="5" stroke-miterlimit="10" x1="106.5" y1="180.1" x2="234.6" y2="180.1"/>
	<line fill="none" stroke="#3DBB98" stroke-width="5" stroke-miterlimit="10" x1="106.5" y1="220.7" x2="234.6" y2="220.7"/>
	<line fill="none" stroke="#3DBB98" stroke-width="5" stroke-miterlimit="10" x1="106.5" y1="262.3" x2="234.6" y2="262.3"/>
	<line fill="none" stroke="#3DBB98" stroke-width="5" stroke-miterlimit="10" x1="106.5" y1="298.6" x2="348.6" y2="298.6"/>
	<line fill="none" stroke="#3DBB98" stroke-width="5" stroke-miterlimit="10" x1="106.5" y1="339.2" x2="348.6" y2="339.2"/>
	<line fill="none" stroke="#3DBB98" stroke-width="5" stroke-miterlimit="10" x1="106.5" y1="380.8" x2="348.6" y2="380.8"/>
	<line fill="none" stroke="#3DBB98" stroke-width="5" stroke-miterlimit="10" x1="106.5" y1="421.1" x2="348.6" y2="421.1"/>
	<line fill="none" stroke="#3DBB98" stroke-width="5" stroke-miterlimit="10" x1="106.5" y1="462.7" x2="348.6" y2="462.7"/>
</g>
</svg>
