<?xml version="1.0" encoding="utf-8"?>
<!-- Generator: Adobe Illustrator 18.1.0, SVG Export Plug-In . SVG Version: 6.00 Build 0)  -->
<!DOCTYPE svg PUBLIC "-//W3C//DTD SVG 1.1//EN" "http://www.w3.org/Graphics/SVG/1.1/DTD/svg11.dtd">
<svg version="1.1" id="Layer_1" xmlns="http://www.w3.org/2000/svg" xmlns:xlink="http://www.w3.org/1999/xlink" x="0px" y="0px"
	 viewBox="0 0 1024 768" enable-background="new 0 0 1024 768" xml:space="preserve">
<g>
	<path fill="#FFFFFF" d="M512,634.7c-138.1,0-250.7-112.5-250.7-250.7S373.9,133.3,512,133.3S762.7,245.9,762.7,384
		S650.1,634.7,512,634.7z"/>
	<path fill="#51BFAE" d="M512,136c136.5,0,248,111.5,248,248S648.5,632,512,632S264,520.5,264,384S375.5,136,512,136 M512,130.7
		c-139.7,0-253.3,113.6-253.3,253.3S372.3,637.3,512,637.3S765.3,523.7,765.3,384S651.7,130.7,512,130.7L512,130.7z"/>
	<path fill="#FFFFFF" d="M512,130.7c139.7,0,253.3,113.6,253.3,253.3S651.7,637.3,512,637.3S258.7,523.7,258.7,384
		S372.3,130.7,512,130.7 M512,114.7c-148.3,0-269.3,121.1-269.3,269.3S363.7,653.3,512,653.3S781.3,532.3,781.3,384
		S660.3,114.7,512,114.7L512,114.7z"/>
</g>
<path id="Facebook_3_" fill="#51BFAE" d="M1227.2,85.3c0,9.1,0,49.6,0,49.6h-36.3v60.8h36.3V376h74.7V195.2h50.1
	c0,0,4.8-28.8,6.9-60.8c-6.4,0-56.5,0-56.5,0s0-35.2,0-41.6c0-6.4,8-14.4,16-14.4s25.1,0,40.5,0c0-8,0-36.8,0-62.9
	c-20.8,0-44.8,0-55.5,0C1225.1,15.5,1227.2,76.3,1227.2,85.3z"/>
<path id="Behance_3_" fill="#51BFAE" d="M670.4,295.5h-90.1v-22.4h90.1V295.5L670.4,295.5z M520.5,387.2c5.9,9.1,8.5,19.7,8.5,32.5
	c0,13.3-3.2,25.1-10.1,35.7c-4.3,6.9-9.6,12.8-16,17.6c-6.9,5.3-15.5,9.1-25.1,11.2c-9.6,2.1-20.3,3.2-31.5,3.2H346.1V264h107.7
	c27.2,0.5,46.4,8.5,58.1,24c6.9,9.6,10.1,20.8,10.1,34.1c0,13.9-3.2,24.5-10.1,33.1c-3.7,4.8-9.6,9.1-17.1,12.8
	C506.1,371.7,514.7,378.1,520.5,387.2z M397.9,352h47.5c9.6,0,17.6-1.6,23.5-5.3c5.9-3.7,9.1-10.1,9.1-19.7
	c0-10.1-3.7-17.1-12.3-20.8c-6.9-2.1-15.5-3.7-26.1-3.7h-41.6V352z M482.1,416.5c0-11.7-4.8-19.7-14.4-24
	c-5.3-2.7-12.8-3.7-22.4-3.7h-48v59.7h47.5c9.6,0,17.1-1.1,22.4-3.7C477.3,439.5,482.1,430.4,482.1,416.5z M704,380.3
	c1.1,7.5,1.6,18.1,1.6,32H588.8c0.5,16,6.4,27.2,16.5,33.6c6.4,4.3,13.9,5.9,22.9,5.9c9.6,0,17.1-2.7,23.5-7.5
	c3.2-2.7,5.9-6.4,8.5-11.2h42.7c-1.1,9.6-6.4,19.2-15.5,28.8c-14.4,15.5-34.7,23.5-60.3,23.5c-21.3,0-40-6.4-56.5-19.7
	c-16-13.3-24.5-34.7-24.5-64c0-27.7,7.5-49.1,21.9-64c14.9-14.9,33.6-22.4,57.1-22.4c13.9,0,26.7,2.7,37.9,7.5
	c11.2,4.8,20.3,12.8,27.7,23.5C697.6,356.8,701.9,367.5,704,380.3z M661.9,384.5c-0.5-11.2-4.3-19.7-11.2-25.1
	c-6.4-5.9-14.9-8.5-25.1-8.5c-10.7,0-19.2,3.2-25.1,9.1c-5.9,5.9-9.6,14.4-11.2,24.5H661.9z"/>
</svg>
