<?xml version="1.0" encoding="utf-8"?>
<!-- Generator: Adobe Illustrator 18.1.0, SVG Export Plug-In . SVG Version: 6.00 Build 0)  -->
<!DOCTYPE svg PUBLIC "-//W3C//DTD SVG 1.1//EN" "http://www.w3.org/Graphics/SVG/1.1/DTD/svg11.dtd">
<svg version="1.1" id="Layer_1" xmlns="http://www.w3.org/2000/svg" xmlns:xlink="http://www.w3.org/1999/xlink" x="0px" y="0px"
	 viewBox="144 84 311.5 311.5" enable-background="new 144 84 311.5 311.5" xml:space="preserve">
<path id="Behance_3_" fill="#59DFB4" d="M392.8,188.1H340V175h52.8V188.1L392.8,188.1z M305,241.9c3.5,5.3,5,11.5,5,19
	c0,7.8-1.9,14.7-5.9,20.9c-2.5,4-5.6,7.5-9.4,10.3c-4,3.1-9.1,5.3-14.7,6.6s-11.9,1.9-18.5,1.9h-58.7V169.7h63.1
	c15.9,0.3,27.2,5,34,14.1c4,5.6,5.9,12.2,5.9,20c0,8.1-1.9,14.4-5.9,19.4c-2.2,2.8-5.6,5.3-10,7.5
	C296.5,232.8,301.6,236.5,305,241.9z M233.1,221.2H261c5.6,0,10.3-0.9,13.8-3.1s5.3-5.9,5.3-11.5c0-5.9-2.2-10-7.2-12.2
	c-4-1.2-9.1-2.2-15.3-2.2h-24.4L233.1,221.2L233.1,221.2z M282.5,259c0-6.9-2.8-11.5-8.4-14.1c-3.1-1.6-7.5-2.2-13.1-2.2h-28.1v35
	h27.8c5.6,0,10-0.6,13.1-2.2C279.7,272.5,282.5,267.2,282.5,259z M412.5,237.8c0.6,4.4,0.9,10.6,0.9,18.8H345
	c0.3,9.4,3.8,15.9,9.7,19.7c3.8,2.5,8.1,3.5,13.4,3.5c5.6,0,10-1.6,13.8-4.4c1.9-1.6,3.5-3.8,5-6.6h25c-0.6,5.6-3.8,11.3-9.1,16.9
	c-8.4,9.1-20.3,13.8-35.3,13.8c-12.5,0-23.4-3.8-33.1-11.5c-9.4-7.8-14.4-20.3-14.4-37.5c0-16.2,4.4-28.8,12.8-37.5
	c8.7-8.7,19.7-13.1,33.5-13.1c8.1,0,15.6,1.6,22.2,4.4c6.6,2.8,11.9,7.5,16.2,13.8C408.7,224.1,411.3,230.3,412.5,237.8z
	 M387.8,240.3c-0.3-6.6-2.5-11.5-6.6-14.7c-3.8-3.5-8.7-5-14.7-5c-6.3,0-11.2,1.9-14.7,5.3c-3.5,3.5-5.6,8.4-6.6,14.4H387.8z"/>
<g>
	<path fill="#59DFB4" d="M299.8,94c38.9,0,75.5,15.2,103.1,42.7c27.5,27.5,42.7,64.1,42.7,103.1s-15.2,75.5-42.7,103.1
		c-27.5,27.5-64.1,42.7-103.1,42.7s-75.5-15.2-103.1-42.7c-27.5-27.5-42.7-64.1-42.7-103.1s15.2-75.5,42.7-103.1
		C224.3,109.2,260.9,94,299.8,94 M299.8,84c-86,0-155.8,69.7-155.8,155.8s69.7,155.8,155.8,155.8s155.8-69.7,155.8-155.8
		S385.8,84,299.8,84L299.8,84z"/>
</g>
</svg>
