<?xml version="1.0" encoding="utf-8"?>
<!-- Generator: Adobe Illustrator 18.1.0, SVG Export Plug-In . SVG Version: 6.00 Build 0)  -->
<!DOCTYPE svg PUBLIC "-//W3C//DTD SVG 1.1//EN" "http://www.w3.org/Graphics/SVG/1.1/DTD/svg11.dtd">
<svg version="1.1" id="Layer_1" xmlns="http://www.w3.org/2000/svg" xmlns:xlink="http://www.w3.org/1999/xlink" x="0px" y="0px"
	 viewBox="60 0 479.8 480" enable-background="new 60 0 479.8 480" xml:space="preserve">
<g>
	<path fill="#FFFFFF" d="M300,470c-126.9,0-230-103-230-230s103-230,230-230s230,103,230,230S426.9,470,300,470z"/>
	<path fill="#3DBB98" d="M300,20.2c121.3,0,219.8,98.5,219.8,219.8S421.3,459.8,300,459.8S80.2,361.3,80.2,240S178.7,20.2,300,20.2
		 M300,0C167.7,0,60,107.7,60,240s107.7,240,240,240s240-107.7,240-240S432.3,0,300,0L300,0z"/>
	<path fill="#59DFB4" d="M300,15.2c123.9,0,224.8,101.1,224.8,224.8S423.9,464.8,300,464.8S75.2,363.9,75.2,240S176.1,15.2,300,15.2
		 M300,0C167.7,0,60,107.7,60,240s107.7,240,240,240s240-107.7,240-240S432.3,0,300,0L300,0z"/>
</g>
<polygon fill="#59DFB4" points="300,103 339.4,183.4 428.4,196 364.2,258.6 379.3,346.6 300,305.2 220.7,346.6 235.8,258.6 
	171.6,196 260.6,183.4 "/>
<polygon fill="#59DFB4" points="482.3,299.5 382.8,299.5 382.8,250.2 482.3,250.2 460.1,274.9 "/>
<polygon fill="#60C2A3" points="428.3,274.9 382.8,299.5 382.8,274.9 "/>
<polygon fill="#59DFB4" points="117.6,299.5 217.1,299.5 217.1,250.2 117.6,250.2 139.8,274.9 "/>
<polygon fill="#60C2A3" points="171.6,274.9 217.1,299.5 217.1,274.9 "/>
<rect x="171.6" y="225.9" fill="#3DBB98" width="256.7" height="49"/>
<text transform="matrix(1 0 0 1 241.4801 261.6755)" fill="#FFFFFF" font-family="'Raleway-Medium'" font-size="42.5594">Logo</text>
</svg>
