<?xml version="1.0" encoding="utf-8"?>
<!-- Generator: Adobe Illustrator 18.1.1, SVG Export Plug-In . SVG Version: 6.00 Build 0)  -->
<!DOCTYPE svg PUBLIC "-//W3C//DTD SVG 1.1//EN" "http://www.w3.org/Graphics/SVG/1.1/DTD/svg11.dtd">
<svg version="1.1" id="Layer_1" xmlns="http://www.w3.org/2000/svg" xmlns:xlink="http://www.w3.org/1999/xlink" x="0px" y="0px"
	 viewBox="435.8 6 144 144" enable-background="new 435.8 6 144 144" xml:space="preserve">
<polygon fill="#59DFB4" points="508.2,5.6 530,50.2 579.5,57.2 543.8,92 552.2,140.8 508.2,117.9 464.1,140.8 472.5,92 436.9,57.2 
	486.3,50.2 "/>
<polygon fill="#59DFB4" points="438.1,114.7 462.1,114.7 462.1,87.3 438.1,87.3 444.7,101 "/>
<polygon fill="#60C2A3" points="452,101 462.1,114.7 462.1,101 "/>
<polygon fill="#59DFB4" points="571.8,101 578.4,87.3 554.3,87.3 554.3,114.7 578.4,114.7 "/>
<polygon fill="#60C2A3" points="554.3,101 554.3,114.7 564.4,101 "/>
<polygon fill="#3DBB98" points="515.7,101 564.4,101 564.4,73.8 515.7,73.8 452,73.8 452,101 "/>
<g enable-background="new    ">
	<path fill="#FFFFFF" d="M478.5,96.7V79.9h1.2v15.7h10v1.1H478.5z"/>
	<path fill="#FFFFFF" d="M498.1,96.8c-1.2,0-2.2-0.2-3.2-0.7s-1.8-1.1-2.5-1.9c-0.7-0.8-1.2-1.7-1.6-2.7c-0.4-1-0.6-2.1-0.6-3.1
		c0-1.1,0.2-2.2,0.6-3.2c0.4-1,1-1.9,1.7-2.7c0.7-0.8,1.5-1.4,2.5-1.9c1-0.5,2-0.7,3.1-0.7c1.2,0,2.2,0.2,3.2,0.7
		c1,0.5,1.8,1.1,2.5,1.9s1.2,1.7,1.6,2.7c0.4,1,0.6,2,0.6,3.1c0,1.1-0.2,2.2-0.6,3.2c-0.4,1-1,1.9-1.7,2.7c-0.7,0.8-1.5,1.4-2.5,1.9
		C500.3,96.6,499.2,96.8,498.1,96.8z M491.5,88.3c0,1,0.2,1.9,0.5,2.8c0.3,0.9,0.8,1.7,1.4,2.4c0.6,0.7,1.3,1.2,2.1,1.6
		c0.8,0.4,1.7,0.6,2.7,0.6c1,0,1.9-0.2,2.7-0.6c0.8-0.4,1.5-1,2.1-1.7s1-1.5,1.3-2.4c0.3-0.9,0.5-1.8,0.5-2.7c0-1-0.2-1.9-0.5-2.8
		c-0.3-0.9-0.8-1.7-1.4-2.4s-1.3-1.2-2.1-1.6c-0.8-0.4-1.7-0.6-2.7-0.6c-1,0-1.9,0.2-2.7,0.6c-0.8,0.4-1.5,1-2.1,1.7s-1,1.5-1.3,2.4
		C491.6,86.5,491.5,87.4,491.5,88.3z"/>
	<path fill="#FFFFFF" d="M521.7,94.1c-1.6,1.8-3.5,2.7-5.6,2.7c-1.1,0-2.2-0.2-3.2-0.7c-1-0.5-1.8-1.1-2.5-1.9
		c-0.7-0.8-1.2-1.7-1.6-2.7c-0.4-1-0.6-2.1-0.6-3.1c0-1.1,0.2-2.2,0.6-3.2c0.4-1,0.9-1.9,1.6-2.7c0.7-0.8,1.5-1.4,2.4-1.9
		c0.9-0.5,2-0.7,3.1-0.7c0.9,0,1.6,0.1,2.3,0.3c0.7,0.2,1.3,0.4,1.8,0.8c0.5,0.3,1,0.7,1.4,1.2s0.7,0.9,1,1.5l-1,0.6
		c-0.6-1.1-1.3-1.9-2.3-2.4s-2-0.7-3.2-0.7c-1,0-1.9,0.2-2.7,0.6c-0.8,0.4-1.5,1-2,1.7c-0.6,0.7-1,1.5-1.3,2.4
		c-0.3,0.9-0.4,1.8-0.4,2.7c0,1,0.2,1.9,0.5,2.8c0.3,0.9,0.8,1.7,1.4,2.4s1.3,1.2,2.1,1.6c0.8,0.4,1.7,0.6,2.6,0.6
		c1,0,2-0.2,2.9-0.7c0.9-0.5,1.8-1.2,2.7-2.2v-3.3h-3.8v-1h4.9v8.2h-1.1V94.1z"/>
	<path fill="#FFFFFF" d="M533.2,96.8c-1.2,0-2.2-0.2-3.2-0.7s-1.8-1.1-2.5-1.9c-0.7-0.8-1.2-1.7-1.6-2.7c-0.4-1-0.6-2.1-0.6-3.1
		c0-1.1,0.2-2.2,0.6-3.2c0.4-1,1-1.9,1.7-2.7c0.7-0.8,1.5-1.4,2.5-1.9c1-0.5,2-0.7,3.1-0.7c1.2,0,2.2,0.2,3.2,0.7
		c1,0.5,1.8,1.1,2.5,1.9s1.2,1.7,1.6,2.7c0.4,1,0.6,2,0.6,3.1c0,1.1-0.2,2.2-0.6,3.2c-0.4,1-1,1.9-1.7,2.7c-0.7,0.8-1.5,1.4-2.5,1.9
		C535.4,96.6,534.3,96.8,533.2,96.8z M526.6,88.3c0,1,0.2,1.9,0.5,2.8c0.3,0.9,0.8,1.7,1.4,2.4c0.6,0.7,1.3,1.2,2.1,1.6
		c0.8,0.4,1.7,0.6,2.7,0.6c1,0,1.9-0.2,2.7-0.6c0.8-0.4,1.5-1,2.1-1.7s1-1.5,1.3-2.4c0.3-0.9,0.5-1.8,0.5-2.7c0-1-0.2-1.9-0.5-2.8
		c-0.3-0.9-0.8-1.7-1.4-2.4s-1.3-1.2-2.1-1.6c-0.8-0.4-1.7-0.6-2.7-0.6c-1,0-1.9,0.2-2.7,0.6c-0.8,0.4-1.5,1-2.1,1.7s-1,1.5-1.3,2.4
		C526.7,86.5,526.6,87.4,526.6,88.3z"/>
</g>
</svg>
