<?xml version="1.0" encoding="utf-8"?>
<!-- Generator: Adobe Illustrator 18.1.0, SVG Export Plug-In . SVG Version: 6.00 Build 0)  -->
<!DOCTYPE svg PUBLIC "-//W3C//DTD SVG 1.1//EN" "http://www.w3.org/Graphics/SVG/1.1/DTD/svg11.dtd">
<svg version="1.1" id="Layer_1" xmlns="http://www.w3.org/2000/svg" xmlns:xlink="http://www.w3.org/1999/xlink" x="0px" y="0px"
	 viewBox="200.1 110.1 391.8 391.8" enable-background="new 200.1 110.1 391.8 391.8" xml:space="preserve">
<g>
	<path fill="#FFFFFF" d="M396,493.7c-103.6,0-187.7-84.1-187.7-187.7S292.4,118.3,396,118.3S583.7,202.4,583.7,306
		S499.6,493.7,396,493.7z"/>
	<path fill="#57364C" d="M396,126.6c99,0,179.4,80.4,179.4,179.4S495,485.4,396,485.4S216.6,405,216.6,306S297,126.6,396,126.6
		 M396,110.1c-108,0-195.9,87.9-195.9,195.9S288,501.9,396,501.9S591.9,414,591.9,306S504,110.1,396,110.1L396,110.1z"/>
	<path fill="#FFFFFF" d="M396,122.5c101.1,0,183.5,82.5,183.5,183.5S497.1,489.5,396,489.5S212.5,407.1,212.5,306
		S294.9,122.5,396,122.5 M396,110.1c-108,0-195.9,87.9-195.9,195.9S288,501.9,396,501.9S591.9,414,591.9,306S504,110.1,396,110.1
		L396,110.1z"/>
</g>
<g>
	<polygon fill="#805470" points="396,194.2 428.2,259.8 500.8,270.1 448.4,321.2 460.7,393 396,359.2 331.3,393 343.6,321.2 
		291.2,270.1 363.8,259.8 	"/>
	<polygon fill="#805470" points="541.2,354.6 460,354.6 460,314.3 541.2,314.3 523.1,334.5 	"/>
	<polygon fill="#66425A" points="497.1,334.5 460,354.6 460,334.5 	"/>
	<polygon fill="#805470" points="250.8,354.6 332,354.6 332,314.3 250.8,314.3 268.9,334.5 	"/>
	<polygon fill="#66425A" points="294.9,334.5 332,354.6 332,334.5 	"/>
	<rect x="291.2" y="294.5" fill="#57364C" width="209.5" height="40"/>
	<text transform="matrix(1 0 0 1 348.2329 323.6924)" fill="#FFFFFF" font-family="'Raleway-Medium'" font-size="34.7391">Logo</text>
</g>
</svg>
