<?xml version="1.0" encoding="utf-8"?>
<!-- Generator: Adobe Illustrator 18.1.0, SVG Export Plug-In . SVG Version: 6.00 Build 0)  -->
<!DOCTYPE svg PUBLIC "-//W3C//DTD SVG 1.1//EN" "http://www.w3.org/Graphics/SVG/1.1/DTD/svg11.dtd">
<svg version="1.1" id="Layer_1" xmlns="http://www.w3.org/2000/svg" xmlns:xlink="http://www.w3.org/1999/xlink" x="0px" y="0px"
	 viewBox="0 0 1024 768" enable-background="new 0 0 1024 768" xml:space="preserve">
<g>
	<path fill="#FFFFFF" d="M512,626.7c-133.9,0-242.7-108.8-242.7-242.7S378.1,141.3,512,141.3S754.7,250.1,754.7,384
		S645.9,626.7,512,626.7z"/>
	<path fill="#57364C" d="M512,152c128,0,232,104,232,232S640,616,512,616S280,512,280,384S384,152,512,152 M512,130.7
		c-139.7,0-253.3,113.6-253.3,253.3S372.3,637.3,512,637.3S765.3,523.7,765.3,384S651.7,130.7,512,130.7L512,130.7z"/>
	<path fill="#FFFFFF" d="M512,146.7c130.7,0,237.3,106.7,237.3,237.3S642.7,621.3,512,621.3S274.7,514.7,274.7,384
		S381.3,146.7,512,146.7 M512,130.7c-139.7,0-253.3,113.6-253.3,253.3S372.3,637.3,512,637.3S765.3,523.7,765.3,384
		S651.7,130.7,512,130.7L512,130.7z"/>
</g>
<g>
	<polygon fill="#805470" points="512,239.5 553.6,324.3 647.5,337.6 579.7,403.7 595.7,496.5 512,452.8 428.3,496.5 444.3,403.7 
		376.5,337.6 470.4,324.3 	"/>
	<polygon fill="#805470" points="699.7,446.9 594.7,446.9 594.7,394.7 699.7,394.7 676.3,420.8 	"/>
	<polygon fill="#66425A" points="642.7,420.8 594.7,446.9 594.7,420.8 	"/>
	<polygon fill="#805470" points="324.3,446.9 429.3,446.9 429.3,394.7 324.3,394.7 347.7,420.8 	"/>
	<polygon fill="#66425A" points="381.3,420.8 429.3,446.9 429.3,420.8 	"/>
	<rect x="376.5" y="369.1" fill="#57364C" width="270.9" height="51.7"/>
	<text transform="matrix(1 0 0 1 450.2406 406.8748)" fill="#FFFFFF" font-family="'Raleway-Medium'" font-size="44.9152">Logo</text>
</g>
<text transform="matrix(1 0 0 1 38 62)" font-family="'MyriadPro-Regular'" font-size="12">rgba(87,54,76,1</text>
</svg>
