<?xml version="1.0" encoding="utf-8"?>
<!-- Generator: Adobe Illustrator 18.1.0, SVG Export Plug-In . SVG Version: 6.00 Build 0)  -->
<!DOCTYPE svg PUBLIC "-//W3C//DTD SVG 1.1//EN" "http://www.w3.org/Graphics/SVG/1.1/DTD/svg11.dtd">
<svg version="1.1" id="Layer_1" xmlns="http://www.w3.org/2000/svg" xmlns:xlink="http://www.w3.org/1999/xlink" x="0px" y="0px"
	 viewBox="0 0 1024 768" enable-background="new 0 0 1024 768" xml:space="preserve">
<g>
	<path fill="#FFFFFF" d="M512,634.7c-138.1,0-250.7-112.5-250.7-250.7S373.9,133.3,512,133.3S762.7,245.9,762.7,384
		S650.1,634.7,512,634.7z"/>
	<path fill="#57364C" d="M512,136c136.5,0,248,111.5,248,248S648.5,632,512,632S264,520.5,264,384S375.5,136,512,136 M512,130.7
		c-139.7,0-253.3,113.6-253.3,253.3S372.3,637.3,512,637.3S765.3,523.7,765.3,384S651.7,130.7,512,130.7L512,130.7z"/>
	<path fill="#FFFFFF" d="M512,130.7c139.7,0,253.3,113.6,253.3,253.3S651.7,637.3,512,637.3S258.7,523.7,258.7,384
		S372.3,130.7,512,130.7 M512,114.7c-148.3,0-269.3,121.1-269.3,269.3s121,269.3,269.3,269.3s269.3-121,269.3-269.3
		S660.3,114.7,512,114.7L512,114.7z"/>
</g>
<path id="Facebook_3_" fill="#57364C" d="M459.2,273.6c0,9.1,0,49.6,0,49.6h-36.3V384h36.3v180.3h74.7V384H584
	c0,0,4.8-28.8,6.9-60.8c-6.4,0-56.5,0-56.5,0s0-35.2,0-41.6s8-14.4,16-14.4s25.1,0,40.5,0c0-8,0-36.8,0-62.9c-20.8,0-44.8,0-55.5,0
	C457.1,204.3,459.2,264.5,459.2,273.6z"/>
</svg>
