<?xml version="1.0" encoding="utf-8"?>
<!-- Generator: Adobe Illustrator 18.1.0, SVG Export Plug-In . SVG Version: 6.00 Build 0)  -->
<!DOCTYPE svg PUBLIC "-//W3C//DTD SVG 1.1//EN" "http://www.w3.org/Graphics/SVG/1.1/DTD/svg11.dtd">
<svg version="1.1" id="Layer_1" xmlns="http://www.w3.org/2000/svg" xmlns:xlink="http://www.w3.org/1999/xlink" x="0px" y="0px"
	 viewBox="144 84 311.5 311.5" enable-background="new 144 84 311.5 311.5" xml:space="preserve">
<path id="Facebook_3_" fill="#59DFB4" d="M269.1,175.3c0,5.3,0,29.1,0,29.1h-21.3V240h21.3v105.6h43.8V240h29.4c0,0,2.8-16.9,4-35.6
	c-3.8,0-33.1,0-33.1,0s0-20.6,0-24.4s4.7-8.4,9.4-8.4s14.7,0,23.7,0c0-4.7,0-21.6,0-36.9c-12.2,0-26.2,0-32.5,0
	C267.8,134.7,269.1,170,269.1,175.3z"/>
<g>
	<path fill="#59DFB4" d="M299.8,94c38.9,0,75.5,15.2,103.1,42.7c27.5,27.5,42.7,64.1,42.7,103.1s-15.2,75.5-42.7,103.1
		c-27.5,27.5-64.1,42.7-103.1,42.7s-75.5-15.2-103.1-42.7c-27.5-27.5-42.7-64.1-42.7-103.1s15.2-75.5,42.7-103.1
		C224.3,109.2,260.9,94,299.8,94 M299.8,84c-86,0-155.8,69.7-155.8,155.8s69.7,155.8,155.8,155.8s155.8-69.7,155.8-155.8
		S385.8,84,299.8,84L299.8,84z"/>
</g>
</svg>
