<?xml version="1.0" encoding="utf-8"?>
<!-- Generator: Adobe Illustrator 18.1.0, SVG Export Plug-In . SVG Version: 6.00 Build 0)  -->
<!DOCTYPE svg PUBLIC "-//W3C//DTD SVG 1.1//EN" "http://www.w3.org/Graphics/SVG/1.1/DTD/svg11.dtd">
<svg version="1.1" id="Layer_1" xmlns="http://www.w3.org/2000/svg" xmlns:xlink="http://www.w3.org/1999/xlink" x="0px" y="0px"
	 viewBox="0 0 792 300.8" enable-background="new 0 0 792 300.8" xml:space="preserve">
<g>
	<g>
		<path fill="#57374D" d="M117,58.5c0.7,12.3-3,24-11,33.4c3.4-0.3,6.8-0.6,10.1-0.9c-6.9-6.8-5.8-17.3-3.4-25.9
			c2.7-9.4,8-18.2,15.1-24.8c0,0,2-2,2.4-2.1c-1.5,0.2-0.3-0.6-0.1,1c0.2,2.5,1.2,5.2,1.6,7.7c0.9,6.2,0.8,12.4,0.7,18.7
			c-0.2,11.8-0.4,23.5-0.7,35.3c-0.6,23.2-1.6,46.5-3.9,69.6c-0.4,4.1-1.1,19.9-7.3,19.8c-4.1-0.1-7.9-6.6-9.6-9.7
			c-2.4-4.5-4-9.5-4.7-14.5c-1.5-9.6,0-22.9,6.8-30.5c3.7-4.1,9.7,0.1,12.4,3.4c3.6,4.3,5.5,9.7,7.4,15c1.8,5,13.3,1.8,11.6-3.1
			c-4.1-11.5-9.9-23.7-23.5-25.1c-13.8-1.5-21.6,9.8-25,21.5c-3.6,12.2-2.2,25.7,3.6,36.9c5.6,10.8,17.5,19.2,29.2,11.3
			c9.9-6.6,10.3-20.4,11.2-31c1.5-16.6,2.4-33.3,3-50c0.6-16.3,0.9-32.7,1.1-49.1c0.1-7.6,0.2-15.2-1-22.7c-0.9-5.8-2.2-12.1-9-13
			c-7.1-0.9-13.1,4.3-17.7,9c-5.1,5.2-9.3,11.4-12.2,18c-5.2,11.7-9.1,29,1.1,39.2c2.7,2.6,7.8,1.8,10.1-0.9
			c9-10.5,13.9-23.7,13.1-37.5C128.4,51.7,116.7,53.7,117,58.5L117,58.5z"/>
	</g>
</g>
<g>
	<g>
		<path fill="#57374D" d="M178.8,56.1c-9.6,30.3-12.7,62.4-9,94c0.8,6.5,1.7,13.1,4.1,19.3c1.8,4.7,5.5,12.7,10.7,14.4
			c5.4,1.8,12.6-2.6,16.1-6.3c4.2-4.4,6.4-10.2,8.3-15.9c1.6-4.7-10.2-3.3-11.7,1.1c-1.2,3.6-4.1,13.1-8.7,13.7
			c1.6,0.4,3.1,0.9,4.7,1.3c-7-6.3-9.6-15.2-11.1-24.2c-1.8-11-2.4-22.3-2.3-33.5c0.2-22.1,3.9-44,10.5-65.1
			C192,50.1,180.3,51.6,178.8,56.1L178.8,56.1z"/>
	</g>
</g>
<g>
	<g>
		<path fill="#57374D" d="M135.3,129.2c10.3-1.9,20.6-3.9,30.9-5.8c1.6-0.3,6.6-1.3,6.7-3.6c0.1-2.3-3.2-2.2-4.9-1.9
			c-10.3,1.9-20.6,3.9-30.9,5.8c-1.6,0.3-6.6,1.3-6.7,3.6C130.4,129.6,133.7,129.5,135.3,129.2L135.3,129.2z"/>
	</g>
</g>
<g>
	<g>
		<path fill="#57374D" d="M203,144.4c13.9,0.4,29.5-6.1,33.5-20.6c1.4-5.1,0.9-11.9-4.2-14.8c-5.6-3.2-13.1-0.5-17.4,3.5
			c-10.3,9.4-14.9,27.7-14.4,41.2c0.4,13.2,7.2,26.2,21.1,28.9c6.8,1.4,14.2,0,19.9-4.1c6.4-4.6,9.2-12,13.1-18.5
			c3-4.9-8.7-4.2-10.9-0.6c-2.5,4.2-4.3,8.9-7.4,12.7c-3.3,4.2-7.1,4.7-11.8,2.4c-10.6-4.9-13.1-18.1-12.2-28.7
			c0.5-5.9,1.9-11.8,4.1-17.3c1.1-2.8,2.5-5.6,4-8.2c0.7-1.2,1.5-2.3,2.2-3.5c0.4-0.5,0.8-0.9,1.2-1.4c-0.7-0.6-0.8-0.6-0.1,0
			c4.1,3,1.2,11-0.9,14.3c-3.5,5.4-9.2,7.7-15.4,7.5c-2.4-0.1-6.5,0.8-7.6,3.3C198.7,143,200.7,144.4,203,144.4L203,144.4z"/>
	</g>
</g>
<g>
	<g>
		<path fill="#57374D" d="M280.4,108.3c-1.8,28.1-4.6,56.2-8.2,84.1c-1.8,13.8-3.8,27.5-6,41.3c-2,12.5-3,27.1-12.2,36.6
			c2.3-0.8,4.6-1.7,6.8-2.5c-6.1-0.9-8.3-9.2-9.6-14.2c-2.1-7.9-4-16-4.3-24.2c-0.6-13.8,3.8-29.7,17.6-35.6c2.3-1,4.2-4,2.6-6.3
			c-1.7-2.6-5.6-2.1-7.9-1.1c-16.8,7.1-24.6,25.4-24.1,42.8c0.3,9.9,2.3,19.9,5,29.4c2.1,7,5.7,14.6,13,17.3
			c9.4,3.5,14.9-5.6,18.1-13.1c3.5-8.3,4.7-17.5,6.1-26.4c3.3-19.9,6.1-39.9,8.5-60c2.7-22.9,4.8-45.8,6.3-68.7
			C292.6,101.3,280.7,102.7,280.4,108.3L280.4,108.3z"/>
	</g>
</g>
<g>
	<g>
		<path fill="#57374D" d="M242.9,109.9c-0.8,16.9,0.1,33.9,2.8,50.6c1.8,11.4,3,33.4,20,29.6c14.3-3.2,18.6-22.7,21.8-34.8
			c4.2-15.6,5.7-31.6,4.7-47.7c-0.4-6.4-12.1-4.8-11.8,0.7c0.8,12.6,0.1,25.3-2.4,37.8c-1.2,6.1-2.8,12.1-4.8,18
			c-1,2.8-2.1,5.7-3.2,8.4c-1,2.5-2.2,6.3-4.4,7.9c-2.3,1.7-3.1,0.1-3.9-2.4c-0.9-2.7-1.4-5.6-2-8.4c-1.4-6.5-2.5-13.1-3.4-19.7
			c-1.7-13.5-2.2-27.1-1.5-40.7C255,102.9,243.2,104.3,242.9,109.9L242.9,109.9z"/>
	</g>
</g>
<g>
	<g>
		<path fill="#57374D" d="M372.7,54.1c-3.1,8.3-11.7,6.7-15.2-0.6c-3.1-6.3-0.7-15.3,6.5-17.5c7.7-2.4,16.4,4.9,21.4,9.8
			c6.2,6.2,11.4,13.2,17.4,19.7c21.4,23.2,55.7,29.8,84,15.1c7-3.7,0.7-9.1-5-6.2c-13.4,6.9-28.8,7.9-43.1,3.2
			c-16-5.3-25.7-17.6-36.4-29.9c-9.9-11.4-23.2-23.4-39.6-19.2c-13,3.3-23.2,17.3-15.7,30.3c8.1,13.9,31.1,11.1,36.7-3.7
			C385.9,49.2,374.3,49.7,372.7,54.1L372.7,54.1z"/>
	</g>
</g>
<g>
	<g>
		<path fill="#57374D" d="M411.8,78c0.3,36.2-0.3,72.4-1.8,108.5c3.9-0.7,7.8-1.3,11.7-2c-0.3-2-0.5-4-0.8-6.1
			c-0.7-5.2-12.3-2.4-11.6,3.1c0.3,2,0.5,4,0.8,6.1c0.7,5,11.5,2.4,11.7-2c1.5-36.1,2.1-72.3,1.8-108.5
			C423.5,71.1,411.8,72.9,411.8,78L411.8,78z"/>
	</g>
</g>
<g>
	<g>
		<path fill="#57374D" d="M444.8,91.3c1.1,31.5,2.2,63,3.3,94.6c0.1,1.5,11.5-0.2,11.6-3.1c0.3-21.8,1.3-44.9,14.6-63.2
			c-3.7,1-7.5,2-11.2,3c4.8,2.2,4.9,10.8,5.8,15.3c1.1,5.5,2,11.1,3.4,16.6c2.4,10.1,6.1,21.9,14.3,28.9c6.8,5.8,19.3,3.8,24.8-3.1
			c3.3-4.3,4.6-10.3,5.6-15.5c1.3-6.7,1.4-13.6,0.7-20.4c-0.2-1.8-11.9,0.4-11.6,3.1c1.1,10.2,0.4,21.2-3.7,30.8
			c-0.4,0.8-0.7,1.7-1.2,2.5c-1.5,2.5-0.9,0.7,0.3,1.3c-1.8-0.9-3.5-2-4.9-3.5c-3.3-3.3-5.7-7.9-7.6-12.1c-3.6-8-5.4-16.6-7.1-25.2
			c-0.8-4.2-1.6-8.4-2.4-12.6c-0.8-3.7-1.3-8-5.2-9.7c-2.7-1.2-9.4,0.6-11.2,3c-13.4,18.5-14.5,42.1-14.8,64.1
			c3.9-1,7.7-2.1,11.6-3.1c-1.1-31.5-2.2-63-3.3-94.6C456.3,86.6,444.7,88.3,444.8,91.3L444.8,91.3z"/>
	</g>
</g>
<g>
	<g>
		<path fill="#57374D" d="M503.6,147.2c-0.5,0.8-0.9,1.6-1.4,2.4c-1,1.7,0.1,2.5,1.7,2.9c14,3.4,27.2-6.5,31.7-19.3
			c2-5.8,4.7-14.5,1.7-20.3c-3.1-5.9-10.7-6-16.1-3.6c-13,5.9-13.4,25.9-13,38c0.5,13.8,5.3,28.8,18.7,35.2
			c12.2,5.8,29.7,1.1,36-11.2c1.2-2.3-4-2.2-4.9-2.1c-2.4,0.3-5.5,1.4-6.7,3.7c-5.4,10.6-17.3,4.7-23.1-2.2
			c-7.5-8.9-8.7-21.3-8.4-32.5c0.2-5.4,0.7-11,2.3-16.2c0.7-2.3,1.8-6.4,3.7-7.9c-0.5,0.1-1,0.2-1.5,0.4c0.7,0.5,1.2,1.1,1.5,1.9
			c0.7,1.3,1,2.6,1.1,4c0.6,8-4.8,28.9-15.7,26.3c0.6,1,1.2,1.9,1.7,2.9c0.5-0.8,0.9-1.6,1.4-2.4
			C516.8,142.8,505.4,144.2,503.6,147.2L503.6,147.2z"/>
	</g>
</g>
<g>
	<g>
		<path fill="#57374D" d="M543.3,127.2c6,17.8,12.1,35.6,18.1,53.4c3.9-1,7.7-2.1,11.6-3.1c-4.6-12.4-8.3-25.7-5.5-39
			c2.3-11.1,10.1-21.8,22.3-22.3c6.6-0.2,8.9-8.8,1-8.6c-14.8,0.5-27.8,10.6-32.9,24.3c-6,16.1-2.2,33.1,3.6,48.6
			c1.9,5.2,13.4,2.1,11.6-3.1c-6-17.8-12.1-35.6-18.1-53.4C553.1,118.8,541.5,122,543.3,127.2L543.3,127.2z"/>
	</g>
</g>
<g>
	<g>
		<path fill="#57374D" d="M579.6,162.6c12.7-3.8,22.1-15.2,25-28c1.2-5.5,0.1-11.9-5.4-14.6c-5.5-2.7-13.2-0.4-17.9,3.1
			c-5.7,4.3-6.8,11.5-7.2,18.1c-0.5,7.4,0.2,15.1,2.6,22.1c4.4,12.8,15.8,21.3,29.6,18.8c16.3-3,25.6-18.9,29.6-33.8
			c0.9-3.3-10.6-1.7-11.5,1.7c-1.6,6-3.9,11.8-7.3,17c-2.5,4-6.7,10.3-12,9.8c-11.9-1.2-17.3-15.2-18.8-25.3c-0.9-6.2-1-12.7,0.2-19
			c0.3-1.4,1.9-8.6,4-8.4c-1.5-0.1,0.7,2,0.8,2.1c0.7,1.1,1.4,2,1.8,3.3c1.7,5.2-1.1,11-3.4,15.6c-2.3,4.5-6,11.1-11.3,12.7
			c-1.4,0.4-5.7,1.8-5.2,3.9C573.7,163.8,578.4,162.9,579.6,162.6L579.6,162.6z"/>
	</g>
</g>
<g>
	<g>
		<path fill="#57374D" d="M644.3,52.6c7.3,38.9,14,77.9,19.9,117c2.9-0.9,5.9-1.9,8.8-2.8c-1.7-1.5-2.5-3.1-2.7-5.4
			c-0.2-2-9.4-0.3-9.1,2.4c0.3,2.6,1.3,4.4,3.2,6.2c1.5,1.3,9.2-0.3,8.8-2.8c-5.9-39.1-12.6-78.1-19.9-117
			C653,48,643.8,50.1,644.3,52.6L644.3,52.6z"/>
	</g>
</g>
<g>
	<g>
		<path fill="#57374D" d="M678.2,190.4c1.6-5-5.4-5.9-8.7-4.6c-4.9,1.9-6.7,7.4-7.3,12.2c-1.2,9.3,3.2,26.1,15.8,22
			c8.2-2.7,12.3-19,1.1-19.9c-3.8-0.3-9.4,2.1-8.9,6.6c0.6,5.4,7.6,5.4,11.5,4.8c1.7-0.3,5-1.2,5.1-3.4c0.1-2.1-2.4-2.7-4.1-2.5
			c-1.3,0.5-2.4,0.2-3.4-0.9c-1,1-1.9,2-2.9,2.9c-0.1,0.2,0,4-0.1,4.6c-1,1-1,1.6-0.2,2c0.9,0.6,0.6,0.3-0.9-0.9
			c-1.1-1.4-1.8-2.8-2.5-4.4c-1.3-3.2-1.8-6.8-1.6-10.2c0.1-1.3,0.3-2.6,0.6-3.9c0.2-1,0.5-2,0.9-3c1.3-2.1,0.1-2.2-3.6-0.4
			C667.9,195,677.1,193.9,678.2,190.4L678.2,190.4z"/>
	</g>
</g>
</svg>
