<?xml version="1.0" encoding="utf-8"?>
<!-- Generator: Adobe Illustrator 18.1.1, SVG Export Plug-In . SVG Version: 6.00 Build 0)  -->
<!DOCTYPE svg PUBLIC "-//W3C//DTD SVG 1.1//EN" "http://www.w3.org/Graphics/SVG/1.1/DTD/svg11.dtd">
<svg version="1.1" id="Layer_1" xmlns="http://www.w3.org/2000/svg" xmlns:xlink="http://www.w3.org/1999/xlink" x="0px" y="0px"
	 viewBox="421.8 -1.5 144 144" enable-background="new 421.8 -1.5 144 144" xml:space="preserve">
<g>
	<path fill="#85CEC1" d="M427,137.1L427,137.1L427,137.1z"/>
</g>
<g>
	<path fill="#59DFB4" d="M460.8,100.5c0.8-0.8,2-0.8,2.9,0l0,0l28.7-28.7l-4.6-4.6l-13.6,3.3l-19,4.9l-27.5,60.3l32.8-32.8
		C460.1,102,460.4,101,460.8,100.5z"/>
</g>
<g>
	<path fill="#51BFAE" d="M427,137.1L427,137.1L427,137.1z"/>
</g>
<g>
	<path fill="#3DBB98" d="M492.4,71.8l-28.7,28.7c0.8,0.8,0.8,2,0,2.9c-0.5,0.5-1.6,0.8-2.3,0.3l-32.8,32.8l60.2-27.7l4.9-19
		l3.3-13.6L492.4,71.8z"/>
</g>
<polygon fill="#FFFFFF" points="426.7,136.6 427,137.1 427.8,135.6 "/>
<polygon fill="#FFFFFF" points="427.5,137.4 428.6,136.4 427,137.1 "/>
<g>
	
		<rect x="518.7" y="-6.5" transform="matrix(0.7071 0.7071 -0.7071 0.7071 181.6146 -359.7783)" fill="#3DBB98" width="12.9" height="91.7"/>
</g>
<g>
	<path fill="#3DBB98" d="M475.7,63.8c1.3-1.3,2.9-1.8,4.4-1.8c1.5,0,3,0.5,4.4,1.8L500,79.4c2.5,2.5,2.5,6.4,0,8.7
		c-1.3,1.3-2.9,1.8-4.4,1.8c-0.8,0-1.6-0.3-2.3-0.5c-0.8-0.3-1.6-0.8-2-1.3l-15.6-15.6c-0.5-0.5-1-1.3-1.3-2
		C473.4,68.4,473.9,65.6,475.7,63.8z"/>
</g>
<path fill="#3DBB98" d="M486.5,62l1.6,1.6l5.2-5.2l-43-43c-2.9-2.9-7.2-2.9-10,0c-1.3,1.3-2,3-2,4.9c0,1.8,0.8,3.6,2,4.9l35.4,35.4
	c1.3-0.8,2.9-1.3,4.6-1.3C482.3,59.5,484.7,60.4,486.5,62z"/>
<path fill="#3DBB98" d="M502.1,77.6c1.6,1.6,2.5,3.8,2.5,6.1c0,1.6-0.5,3-1.3,4.6l30.2,30.2l10-10l-37.9-37.6l-5.2,5.2L502.1,77.6z"
	/>
<path fill="#59DFB4" d="M532.3,119.9l-30-30l-0.3,0.3c-1.8,1.8-3.8,2.5-6.1,2.5c-0.3,0-0.3,0-0.5,0l-0.5,2.5l31.3,31.3L532.3,119.9z
	"/>
<path fill="#59DFB4" d="M473.9,62l0.3-0.3l-36.9-36.9c-1.8-1.8-4.6-1.8-6.4,0c-1.8,1.8-1.8,4.6,0,6.4l37.9,37.9l2.5-0.5
	C471.4,66.4,472.1,63.8,473.9,62z"/>
<path fill="#3DBB98" d="M456.2,5.9c-1.8-1.8-4.6-1.8-6.4,0c-1.8,1.8-1.8,4.6,0,6.4l44.6,44.6l6.4-6.4L456.2,5.9z"/>
<rect x="524.8" y="58.6" transform="matrix(0.7071 -0.7071 0.7071 0.7071 94.733 399.2646)" fill="#3DBB98" width="9" height="53.3"/>
<path fill="#59DFB4" d="M428.6,21.1C437,16.5,442.7,8.8,445,4.9c0.8-1.3,0-2.9-1.3-3l-18.2-3.3c-1.6-0.3-2.5,1-2.3,2.3l3.3,19.2
	C426.7,21.1,427.8,21.5,428.6,21.1z"/>
<path fill="#3DBB98" d="M564.4,114.3L553.1,103l-25.4,25.4l11.3,11.3c1.8,1.8,4.4,1.8,6.1,0l19.2-19.2
	C566.2,118.7,566.2,115.8,564.4,114.3z"/>
</svg>
