<?xml version="1.0" encoding="utf-8"?>
<!-- Generator: Adobe Illustrator 18.1.0, SVG Export Plug-In . SVG Version: 6.00 Build 0)  -->
<!DOCTYPE svg PUBLIC "-//W3C//DTD SVG 1.1//EN" "http://www.w3.org/Graphics/SVG/1.1/DTD/svg11.dtd">
<svg version="1.1" id="Layer_1" xmlns="http://www.w3.org/2000/svg" xmlns:xlink="http://www.w3.org/1999/xlink" x="0px" y="0px"
	 viewBox="60.3 0 479.7 480" enable-background="new 60.3 0 479.7 480" xml:space="preserve">
<g>
	<path fill="#FFFFFF" d="M300,463.4C176.9,463.4,76.6,363.2,76.6,240S176.9,16.6,300,16.6S523.4,116.9,523.4,240
		S423.1,463.4,300,463.4z"/>
	<path fill="#3DBB98" d="M300,19c121.7,0,221,99.3,221,221s-99.3,221-221,221S79,361.7,79,240S178.3,19,300,19 M300,14.3
		C175.6,14.3,74.3,115.6,74.3,240S175.6,465.7,300,465.7S525.7,364.4,525.7,240S424.4,14.3,300,14.3L300,14.3z"/>
	<path fill="#59DFB4" d="M300,14.3c124.4,0,225.7,101.3,225.7,225.7S424.4,465.7,300,465.7S74.3,364.4,74.3,240S175.6,14.3,300,14.3
		 M300,0C167.8,0,60,108,60,240s107.8,240,240,240s240-107.8,240-240S432.2,0,300,0L300,0z"/>
</g>
<g>
	<path fill="#85CEC1" d="M175,365L175,365L175,365z"/>
</g>
<g>
	<path fill="#59DFB4" d="M237.7,297c1.4-1.4,3.8-1.4,5.3,0l0,0l53.2-53.2l-8.5-8.5l-25.2,6.1l-35.3,9l-50.9,111.8l60.8-60.8
		C236.3,299.9,236.9,298.1,237.7,297z"/>
</g>
<g>
	<path fill="#51BFAE" d="M175,365L175,365L175,365z"/>
</g>
<g>
	<path fill="#3DBB98" d="M296.2,243.8L243,297c1.4,1.4,1.4,3.8,0,5.3c-1,1-2.9,1.4-4.3,0.5l-60.8,60.8l111.6-51.3l9-35.3l6.1-25.2
		L296.2,243.8z"/>
</g>
<polygon fill="#FFFFFF" points="174.5,364.1 175,365 176.4,362.1 "/>
<polygon fill="#FFFFFF" points="175.9,365.5 177.9,363.6 175,365 "/>
<g>
	
		<rect x="344.9" y="98.7" transform="matrix(-0.7071 -0.7071 0.7071 -0.7071 479.2645 565.952)" fill="#3DBB98" width="23.9" height="170.1"/>
</g>
<g>
	<path fill="#3DBB98" d="M265.3,229.1c2.4-2.4,5.3-3.3,8.1-3.3c2.8,0,5.6,1,8.1,3.3l28.9,28.9c4.7,4.7,4.7,11.9,0,16.1
		c-2.4,2.4-5.3,3.3-8.1,3.3c-1.4,0-2.9-0.5-4.3-1c-1.4-0.5-2.9-1.4-3.8-2.4l-28.9-28.9c-1-1-1.8-2.4-2.4-3.8
		C261.1,237.6,262,232.4,265.3,229.1z"/>
</g>
<path fill="#3DBB98" d="M285.3,225.7l2.9,2.9l9.6-9.6l-79.8-79.8c-5.3-5.3-13.3-5.3-18.6,0c-2.4,2.4-3.8,5.6-3.8,9
	c0,3.3,1.4,6.7,3.8,9l65.6,65.6c2.4-1.4,5.3-2.4,8.5-2.4C277.6,221,281.9,222.8,285.3,225.7z"/>
<path fill="#3DBB98" d="M314.3,254.7c2.9,2.9,4.7,7.1,4.7,11.4c0,2.9-1,5.6-2.4,8.5l56,56l18.6-18.6l-70.3-69.8l-9.6,9.6
	L314.3,254.7z"/>
<path fill="#59DFB4" d="M370.3,333.1l-55.7-55.7l-0.5,0.5c-3.3,3.3-7.1,4.7-11.4,4.7c-0.5,0-0.5,0-1,0l-1,4.7l58.1,58.1L370.3,333.1
	z"/>
<path fill="#59DFB4" d="M262,225.7l0.5-0.5L194,156.8c-3.3-3.3-8.5-3.3-11.9,0s-3.3,8.5,0,11.9l70.3,70.3l4.7-1
	C257.3,233.9,258.6,229.1,262,225.7z"/>
<path fill="#3DBB98" d="M229.1,121.7c-3.3-3.3-8.5-3.3-11.9,0c-3.3,3.3-3.3,8.5,0,11.9l82.7,82.7l11.9-11.9L229.1,121.7z"/>
<rect x="356.4" y="219.4" transform="matrix(-0.7071 0.7071 -0.7071 -0.7071 812.7141 201.0558)" fill="#3DBB98" width="16.7" height="98.9"/>
<path fill="#59DFB4" d="M177.9,149.8c15.7-8.5,26.2-22.8,30.4-30c1.4-2.4,0-5.3-2.4-5.6l-33.8-6.1c-2.9-0.5-4.7,1.8-4.3,4.3
	l6.1,35.6C174.5,149.8,176.4,150.6,177.9,149.8z"/>
<path fill="#3DBB98" d="M429.7,322.7l-21-21l-47,47l21,21c3.3,3.3,8.1,3.3,11.4,0l35.6-35.6C433.1,330.8,433.1,325.5,429.7,322.7z"
	/>
</svg>
