<?xml version="1.0" encoding="utf-8"?>
<!-- Generator: Adobe Illustrator 18.1.0, SVG Export Plug-In . SVG Version: 6.00 Build 0)  -->
<!DOCTYPE svg PUBLIC "-//W3C//DTD SVG 1.1//EN" "http://www.w3.org/Graphics/SVG/1.1/DTD/svg11.dtd">
<svg version="1.1" id="Layer_1" xmlns="http://www.w3.org/2000/svg" xmlns:xlink="http://www.w3.org/1999/xlink" x="0px" y="0px"
	 viewBox="187.7 97.7 416.6 416.6" enable-background="new 187.7 97.7 416.6 416.6" xml:space="preserve">
<g>
	<path fill="#FFFFFF" d="M396,499.9c-106.8,0-193.9-87-193.9-193.9S289.2,112.1,396,112.1S589.9,199.2,589.9,306
		S502.8,499.9,396,499.9z"/>
	<path fill="#57364C" d="M396,114.2c105.6,0,191.8,86.2,191.8,191.8S501.6,497.8,396,497.8S204.2,411.6,204.2,306
		S290.4,114.2,396,114.2 M396,110.1c-108,0-195.9,87.9-195.9,195.9S288,501.9,396,501.9S591.9,414,591.9,306S504,110.1,396,110.1
		L396,110.1z"/>
	<path fill="#FFFFFF" d="M396,110.1c108,0,195.9,87.9,195.9,195.9S504,501.9,396,501.9S200.1,414,200.1,306S288,110.1,396,110.1
		 M396,97.7c-114.7,0-208.3,93.7-208.3,208.3S281.3,514.3,396,514.3S604.3,420.7,604.3,306S510.7,97.7,396,97.7L396,97.7z"/>
</g>
<g>
	<g>
		<g>
			<path fill="#85CEC1" d="M287.5,414.5L287.5,414.5L287.5,414.5z"/>
		</g>
		<g>
			<path fill="#805470" d="M341.9,355.5c1.2-1.2,3.3-1.2,4.6,0l0,0l46.2-46.2l-7.4-7.4l-21.9,5.3l-30.6,7.8L288.6,412l52.8-52.8
				C340.7,358,341.2,356.4,341.9,355.5z"/>
		</g>
		<g>
			<path fill="#51BFAE" d="M287.5,414.5L287.5,414.5L287.5,414.5z"/>
		</g>
		<g>
			<path fill="#57364C" d="M392.7,309.3l-46.2,46.2c1.2,1.2,1.2,3.3,0,4.6c-0.9,0.9-2.5,1.2-3.7,0.4L290,413.3l96.9-44.5l7.8-30.6
				l5.3-21.9L392.7,309.3z"/>
		</g>
		<polygon fill="#FFFFFF" points="287.1,413.7 287.5,414.5 288.7,412 		"/>
		<polygon fill="#FFFFFF" points="288.3,414.9 290,413.3 287.5,414.5 		"/>
		<g>
			
				<rect x="435" y="183.3" transform="matrix(0.7071 0.7071 -0.7071 0.7071 312.2249 -239.5513)" fill="#57364C" width="20.7" height="147.6"/>
		</g>
		<g>
			<path fill="#57364C" d="M365.9,296.5c2.1-2.1,4.6-2.9,7-2.9s4.9,0.9,7,2.9l25.1,25.1c4.1,4.1,4.1,10.3,0,14
				c-2.1,2.1-4.6,2.9-7,2.9c-1.2,0-2.5-0.4-3.7-0.9c-1.2-0.4-2.5-1.2-3.3-2.1l-25.1-25.1c-0.9-0.9-1.6-2.1-2.1-3.3
				C362.2,303.9,363,299.4,365.9,296.5z"/>
		</g>
	</g>
	
		<rect x="394.7" y="295.1" transform="matrix(-0.7071 -0.7071 0.7071 -0.7071 481.532 792.9564)" fill="none" width="20.7" height="3.3"/>
	
		<rect x="446.5" y="188.5" transform="matrix(-0.7071 -0.7071 0.7071 -0.7071 606.3347 741.9221)" fill="none" width="20.7" height="113.8"/>
	<path fill="#57364C" d="M383.2,293.6l2.5,2.5l8.3-8.3l-69.3-69.3c-4.6-4.6-11.5-4.6-16.1,0c-2.1,2.1-3.3,4.9-3.3,7.8
		s1.2,5.8,3.3,7.8l56.9,56.9c2.1-1.2,4.6-2.1,7.4-2.1C376.6,289.5,380.3,291.1,383.2,293.6z"/>
	<path fill="#57364C" d="M408.4,318.8c2.5,2.5,4.1,6.2,4.1,9.9c0,2.5-0.9,4.9-2.1,7.4l48.6,48.6l16.1-16.1l-61-60.6l-8.3,8.3
		L408.4,318.8z"/>
	<path fill="#805470" d="M457,386.8l-48.3-48.3l-0.4,0.4c-2.9,2.9-6.2,4.1-9.9,4.1c-0.4,0-0.4,0-0.9,0l-0.9,4.1l50.4,50.4L457,386.8
		z"/>
	<path fill="#805470" d="M363,293.6l0.4-0.4L304,233.8c-2.9-2.9-7.4-2.9-10.3,0s-2.9,7.4,0,10.3l61,61l4.1-0.9
		C358.9,300.7,360.1,296.5,363,293.6z"/>
	<path fill="#57364C" d="M334.5,203.3c-2.9-2.9-7.4-2.9-10.3,0c-2.9,2.9-2.9,7.4,0,10.3l71.8,71.8l10.3-10.3L334.5,203.3z"/>
	
		<rect x="444.9" y="288.2" transform="matrix(0.7071 -0.7071 0.7071 0.7071 -101.6671 416.6308)" fill="#57364C" width="14.5" height="85.8"/>
	<path fill="#805470" d="M290,227.7c13.6-7.4,22.7-19.8,26.4-26c1.2-2.1,0-4.6-2.1-4.9l-29.3-5.3c-2.5-0.4-4.1,1.6-3.7,3.7l5.3,30.9
		C287.1,227.7,288.7,228.4,290,227.7z"/>
	<path fill="#57364C" d="M508.6,377.8l-18.2-18.2l-40.8,40.8l18.2,18.2c2.9,2.9,7,2.9,9.9,0l30.9-30.9
		C511.5,384.8,511.5,380.2,508.6,377.8z"/>
</g>
</svg>
