<?xml version="1.0" encoding="utf-8"?>
<!-- Generator: Adobe Illustrator 18.1.0, SVG Export Plug-In . SVG Version: 6.00 Build 0)  -->
<!DOCTYPE svg PUBLIC "-//W3C//DTD SVG 1.1//EN" "http://www.w3.org/Graphics/SVG/1.1/DTD/svg11.dtd">
<svg version="1.1" id="Layer_1" xmlns="http://www.w3.org/2000/svg" xmlns:xlink="http://www.w3.org/1999/xlink" x="0px" y="0px"
	 viewBox="0 0 1024 768" enable-background="new 0 0 1024 768" xml:space="preserve">
<g>
	<path fill="#FFFFFF" d="M512,634.7c-138.1,0-250.7-112.5-250.7-250.7S373.9,133.3,512,133.3S762.7,245.9,762.7,384
		S650.1,634.7,512,634.7z"/>
	<path fill="#57364C" d="M512,136c136.5,0,248,111.5,248,248S648.5,632,512,632S264,520.5,264,384S375.5,136,512,136 M512,130.7
		c-139.7,0-253.3,113.6-253.3,253.3S372.3,637.3,512,637.3S765.3,523.7,765.3,384S651.7,130.7,512,130.7L512,130.7z"/>
	<path fill="#FFFFFF" d="M512,130.7c139.7,0,253.3,113.6,253.3,253.3S651.7,637.3,512,637.3S258.7,523.7,258.7,384
		S372.3,130.7,512,130.7 M512,114.7c-148.3,0-269.3,121.1-269.3,269.3s121,269.3,269.3,269.3s269.3-121,269.3-269.3
		S660.3,114.7,512,114.7L512,114.7z"/>
</g>
<g>
	<g>
		<g>
			<path fill="#85CEC1" d="M371.7,524.3L371.7,524.3L371.7,524.3z"/>
		</g>
		<g>
			<path fill="#805470" d="M442.1,448c1.6-1.6,4.3-1.6,5.9,0l0,0l59.7-59.7l-9.6-9.6l-28.3,6.9l-39.5,10.1L373.2,521l68.3-68.3
				C440.5,451.2,441.1,449.1,442.1,448z"/>
		</g>
		<g>
			<path fill="#51BFAE" d="M371.7,524.3L371.7,524.3L371.7,524.3z"/>
		</g>
		<g>
			<path fill="#57364C" d="M507.7,388.3L448,448c1.6,1.6,1.6,4.3,0,5.9c-1.1,1.1-3.2,1.6-4.8,0.5l-68.3,68.3l125.3-57.6l10.1-39.5
				l6.9-28.3L507.7,388.3z"/>
		</g>
		<polygon fill="#FFFFFF" points="371.2,523.2 371.7,524.3 373.3,521.1 		"/>
		<polygon fill="#FFFFFF" points="372.8,524.8 374.9,522.7 371.7,524.3 		"/>
		<g>
			
				<rect x="562.4" y="225.3" transform="matrix(-0.7071 -0.7071 0.7071 -0.7071 756.0214 954.7078)" fill="#57364C" width="26.7" height="190.9"/>
		</g>
		<g>
			<path fill="#57364C" d="M473.1,371.7c2.7-2.7,5.9-3.7,9.1-3.7s6.4,1.1,9.1,3.7l32.5,32.5c5.3,5.3,5.3,13.3,0,18.1
				c-2.7,2.7-5.9,3.7-9.1,3.7c-1.6,0-3.2-0.5-4.8-1.1c-1.6-0.5-3.2-1.6-4.3-2.7l-32.5-32.5c-1.1-1.1-2.1-2.7-2.7-4.3
				C468.3,381.3,469.3,375.5,473.1,371.7z"/>
		</g>
	</g>
	
		<rect x="510.3" y="369.9" transform="matrix(0.7071 0.7071 -0.7071 0.7071 416.4305 -261.3095)" fill="none" width="26.7" height="4.3"/>
	
		<rect x="577.3" y="232" transform="matrix(0.7071 0.7071 -0.7071 0.7071 389.0829 -328.1092)" fill="none" width="26.7" height="147.2"/>
	<path fill="#57364C" d="M495.5,368l3.2,3.2l10.7-10.7l-89.6-89.6c-5.9-5.9-14.9-5.9-20.8,0c-2.7,2.7-4.3,6.4-4.3,10.1
		s1.6,7.5,4.3,10.1l73.6,73.6c2.7-1.6,5.9-2.7,9.6-2.7C486.9,362.7,491.7,364.8,495.5,368z"/>
	<path fill="#57364C" d="M528,400.5c3.2,3.2,5.3,8,5.3,12.8c0,3.2-1.1,6.4-2.7,9.6l62.9,62.9l20.8-20.8l-78.9-78.4l-10.7,10.7
		L528,400.5z"/>
	<path fill="#805470" d="M590.9,488.5l-62.4-62.4l-0.5,0.5c-3.7,3.7-8,5.3-12.8,5.3c-0.5,0-0.5,0-1.1,0l-1.1,5.3l65.1,65.1
		L590.9,488.5z"/>
	<path fill="#805470" d="M469.3,368l0.5-0.5L393,290.7c-3.7-3.7-9.6-3.7-13.3,0s-3.7,9.6,0,13.3l78.9,78.9l5.3-1.1
		C464,377.1,465.6,371.7,469.3,368z"/>
	<path fill="#57364C" d="M432.5,251.2c-3.7-3.7-9.6-3.7-13.3,0s-3.7,9.6,0,13.3l92.8,92.8l13.3-13.3L432.5,251.2z"/>
	
		<rect x="575.2" y="361" transform="matrix(-0.7071 0.7071 -0.7071 -0.7071 1292.3202 297.5094)" fill="#57364C" width="18.7" height="110.9"/>
	<path fill="#805470" d="M374.9,282.7c17.6-9.6,29.3-25.6,34.1-33.6c1.6-2.7,0-5.9-2.7-6.4l-37.9-6.9c-3.2-0.5-5.3,2.1-4.8,4.8
		l6.9,40C371.2,282.7,373.3,283.7,374.9,282.7z"/>
	<path fill="#57364C" d="M657.6,476.8l-23.5-23.5l-52.8,52.8l23.5,23.5c3.7,3.7,9.1,3.7,12.8,0l40-40
		C661.3,485.9,661.3,480,657.6,476.8z"/>
</g>
</svg>
