<?xml version="1.0" encoding="utf-8"?>
<!-- Generator: Adobe Illustrator 18.1.0, SVG Export Plug-In . SVG Version: 6.00 Build 0)  -->
<!DOCTYPE svg PUBLIC "-//W3C//DTD SVG 1.1//EN" "http://www.w3.org/Graphics/SVG/1.1/DTD/svg11.dtd">
<svg version="1.1" id="Layer_1" xmlns="http://www.w3.org/2000/svg" xmlns:xlink="http://www.w3.org/1999/xlink" x="0px" y="0px"
	 viewBox="144 84 311.5 311.5" enable-background="new 144 84 311.5 311.5" xml:space="preserve">
<path fill="#59DFB4" d="M358.1,228.5H345c0.9,3.8,1.6,7.5,1.6,11.5c0,25.6-20.6,46.6-46.2,46.6c-25.6,0-46.2-20.6-46.2-46.6
	c0-4,0.6-7.8,1.6-11.5h-13.1v63.7c0,3.1,2.5,5.9,5.9,5.9h104.4c3.1,0,5.9-2.5,5.9-5.9v-63.7H358.1z M358.1,187.8
	c0-3.1-2.5-5.9-5.9-5.9h-17.5c-3.1,0-5.9,2.5-5.9,5.9v17.5c0,3.1,2.5,5.9,5.9,5.9h17.5c3.1,0,5.9-2.5,5.9-5.9V187.8z M300,210.9
	c-15.9,0-29.1,13.1-29.1,29.1s13.1,29.1,29.1,29.1s29.1-13.1,29.1-29.1S315.9,210.9,300,210.9 M358.1,315.3H241.9
	c-9.7,0-17.5-7.8-17.5-17.5V181.9c0-9.7,7.8-17.5,17.5-17.5h116c9.7,0,17.5,7.8,17.5,17.5v116C375.3,307.5,367.5,315.3,358.1,315.3"
	/>
<g>
	<path fill="#59DFB4" d="M299.8,94c38.9,0,75.5,15.2,103.1,42.7c27.5,27.5,42.7,64.1,42.7,103.1s-15.2,75.5-42.7,103.1
		c-27.5,27.5-64.1,42.7-103.1,42.7s-75.5-15.2-103.1-42.7c-27.5-27.5-42.7-64.1-42.7-103.1s15.2-75.5,42.7-103.1
		C224.3,109.2,260.9,94,299.8,94 M299.8,84c-86,0-155.8,69.7-155.8,155.8s69.7,155.8,155.8,155.8s155.8-69.7,155.8-155.8
		S385.8,84,299.8,84L299.8,84z"/>
</g>
</svg>
