<?xml version="1.0" encoding="utf-8"?>
<!-- Generator: Adobe Illustrator 18.1.0, SVG Export Plug-In . SVG Version: 6.00 Build 0)  -->
<!DOCTYPE svg PUBLIC "-//W3C//DTD SVG 1.1//EN" "http://www.w3.org/Graphics/SVG/1.1/DTD/svg11.dtd">
<svg version="1.1" id="Layer_1" xmlns="http://www.w3.org/2000/svg" xmlns:xlink="http://www.w3.org/1999/xlink" x="0px" y="0px"
	 viewBox="0 0 1024 768" enable-background="new 0 0 1024 768" xml:space="preserve">
<g>
	<path fill="#FFFFFF" d="M512,634.7c-138.1,0-250.7-112.5-250.7-250.7S373.9,133.3,512,133.3S762.7,245.9,762.7,384
		S650.1,634.7,512,634.7z"/>
	<path fill="#51BFAE" d="M512,136c136.5,0,248,111.5,248,248S648.5,632,512,632S264,520.5,264,384S375.5,136,512,136 M512,130.7
		c-139.7,0-253.3,113.6-253.3,253.3S372.3,637.3,512,637.3S765.3,523.7,765.3,384S651.7,130.7,512,130.7L512,130.7z"/>
	<path fill="#FFFFFF" d="M512,130.7c139.7,0,253.3,113.6,253.3,253.3S651.7,637.3,512,637.3S258.7,523.7,258.7,384
		S372.3,130.7,512,130.7 M512,114.7c-148.3,0-269.3,121.1-269.3,269.3S363.7,653.3,512,653.3S781.3,532.3,781.3,384
		S660.3,114.7,512,114.7L512,114.7z"/>
</g>
<path fill="#51BFAE" d="M611.2,364.3h-22.4c1.6,6.4,2.7,12.8,2.7,19.7c0,43.7-35.2,79.5-78.9,79.5c-43.7,0-78.9-35.2-78.9-79.5
	c0-6.9,1.1-13.3,2.7-19.7h-22.4v108.8c0,5.3,4.3,10.1,10.1,10.1h178.1c5.3,0,10.1-4.3,10.1-10.1V364.3H611.2z M611.2,294.9
	c0-5.3-4.3-10.1-10.1-10.1h-29.9c-5.3,0-10.1,4.3-10.1,10.1v29.9c0,5.3,4.3,10.1,10.1,10.1h29.9c5.3,0,10.1-4.3,10.1-10.1V294.9z
	 M512,334.4c-27.2,0-49.6,22.4-49.6,49.6c0,27.2,22.4,49.6,49.6,49.6c27.2,0,49.6-22.4,49.6-49.6C561.6,356.8,539.2,334.4,512,334.4
	 M611.2,512.5H412.8c-16.5,0-29.9-13.3-29.9-29.9V284.8c0-16.5,13.3-29.9,29.9-29.9h197.9c16.5,0,29.9,13.3,29.9,29.9v197.9
	C640.5,499.2,627.2,512.5,611.2,512.5"/>
</svg>
