<?xml version="1.0" encoding="utf-8"?>
<!-- Generator: Adobe Illustrator 18.1.0, SVG Export Plug-In . SVG Version: 6.00 Build 0)  -->
<!DOCTYPE svg PUBLIC "-//W3C//DTD SVG 1.1//EN" "http://www.w3.org/Graphics/SVG/1.1/DTD/svg11.dtd">
<svg version="1.1" id="Layer_1" xmlns="http://www.w3.org/2000/svg" xmlns:xlink="http://www.w3.org/1999/xlink" x="0px" y="0px"
	 viewBox="144 84 311.5 311.5" enable-background="new 144 84 311.5 311.5" xml:space="preserve">
<path id="LinkedIn_3_" fill="#59DFB4" d="M386.2,258.8v63.8H349v-59.4c0-15-5.3-25-18.8-25c-10.3,0-16.2,6.9-19,13.4
	c-0.9,2.5-1.2,5.6-1.2,9.1v61.9h-36.6c0,0,0.6-100.6,0-110.9h36.9v15.6l-0.3,0.3h0.3v-0.3c5-7.8,13.8-18.5,33.5-18.5
	C367.8,208.8,386.2,224.4,386.2,258.8z M234.7,157.8c-12.5,0-20.9,8.4-20.9,19s8.1,19,20.3,19h0.3c12.8,0,20.9-8.4,20.9-19
	C255.3,165.9,247.5,157.8,234.7,157.8z M215.9,322.2h37.2v-111h-37.2V322.2z"/>
<g>
	<path fill="#59DFB4" d="M299.8,94c38.9,0,75.5,15.2,103.1,42.7c27.5,27.5,42.7,64.1,42.7,103.1s-15.2,75.5-42.7,103.1
		c-27.5,27.5-64.1,42.7-103.1,42.7s-75.5-15.2-103.1-42.7c-27.5-27.5-42.7-64.1-42.7-103.1s15.2-75.5,42.7-103.1
		C224.3,109.2,260.9,94,299.8,94 M299.8,84c-86,0-155.8,69.7-155.8,155.8s69.7,155.8,155.8,155.8s155.8-69.7,155.8-155.8
		S385.8,84,299.8,84L299.8,84z"/>
</g>
</svg>
