<?xml version="1.0" encoding="utf-8"?>
<!-- Generator: Adobe Illustrator 18.1.0, SVG Export Plug-In . SVG Version: 6.00 Build 0)  -->
<!DOCTYPE svg PUBLIC "-//W3C//DTD SVG 1.1//EN" "http://www.w3.org/Graphics/SVG/1.1/DTD/svg11.dtd">
<svg version="1.1" id="Layer_1" xmlns="http://www.w3.org/2000/svg" xmlns:xlink="http://www.w3.org/1999/xlink" x="0px" y="0px"
	 viewBox="0 0 1024 768" enable-background="new 0 0 1024 768" xml:space="preserve">
<g>
	<path fill="#51BEAD" d="M784,388.3c0-150.9-122.1-273.1-273.1-273.1c-54.4,0-105.6,16-148.3,43.7c7.5,0,14.9,1.1,22.4,2.1
		c12.8,2.1,26.1,6.4,36.3,14.4c17.1,13.3,26.7,33.1,35.2,52.3c12.3,27.7,23.5,56,33.6,84.3c0.5,0,1.6,0,2.1,0
		c4.3,0.5,27.2,2.7,29.3,9.1c2.1,6.9-14.4,4.8-18.1,4.8c-2.7,0-5.9-0.5-8.5-1.1c11.2,33.1,20.8,66.7,29.3,100.3
		c22.9-76.3,57.1-149.3,117.9-204.8c5.9-5.3,24-1.1,30.4,0.5c2.1,0.5,21.3,5.3,15.5,10.1c-33.6,30.4-58.7,66.7-78.4,106.1v0.5
		c-10.1,35.2-4.8,69.9-0.5,105.6c3.7,29.9,13.9,59.2,28.3,85.3c6.9,12.3,14.4,24.5,24.5,34.1c1.1,1.1,2.1,1.6,3.2,2.7
		c3.7-1.6,7.5-3.7,10.7-6.9c11.2-10.1,17.1-24.5,20.8-38.9c-4.3-1.1-8-2.1-11.7-3.2c-18.7-5.9-49.1-21.3-49.1-44.8
		c0-29.9,53.3-19.2,68.8-15.5c20.8,4.8,43.2,11.7,44.8,36.3c0.5,11.2-1.1,24-4.3,36.3C769.6,488,784,439.5,784,388.3z M657.6,542.9
		c0.5,0.5,0.5,1.6,0,1.6l-0.5,0.5c-0.5,0-0.5,0-1.1-0.5c-54.9-69.9-43.2-188.3-43.2-189.3c0-0.5,0.5-1.1,1.6-1.1
		c0.5,0,1.1,0.5,1.1,1.6C614.9,356.8,603.2,473.6,657.6,542.9z M524.3,385.6C524.3,385.6,523.7,385.6,524.3,385.6
		c-1.1,0-1.6-0.5-1.6-1.1l-14.4-48c0-0.5,0-1.6,1.1-1.6c0.5,0,1.6,0,1.6,1.1l14.4,48C525.3,385.1,524.8,385.6,524.3,385.6z
		 M512.5,135.5c-35.2,0-68.8,6.9-100.8,20.8c13.9,5.3,35.7,18.1,49.1,50.7c21.3,50.7,36.8,91.2,36.8,91.7s0,1.6-0.5,1.6h-0.5
		c-0.5,0-1.1-0.5-1.1-1.1S480,258.1,458.7,208c-14.4-33.6-37.3-45.9-50.1-50.1l0,0c-0.5,0.5-1.6,0-2.1-0.5c-0.5-0.5,0-1.6,0.5-2.1
		c33.1-14.9,68.8-22.9,105.6-22.9c141.3,0,256.5,115.2,256.5,256.5c0,24-3.2,48-10.1,70.9c0,0.5-0.5,1.1-1.6,1.1h-0.5
		c-0.5,0-1.1-1.1-1.1-1.6c6.4-22.9,10.1-46.4,10.1-70.4C766.4,249.1,652.8,135.5,512.5,135.5z"/>
	<path fill="#51BEAD" d="M353.1,591.5c1.1,0.5,2.1,1.6,3.2,2.1c2.7-1.1,5.3-1.6,8-3.2c28.3-15.5,40-48,49.1-77.3
		c20.3-64,28.8-130.7,29.3-197.9c-38.4-10.7-75.2-29.3-103.5-56.5c-14.4-14.4-27.2-34.1-25.6-54.9c0-1.6,0.5-3.7,0.5-5.3
		c-46.9,49.6-76.3,116.3-76.3,189.9c0,53.3,15.5,103.5,42.1,145.6c1.1-17.6,9.1-34.7,21.9-48c6.4-6.4,13.3-12.3,22.4-13.3
		c9.1-1.1,18.7,0,27.7,1.1c5.3,0.5,11.7,1.1,17.1,3.2c9.6,3.7,9.6,17.1,10.7,26.1c1.6,11.7,2.7,23.5,3.2,35.2
		c0,2.1-48.5,1.1-49.1-4.3c0-5.9-0.5-11.2-1.1-16.5c-4.8,12.8-6.4,27.2-3.2,41.1C333.9,571.7,341.9,583.5,353.1,591.5z M306.7,241.6
		c-30.9,43.2-47.5,94.4-47.5,147.2c0,35.7,6.9,69.9,21.3,101.9c0.5,0.5,0,1.6-0.5,2.1h-0.5c-0.5,0-1.1-0.5-1.6-1.1
		c-14.4-32.5-21.9-67.2-21.9-102.9c0-53.9,16.5-105.6,48-149.3c0.5-0.5,1.6-1.1,2.1-0.5C306.7,240,307.2,240.5,306.7,241.6z"/>
	<path fill="#51BEAD" d="M692.8,467.2c-0.5,0-0.5-0.5-0.5-0.5l0,0c0,0,0,0,0,0.5c-0.5,1.1-3.7,2.7-4.8,3.7c-2.1,2.7-3.2,5.9-2.7,9.6
		c1.1,8,8,17.1,15.5,22.9c1.6-9.6,2.7-19.7-1.1-27.7C697.6,472.5,695.5,469.3,692.8,467.2z"/>
	<path fill="#51BEAD" d="M388.8,265.6c14.4,13.3,32,24.5,50.7,33.1c-5.9-16-12.3-32.5-18.7-48.5c-8-19.2-15.5-38.9-26.7-56.5
		c-3.7-6.4-8.5-11.2-13.3-16.5c-12.8,8.5-19.2,25.6-18.7,40.5C363.2,236.8,375.5,253.3,388.8,265.6z"/>
	<path fill="#51BEAD" d="M618.1,562.7c-14.9-12.8-25.1-31.5-33.6-48.5c-8.5-17.6-15.5-35.7-19.7-54.9c-7.5,26.7-13.9,53.3-19.2,79.5
		c-2.1,8.5-46.9,1.6-48.5-8c-4.3-29.9-9.6-59.2-16-88.5c-2.1,11.2-4.3,22.4-6.9,33.1c-5.3,22.4-11.2,44.3-19.7,65.6
		c-7.5,19.7-18.1,38.4-35.7,50.7c-18.7,13.3-40,13.9-61.9,11.7c-5.9-0.5-11.2-1.1-17.1-2.1c46.9,37.9,106.1,60.3,171.2,60.3
		c77.3,0,147.2-32,196.8-83.7c-5.9,2.7-11.7,4.3-18.1,4.8C665.1,585.1,636.8,579.2,618.1,562.7z M658.7,600
		c-43.2,29.3-93.3,45.3-146.1,45.3c-42.7,0-84.8-10.7-121.6-30.9c-0.5-0.5-1.1-1.1-0.5-1.6c0-0.5,0.5-1.1,1.6-1.1
		c0.5,0,57.1-3.7,74.7-85.9c0-0.5,1.1-1.1,1.6-1.1s1.1,1.1,1.1,1.6c-9.6,44.3-29.9,66.1-45.3,76.3c-11.2,7.5-21.3,10.7-27.2,11.7
		c35.7,18.7,75.7,28.3,116.3,28.3c51.7,0,101.9-15.5,144-44.8c0.5-0.5,1.6-0.5,2.1,0.5C659.2,598.4,659.2,599.5,658.7,600z"/>
</g>
<g>
	<path fill="#51BEAD" d="M273.1,625.6c-3.2,0.5-6.4,0-9.1-1.6c-2.7-1.1-4.8-3.2-6.9-5.3c-2.1-2.7-3.7-4.8-4.8-7.5s-1.1-5.3-1.1-8
		s1.1-5.3,2.1-8s3.2-4.8,5.3-6.9s4.8-3.7,7.5-4.8c2.7-1.1,5.3-1.6,8-1.1c2.7,0.5,5.3,1.1,8,2.1s4.8,3.2,6.9,5.3
		c2.1,2.1,3.2,4.3,4.3,6.9c1.1,2.7,1.1,5.3,0.5,8l-4.3-0.5c0.5-2.1,0.5-4.3,0-6.4c-0.5-2.1-1.6-3.7-3.2-5.3
		c-1.6-2.1-3.7-3.7-5.9-4.8s-4.3-1.6-6.4-1.6s-4.3,0.5-6.9,1.1c-2.1,1.1-4.3,2.1-6.4,3.7s-3.7,3.7-4.8,5.9c-1.1,2.1-1.6,4.3-2.1,6.4
		c0,2.1,0,4.3,0.5,6.9c0.5,2.1,2.1,4.3,3.7,6.4c0.5,0.5,1.6,1.6,2.7,2.1c1.1,0.5,2.1,1.1,3.2,1.6c1.1,0.5,2.1,0.5,3.7,1.1
		c1.1,0,2.7,0,3.7,0L273.1,625.6z"/>
	<path fill="#51BEAD" d="M307.7,609.6l8.5,6.9c0.5,0.5,1.1,1.1,1.6,1.6c0.5,0.5,1.6,1.6,2.1,2.1c0.5,1.1,1.6,1.6,2.1,2.7
		c0.5,1.1,1.1,2.1,1.1,3.2s0,2.7-0.5,3.7c-0.5,1.6-1.1,2.7-2.1,4.3c-1.1,1.6-2.7,2.7-4.3,3.2s-2.7,0.5-4.3,0.5
		c-1.1,0-2.7-0.5-3.7-1.1s-2.1-1.1-3.2-1.6l-3.7,23.5l-3.2-2.7l3.7-22.9l-5.3-4.8l-12.8,14.9l-3.2-2.7L307.7,609.6z M298.7,626.1
		l6.4,5.3c1.6,1.6,3.2,2.1,4.3,2.7s2.7,0.5,3.7,0.5s2.1-0.5,2.7-1.1s1.6-1.1,1.6-1.6c0.5-0.5,1.1-1.1,1.1-2.1
		c0.5-1.1,0.5-1.6,0.5-2.7s-0.5-2.1-1.1-3.2c-0.5-1.1-1.6-2.7-3.2-3.7l-6.4-5.3L298.7,626.1z"/>
	<path fill="#51BEAD" d="M337.6,633.6l21.3,13.9l-1.6,3.2l-18.1-11.7l-8,12.3l17.1,11.2l-2.1,3.2l-17.1-11.2l-9.1,13.9l19.2,12.3
		l-2.1,3.2l-22.4-14.4L337.6,633.6z"/>
	<path fill="#51BEAD" d="M382.4,659.7l3.7,1.6l-2.1,45.3l-3.7-2.1l0.5-12.3l-20.3-9.6l-9.1,8l-3.7-1.6L382.4,659.7z M381.9,664.5
		l-18.7,16.5l17.6,8L381.9,664.5z"/>
	<path fill="#51BEAD" d="M414.9,676.8l-13.9-4.3l1.1-3.2l30.9,10.1l-1.1,3.2l-13.9-4.3l-12.3,36.3l-3.7-1.1L414.9,676.8z"/>
	<path fill="#51BEAD" d="M442.1,681.1l3.7,1.1l-9.6,41.1l-3.7-1.1L442.1,681.1z"/>
	<path fill="#51BEAD" d="M453.3,683.7l4.3,0.5l8.5,38.4l18.7-34.7l4.3,0.5L467.7,728l-3.7-0.5L453.3,683.7z"/>
	<path fill="#51BEAD" d="M497.1,689.1l25.6,0.5v3.7l-21.9-0.5v14.9l20.3,0.5v3.7l-20.3-0.5V728l22.9,0.5v3.7l-26.7-0.5L497.1,689.1z
		"/>
	<path fill="#51BEAD" d="M552.5,686.9l12.8-2.7c3.7-0.5,6.9-1.1,9.6-0.5c2.7,0.5,4.8,1.1,6.9,2.1c2.1,1.1,3.7,2.1,4.8,3.7
		c1.1,1.6,2.1,2.7,3.2,4.3c0.5,1.6,1.1,2.7,1.6,3.7c0.5,1.1,0.5,2.1,0.5,2.7c0,0.5,0,1.6,0.5,2.7c0,1.1,0,2.7,0,4.3
		c0,1.6-0.5,3.2-1.1,5.3c-0.5,1.6-1.6,3.7-3.2,5.3s-3.2,3.2-5.3,4.8c-2.1,1.6-5.3,2.1-9.1,3.2l-12.8,2.7L552.5,686.9z M563.7,723.7
		l8-1.6c2.7-0.5,5.3-1.6,7.5-2.7s4.3-2.7,5.3-4.3c1.6-1.6,2.7-3.7,3.2-5.9c0.5-2.1,0.5-4.8,0-8c-0.5-3.2-1.6-5.3-3.2-7.5
		s-3.2-3.2-5.3-4.3s-4.3-1.6-6.9-2.1c-2.7,0-5.3,0-8,0.5l-8,1.6L563.7,723.7z"/>
	<path fill="#51BEAD" d="M600,676.3l24-8.5l1.1,3.2l-20.3,7.5l4.8,13.9l19.2-6.9l1.1,3.2l-19.2,6.9l5.3,15.5l21.3-7.5l1.1,3.2
		l-25.1,9.1L600,676.3z"/>
	<path fill="#51BEAD" d="M651.7,692.3c1.6,1.1,3.7,1.6,5.3,1.6c1.6,0,3.7-0.5,5.3-1.6c1.1-0.5,2.1-1.1,3.2-2.1s1.6-1.6,2.1-2.7
		s0.5-2.1,0.5-3.2c0-1.1-0.5-2.1-1.1-3.2s-1.6-2.1-2.7-2.7s-2.1-1.1-3.2-1.1s-2.7,0-3.7,0c-1.6,0-2.7,0.5-4.3,0.5
		c-1.6,0-2.7,0.5-4.3,0.5c-1.6,0-2.7,0-4.3-0.5s-2.7-1.1-3.7-2.1s-2.1-2.1-3.2-4.3c-1.1-1.6-1.1-3.2-1.1-4.8s0.5-3.2,1.1-4.8
		c0.5-1.6,1.6-2.7,2.7-3.7s2.7-2.1,4.3-3.2c2.1-1.1,4.3-1.6,6.4-1.6c2.1,0,4.3,0.5,6.4,1.6l-2.1,3.7c-1.6-0.5-3.2-1.1-4.3-1.1
		c-1.6,0-3.2,0.5-4.8,1.1c-1.1,0.5-2.1,1.1-3.2,2.1c-1.1,1.1-1.6,1.6-2.1,2.7s-0.5,2.1-0.5,3.2s0.5,2.1,1.1,3.7
		c1.1,2.1,2.1,3.2,3.7,3.7c1.6,0.5,3.2,0.5,4.8,0.5c1.6,0,3.7-0.5,5.3-0.5c2.1-0.5,3.7-0.5,5.3-0.5c1.6,0,3.7,0.5,5.3,1.1
		c1.6,1.1,3.2,2.7,4.3,4.8c1.1,1.6,1.1,3.2,1.1,4.8c0,1.6-0.5,3.2-1.1,4.8c-0.5,1.6-1.6,2.7-2.7,3.7s-2.7,2.1-4.3,2.7
		c-2.7,1.1-4.8,2.1-7.5,2.1s-4.8-0.5-7.5-1.6L651.7,692.3z"/>
	<path fill="#51BEAD" d="M666.7,645.9l3.2-2.1l21.9,35.7l-3.2,2.1L666.7,645.9z"/>
	<path fill="#51BEAD" d="M733.9,645.9c-1.1,2.7-2.7,4.8-4.3,6.9c-1.6,2.1-3.7,3.7-5.9,5.9c-2.7,2.1-5.3,3.2-8,4.3
		c-2.7,0.5-5.3,1.1-8,0.5s-5.3-1.1-8-2.7c-2.7-1.6-4.8-3.7-6.9-5.9c-2.1-2.1-3.2-5.3-4.3-8c-1.1-2.7-1.1-5.3-0.5-8
		c0.5-2.7,1.1-5.3,2.7-8c1.6-2.7,3.2-4.8,5.9-6.9c4.8-3.7,10.1-5.3,15.5-4.8l-0.5,4.3c-1.1,0-2.1-0.5-3.2,0c-1.1,0-2.1,0-3.2,0.5
		s-2.1,0.5-3.2,1.1s-2.1,1.1-3.2,1.6c-2.1,1.6-3.7,3.7-4.8,5.9c-1.1,2.1-1.6,4.3-2.1,6.4c0,2.1,0,4.3,1.1,6.9
		c0.5,2.1,2.1,4.3,3.7,6.4c1.6,2.1,3.2,3.7,5.3,4.8s4.3,2.1,6.4,2.7c2.1,0.5,4.3,0,6.9-0.5c2.1-0.5,4.8-1.6,6.9-3.2
		c1.6-1.6,3.2-2.7,4.8-4.3c1.6-1.6,2.1-3.2,3.2-4.8l-8.5-11.2l-8,6.4l-2.1-2.7l11.2-8.5L733.9,645.9z"/>
	<path fill="#51BEAD" d="M721.6,603.7l3.2-3.7l44.3,5.9l0,0l-27.2-24.5l2.7-2.7l30.9,28.3l-3.2,3.7l-44.3-5.9l0,0l27.2,24.5
		l-2.7,2.7L721.6,603.7z"/>
</g>
<g>
	<path fill="#51BEAD" d="M277.3,138.1l3.2-2.7l34.1,19.7l-13.3-36.8l3.2-2.7l14.9,42.1l-3.2,2.1L277.3,138.1z"/>
	<path fill="#51BEAD" d="M311.5,110.9l3.2-2.1l24.5,34.1l-3.2,2.1L311.5,110.9z"/>
	<path fill="#51BEAD" d="M374.4,113.1c-0.5,3.2-1.6,6.4-3.2,8.5c-1.6,2.1-3.7,4.3-6.4,5.9s-5.3,2.7-8.5,3.2c-2.7,0.5-5.3,0-8-0.5
		s-5.3-2.1-7.5-3.7c-2.1-1.6-4.3-4.3-5.9-6.9c-1.6-2.7-2.7-5.3-3.2-8.5c-0.5-2.7-0.5-5.9,0.5-8c0.5-2.7,2.1-5.3,3.7-7.5
		s4.3-4.3,6.9-5.9c2.7-1.6,4.8-2.1,7.5-2.7c2.7-0.5,5.3,0,8,1.1l-1.6,3.7c-2.1-1.1-4.3-1.1-6.4-1.1c-2.1,0-4.3,1.1-5.9,2.1
		c-2.1,1.6-4.3,3.2-5.9,4.8c-1.6,2.1-2.1,3.7-2.7,6.4c-0.5,2.1-0.5,4.3,0,6.9c0.5,2.1,1.1,4.8,2.7,6.9c1.1,2.1,2.7,4.3,4.8,5.9
		c1.6,1.6,3.7,2.7,5.9,3.2c2.1,0.5,4.3,1.1,6.9,0.5c2.1-0.5,4.8-1.1,6.9-2.7c1.1-0.5,1.6-1.1,2.7-2.1c1.1-0.5,1.6-1.6,2.1-2.7
		c0.5-1.1,1.1-2.1,1.6-3.2c0.5-1.1,0.5-2.7,0.5-3.7L374.4,113.1z"/>
	<path fill="#51BEAD" d="M366.9,77.9l3.7-1.6l6.9,17.1h0.5l11.7-25.1l4.8-2.1l-12.3,26.1l29.3,12.3l-5.3,2.1l-27.7-11.7h-0.5
		l8.5,19.7l-3.7,1.6L366.9,77.9z"/>
	<path fill="#51BEAD" d="M404.3,62.9l24.5-6.9l1.1,3.2l-20.8,5.9l4.3,14.4l19.7-5.9l1.1,3.2l-19.7,5.9l4.8,15.5l21.9-6.4l1.1,3.2
		l-26.1,8.5L404.3,62.9z"/>
	<path fill="#51BEAD" d="M455.5,75.2l-19.2-20.8l4.8-0.5l16,17.6l9.6-21.9l4.3-0.5l-11.7,25.6l3.2,17.6l-3.7,0.5L455.5,75.2z"/>
	<path fill="#51BEAD" d="M497.1,45.9h5.9l14.4,35.7l16-34.7h5.3l0,41.6h-3.7l0.5-36.8l0,0l-16.5,36.8h-1.6l-15.5-37.3l0,0L501.3,88
		h-3.7L497.1,45.9z"/>
	<path fill="#51BEAD" d="M555.2,49.1l25.6,4.3l-0.5,3.7l-21.3-3.7l-2.1,14.9l20.3,3.2l-1.6,3.2l-20.3-3.2l-2.7,16l22.4,3.7l-0.5,3.7
		l-26.1-4.3L555.2,49.1z M571.2,40l4.8,1.1l-9.1,6.9l-2.7-0.5L571.2,40z"/>
	<path fill="#51BEAD" d="M594.1,56l4.8,1.6l13.9,42.7l0,0l10.7-35.2l3.7,1.1l-12.3,40l-4.8-1.6l-13.9-42.7l0,0l-10.7,35.2l-3.7-1.1
		L594.1,56z"/>
	<path fill="#51BEAD" d="M654.4,77.3l3.7,1.6l-1.6,45.3l-4.3-1.6l0.5-12.3l-20.3-9.1l-8.5,8l-3.7-1.6L654.4,77.3z M654.4,82.1
		l-18.7,16.5l17.6,8L654.4,82.1z"/>
	<path fill="#51BEAD" d="M682.7,91.7l9.6,5.9c0.5,0.5,1.1,0.5,2.1,1.1c0.5,0.5,1.6,1.1,2.7,2.1c1.1,0.5,1.6,1.6,2.1,2.7
		c0.5,1.1,1.1,2.1,1.6,3.2s0.5,2.7,0,3.7c0,1.6-0.5,2.7-1.6,4.3s-2.1,3.2-3.7,3.7c-1.1,0.5-2.7,1.1-3.7,1.1s-2.7,0-3.7-0.5
		c-1.1-0.5-2.7-0.5-3.7-1.1l-0.5,23.5l-3.7-2.1l0.5-22.9l-6.4-3.7l-10.7,17.1l-3.2-2.1L682.7,91.7z M676.3,109.3l6.9,4.3
		c1.6,1.1,3.2,1.6,4.8,2.1c1.6,0,2.7,0,3.7,0s1.6-0.5,2.7-1.1c0.5-0.5,1.1-1.1,1.6-1.6c0.5-0.5,0.5-1.6,1.1-2.1c0-1.1,0-1.6,0-2.7
		c0-1.1-0.5-2.1-1.6-3.2c-1.1-1.1-2.1-2.1-3.7-3.2l-6.9-4.3L676.3,109.3z"/>
	<path fill="#51BEAD" d="M715.7,113.1l10.1,8c2.7,2.1,4.8,4.8,6.4,6.9c1.6,2.1,2.1,4.3,2.7,6.4c0.5,2.1,0.5,4.3,0,5.9
		c-0.5,2.1-0.5,3.7-1.6,5.3c-0.5,1.6-1.1,2.7-2.1,3.7c-0.5,1.1-1.1,1.6-1.6,2.1c-0.5,0.5-1.1,1.1-1.6,2.1c-1.1,1.1-2.1,1.6-3.2,2.7
		s-2.7,1.6-4.8,2.1c-1.6,0.5-3.7,1.1-5.9,1.1c-2.1,0-4.3-0.5-6.9-1.6c-2.7-1.1-5.3-2.7-8-4.8l-10.1-8L715.7,113.1z M694.4,145.1
		l6.4,5.3c2.1,1.6,4.3,3.2,6.9,4.3c2.1,1.1,4.8,1.6,6.9,1.6s4.3-0.5,6.9-1.6c2.1-1.1,4.3-2.7,5.9-4.8c2.1-2.1,3.2-4.8,3.7-6.9
		s0.5-4.8,0-6.9s-1.6-4.3-2.7-6.4c-1.6-2.1-3.2-3.7-5.3-5.9l-6.4-5.3L694.4,145.1z"/>
</g>
<g>
	<g>
		<path fill="#51BEAD" d="M250.1,570.7c-2.7-4.3-5.9-8.5-8.5-12.8l2.7-1.6c2.7,4.3,5.3,8.5,8,12.3L250.1,570.7z"/>
	</g>
	<g>
		<path fill="#51BEAD" d="M226.7,530.7c-4.8-9.1-9.1-19.2-12.3-28.8l2.7-1.1c3.7,9.6,8,19.2,12.3,28.3L226.7,530.7z M204.3,472
			c-2.7-10.1-4.8-20.3-6.4-30.4l2.7-0.5c1.6,10.1,3.7,20.3,6.4,30.4L204.3,472z M194.1,410.7c-0.5-6.9-0.5-13.9-0.5-20.8
			c0-3.2,0-6.9,0-10.1h3.2c0,3.2,0,6.9,0,10.1c0,6.9,0,13.9,0.5,20.8H194.1z M199.5,348.3l-2.7-0.5c1.6-10.1,3.2-20.8,5.3-30.9
			l2.7,0.5C202.7,328,200.5,338.1,199.5,348.3z M213.3,288l-2.7-1.1c3.2-9.6,7.5-19.7,11.7-29.3l2.7,1.1
			C220.3,268.8,216.5,278.4,213.3,288z M238.9,232l-2.7-1.6c5.3-9.1,10.7-17.6,17.1-26.1l2.1,1.6C249.6,213.9,244.3,222.9,238.9,232
			z"/>
	</g>
	<g>
		<path fill="#51BEAD" d="M275.2,181.3l-2.1-2.1c3.2-3.7,6.9-7.5,10.1-11.2l2.1,2.1C281.6,173.9,278.4,177.6,275.2,181.3z"/>
	</g>
</g>
<g>
	<g>
		<path fill="#51BEAD" d="M744.5,177.6c-3.2-3.7-6.9-7.5-10.1-10.7l2.1-2.1c3.7,3.7,6.9,7.5,10.7,11.2L744.5,177.6z"/>
	</g>
	<g>
		<path fill="#51BEAD" d="M794.7,534.4l-2.7-1.6c4.8-9.6,9.1-19.2,13.3-28.8l2.7,1.1C803.7,515.2,799.5,525.3,794.7,534.4z
			 M817.6,475.2l-2.7-0.5c2.7-10.1,5.3-20.8,6.9-30.9l2.7,0.5C822.9,454.4,820.8,464.5,817.6,475.2z M828.8,411.7h-3.2
			c0.5-7.5,0.5-14.9,0.5-21.9c0-3.2,0-6.4,0-9.6h3.2c0,3.2,0,6.4,0,9.6C829.3,396.8,829.3,404.3,828.8,411.7z M824,348.3
			c-1.6-10.7-3.2-20.8-5.9-31.5l2.7-0.5c2.7,10.1,4.3,20.8,5.9,31.5L824,348.3z M809.1,286.4c-3.2-10.1-7.5-19.7-11.7-29.3l2.7-1.1
			c4.3,9.6,8.5,19.7,12.3,29.9L809.1,286.4z M782.4,228.8c-5.3-9.1-11.2-18.1-17.6-26.7l2.1-1.6c6.4,8.5,12.3,17.6,17.6,26.7
			L782.4,228.8z"/>
	</g>
	<g>
		<path fill="#51BEAD" d="M769.6,574.9l-2.1-1.6c2.7-4.3,5.9-8,8.5-12.3l2.7,1.6C775.5,566.9,772.8,571.2,769.6,574.9z"/>
	</g>
</g>
<path id="Vimeo_2_" fill="#51BEAD" d="M-953.5,211.4c-8.5-0.3-14.3,4.5-17.3,14.3c1.6-0.6,3.1-1,4.5-1c3.1,0,4.5,1.7,4.1,5.2
	c-0.2,2.1-1.6,5.2-4.1,9.2c-2.6,4-4.5,6.1-5.8,6.1c-1.7,0-3.2-3.1-4.5-9.4c-0.5-1.8-1.3-6.5-2.5-14c-1.1-7-4-10.2-8.8-9.8
	c-2,0.2-5,2-9,5.5c-2.9,2.7-5.9,5.3-8.9,8l2.9,3.7c2.7-1.9,4.4-2.9,4.8-2.9c2.1,0,4.1,3.3,5.9,9.9c1.6,6.1,3.3,12.1,4.9,18.2
	c2.5,6.6,5.5,9.9,9,9.9c5.8,0,12.8-5.4,21.1-16.2c8-10.4,12.2-18.5,12.5-24.5C-944.2,215.6-947.2,211.6-953.5,211.4z"/>
</svg>
