<?xml version="1.0" encoding="utf-8"?>
<!-- Generator: Adobe Illustrator 18.1.0, SVG Export Plug-In . SVG Version: 6.00 Build 0)  -->
<!DOCTYPE svg PUBLIC "-//W3C//DTD SVG 1.1//EN" "http://www.w3.org/Graphics/SVG/1.1/DTD/svg11.dtd">
<svg version="1.1" id="Layer_1" xmlns="http://www.w3.org/2000/svg" xmlns:xlink="http://www.w3.org/1999/xlink" x="0px" y="0px"
	 viewBox="101.3 25 397 432.7" enable-background="new 101.3 25 397 432.7" xml:space="preserve">
<g>
	<path fill="#59DFB4" d="M470,242.7C470,148.3,393.7,72,299.3,72c-34,0-66,10-92.7,27.3c4.7,0,9.3,0.7,14,1.3c8,1.3,16.3,4,22.7,9
		c10.7,8.3,16.7,20.7,22,32.7c7.7,17.3,14.7,35,21,52.7c0.3,0,1,0,1.3,0c2.7,0.3,17,1.7,18.3,5.7c1.3,4.3-9,3-11.3,3
		c-1.7,0-3.7-0.3-5.3-0.7c7,20.7,13,41.7,18.3,62.7c14.3-47.7,35.7-93.3,73.7-128c3.7-3.3,15-0.7,19,0.3c1.3,0.3,13.3,3.3,9.7,6.3
		c-21,19-36.7,41.7-49,66.3v0.3c-6.3,22-3,43.7-0.3,66c2.3,18.7,8.7,37,17.7,53.3c4.3,7.7,9,15.3,15.3,21.3c0.7,0.7,1.3,1,2,1.7
		c2.3-1,4.7-2.3,6.7-4.3c7-6.3,10.7-15.3,13-24.3c-2.7-0.7-5-1.3-7.3-2c-11.7-3.7-30.7-13.3-30.7-28c0-18.7,33.3-12,43-9.7
		c13,3,27,7.3,28,22.7c0.3,7-0.7,15-2.7,22.7C461,305,470,274.7,470,242.7z M391,339.3c0.3,0.3,0.3,1,0,1l-0.3,0.3
		c-0.3,0-0.3,0-0.7-0.3c-34.3-43.7-27-117.7-27-118.3c0-0.3,0.3-0.7,1-0.7c0.3,0,0.7,0.3,0.7,1C364.3,223,357,296,391,339.3z
		 M307.7,241C307.7,241,307.3,241,307.7,241c-0.7,0-1-0.3-1-0.7l-9-30c0-0.3,0-1,0.7-1c0.3,0,1,0,1,0.7l9,30
		C308.3,240.7,308,241,307.7,241z M300.3,84.7c-22,0-43,4.3-63,13c8.7,3.3,22.3,11.3,30.7,31.7c13.3,31.7,23,57,23,57.3s0,1-0.3,1
		h-0.3c-0.3,0-0.7-0.3-0.7-0.7c0-0.3-9.7-25.7-23-57c-9-21-23.3-28.7-31.3-31.3l0,0c-0.3,0.3-1,0-1.3-0.3c-0.3-0.3,0-1,0.3-1.3
		c20.7-9.3,43-14.3,66-14.3c88.3,0,160.3,72,160.3,160.3c0,15-2,30-6.3,44.3c0,0.3-0.3,0.7-1,0.7H453c-0.3,0-0.7-0.7-0.7-1
		c4-14.3,6.3-29,6.3-44C459,155.7,388,84.7,300.3,84.7z"/>
	<path fill="#59DFB4" d="M200.7,369.7c0.7,0.3,1.3,1,2,1.3c1.7-0.7,3.3-1,5-2c17.7-9.7,25-30,30.7-48.3c12.7-40,18-81.7,18.3-123.7
		c-24-6.7-47-18.3-64.7-35.3c-9-9-17-21.3-16-34.3c0-1,0.3-2.3,0.3-3.3c-29.3,31-47.7,72.7-47.7,118.7c0,33.3,9.7,64.7,26.3,91
		c0.7-11,5.7-21.7,13.7-30c4-4,8.3-7.7,14-8.3s11.7,0,17.3,0.7c3.3,0.3,7.3,0.7,10.7,2c6,2.3,6,10.7,6.7,16.3c1,7.3,1.7,14.7,2,22
		c0,1.3-30.3,0.7-30.7-2.7c0-3.7-0.3-7-0.7-10.3c-3,8-4,17-2,25.7C188.7,357.3,193.7,364.7,200.7,369.7z M171.7,151
		c-19.3,27-29.7,59-29.7,92c0,22.3,4.3,43.7,13.3,63.7c0.3,0.3,0,1-0.3,1.3h-0.3c-0.3,0-0.7-0.3-1-0.7c-9-20.3-13.7-42-13.7-64.3
		c0-33.7,10.3-66,30-93.3c0.3-0.3,1-0.7,1.3-0.3C171.7,150,172,150.3,171.7,151z"/>
	<path fill="#59DFB4" d="M413,292c-0.3,0-0.3-0.3-0.3-0.3l0,0c0,0,0,0,0,0.3c-0.3,0.7-2.3,1.7-3,2.3c-1.3,1.7-2,3.7-1.7,6
		c0.7,5,5,10.7,9.7,14.3c1-6,1.7-12.3-0.7-17.3C416,295.3,414.7,293.3,413,292z"/>
	<path fill="#59DFB4" d="M223,166c9,8.3,20,15.3,31.7,20.7c-3.7-10-7.7-20.3-11.7-30.3c-5-12-9.7-24.3-16.7-35.3
		c-2.3-4-5.3-7-8.3-10.3c-8,5.3-12,16-11.7,25.3C207,148,214.7,158.3,223,166z"/>
	<path fill="#59DFB4" d="M366.3,351.7c-9.3-8-15.7-19.7-21-30.3c-5.3-11-9.7-22.3-12.3-34.3c-4.7,16.7-8.7,33.3-12,49.7
		c-1.3,5.3-29.3,1-30.3-5c-2.7-18.7-6-37-10-55.3c-1.3,7-2.7,14-4.3,20.7c-3.3,14-7,27.7-12.3,41c-4.7,12.3-11.3,24-22.3,31.7
		c-11.7,8.3-25,8.7-38.7,7.3c-3.7-0.3-7-0.7-10.7-1.3c29.3,23.7,66.3,37.7,107,37.7c48.3,0,92-20,123-52.3c-3.7,1.7-7.3,2.7-11.3,3
		C395.7,365.7,378,362,366.3,351.7z M391.7,375c-27,18.3-58.3,28.3-91.3,28.3c-26.7,0-53-6.7-76-19.3c-0.3-0.3-0.7-0.7-0.3-1
		c0-0.3,0.3-0.7,1-0.7c0.3,0,35.7-2.3,46.7-53.7c0-0.3,0.7-0.7,1-0.7c0.3,0,0.7,0.7,0.7,1c-6,27.7-18.7,41.3-28.3,47.7
		c-7,4.7-13.3,6.7-17,7.3c22.3,11.7,47.3,17.7,72.7,17.7c32.3,0,63.7-9.7,90-28c0.3-0.3,1-0.3,1.3,0.3C392,374,392,374.7,391.7,375z
		"/>
</g>
<g>
	<path fill="#59DFB4" d="M150.7,391c-2,0.3-4,0-5.7-1c-1.7-0.7-3-2-4.3-3.3c-1.3-1.7-2.3-3-3-4.7c-0.7-1.7-0.7-3.3-0.7-5
		c0-1.7,0.7-3.3,1.3-5c0.7-1.7,2-3,3.3-4.3c1.3-1.3,3-2.3,4.7-3c1.7-0.7,3.3-1,5-0.7c1.7,0.3,3.3,0.7,5,1.3c1.7,0.7,3,2,4.3,3.3
		s2,2.7,2.7,4.3c0.7,1.7,0.7,3.3,0.3,5l-2.7-0.3c0.3-1.3,0.3-2.7,0-4c-0.3-1.3-1-2.3-2-3.3c-1-1.3-2.3-2.3-3.7-3c-1.3-0.7-2.7-1-4-1
		c-1.3,0-2.7,0.3-4.3,0.7c-1.3,0.7-2.7,1.3-4,2.3c-1.3,1-2.3,2.3-3,3.7s-1,2.7-1.3,4c0,1.3,0,2.7,0.3,4.3c0.3,1.3,1.3,2.7,2.3,4
		c0.3,0.3,1,1,1.7,1.3c0.7,0.3,1.3,0.7,2,1c0.7,0.3,1.3,0.3,2.3,0.7c0.7,0,1.7,0,2.3,0L150.7,391z"/>
	<path fill="#59DFB4" d="M172.3,381l5.3,4.3c0.3,0.3,0.7,0.7,1,1s1,1,1.3,1.3c0.3,0.7,1,1,1.3,1.7c0.3,0.7,0.7,1.3,0.7,2
		s0,1.7-0.3,2.3c-0.3,1-0.7,1.7-1.3,2.7c-0.7,1-1.7,1.7-2.7,2c-1,0.3-1.7,0.3-2.7,0.3c-0.7,0-1.7-0.3-2.3-0.7c-0.7-0.3-1.3-0.7-2-1
		l-2.3,14.7l-2-1.7l2.3-14.3l-3.3-3l-8,9.3l-2-1.7L172.3,381z M166.7,391.3l4,3.3c1,1,2,1.3,2.7,1.7c0.7,0.3,1.7,0.3,2.3,0.3
		c0.7,0,1.3-0.3,1.7-0.7c0.3-0.3,1-0.7,1-1c0.3-0.3,0.7-0.7,0.7-1.3c0.3-0.7,0.3-1,0.3-1.7s-0.3-1.3-0.7-2c-0.3-0.7-1-1.7-2-2.3
		l-4-3.3L166.7,391.3z"/>
	<path fill="#59DFB4" d="M191,396l13.3,8.7l-1,2l-11.3-7.3l-5,7.7l10.7,7l-1.3,2l-10.7-7l-5.7,8.7l12,7.7l-1.3,2l-14-9L191,396z"/>
	<path fill="#59DFB4" d="M219,412.3l2.3,1l-1.3,28.3l-2.3-1.3l0.3-7.7l-12.7-6l-5.7,5l-2.3-1L219,412.3z M218.7,415.3L207,425.7
		l11,5L218.7,415.3z"/>
	<path fill="#59DFB4" d="M239.3,423l-8.7-2.7l0.7-2l19.3,6.3l-0.7,2l-8.7-2.7l-7.7,22.7l-2.3-0.7L239.3,423z"/>
	<path fill="#59DFB4" d="M256.3,425.7l2.3,0.7l-6,25.7l-2.3-0.7L256.3,425.7z"/>
	<path fill="#59DFB4" d="M263.3,427.3l2.7,0.3l5.3,24L283,430l2.7,0.3L272.3,455l-2.3-0.3L263.3,427.3z"/>
	<path fill="#59DFB4" d="M290.7,430.7l16,0.3v2.3L293,433v9.3l12.7,0.3v2.3l-12.7-0.3V455l14.3,0.3v2.3l-16.7-0.3L290.7,430.7z"/>
	<path fill="#59DFB4" d="M325.3,429.3l8-1.7c2.3-0.3,4.3-0.7,6-0.3c1.7,0.3,3,0.7,4.3,1.3s2.3,1.3,3,2.3c0.7,1,1.3,1.7,2,2.7
		c0.3,1,0.7,1.7,1,2.3s0.3,1.3,0.3,1.7c0,0.3,0,1,0.3,1.7c0,0.7,0,1.7,0,2.7c0,1-0.3,2-0.7,3.3c-0.3,1-1,2.3-2,3.3c-1,1-2,2-3.3,3
		c-1.3,1-3.3,1.3-5.7,2l-8,1.7L325.3,429.3z M332.3,452.3l5-1c1.7-0.3,3.3-1,4.7-1.7c1.3-0.7,2.7-1.7,3.3-2.7c1-1,1.7-2.3,2-3.7
		c0.3-1.3,0.3-3,0-5c-0.3-2-1-3.3-2-4.7c-1-1.3-2-2-3.3-2.7c-1.3-0.7-2.7-1-4.3-1.3c-1.7,0-3.3,0-5,0.3l-5,1L332.3,452.3z"/>
	<path fill="#59DFB4" d="M355,422.7l15-5.3l0.7,2L358,424l3,8.7l12-4.3l0.7,2l-12,4.3l3.3,9.7l13.3-4.7l0.7,2l-15.7,5.7L355,422.7z"
		/>
	<path fill="#59DFB4" d="M387.3,432.7c1,0.7,2.3,1,3.3,1c1,0,2.3-0.3,3.3-1c0.7-0.3,1.3-0.7,2-1.3s1-1,1.3-1.7
		c0.3-0.7,0.3-1.3,0.3-2c0-0.7-0.3-1.3-0.7-2c-0.3-0.7-1-1.3-1.7-1.7c-0.7-0.3-1.3-0.7-2-0.7s-1.7,0-2.3,0c-1,0-1.7,0.3-2.7,0.3
		c-1,0-1.7,0.3-2.7,0.3c-1,0-1.7,0-2.7-0.3c-1-0.3-1.7-0.7-2.3-1.3c-0.7-0.7-1.3-1.3-2-2.7c-0.7-1-0.7-2-0.7-3s0.3-2,0.7-3
		c0.3-1,1-1.7,1.7-2.3s1.7-1.3,2.7-2c1.3-0.7,2.7-1,4-1c1.3,0,2.7,0.3,4,1l-1.3,2.3c-1-0.3-2-0.7-2.7-0.7c-1,0-2,0.3-3,0.7
		c-0.7,0.3-1.3,0.7-2,1.3c-0.7,0.7-1,1-1.3,1.7c-0.3,0.7-0.3,1.3-0.3,2s0.3,1.3,0.7,2.3c0.7,1.3,1.3,2,2.3,2.3c1,0.3,2,0.3,3,0.3
		c1,0,2.3-0.3,3.3-0.3c1.3-0.3,2.3-0.3,3.3-0.3s2.3,0.3,3.3,0.7c1,0.7,2,1.7,2.7,3c0.7,1,0.7,2,0.7,3s-0.3,2-0.7,3
		c-0.3,1-1,1.7-1.7,2.3s-1.7,1.3-2.7,1.7c-1.7,0.7-3,1.3-4.7,1.3s-3-0.3-4.7-1L387.3,432.7z"/>
	<path fill="#59DFB4" d="M396.7,403.7l2-1.3l13.7,22.3l-2,1.3L396.7,403.7z"/>
	<path fill="#59DFB4" d="M438.7,403.7c-0.7,1.7-1.7,3-2.7,4.3s-2.3,2.3-3.7,3.7c-1.7,1.3-3.3,2-5,2.7c-1.7,0.3-3.3,0.7-5,0.3
		c-1.7-0.3-3.3-0.7-5-1.7s-3-2.3-4.3-3.7s-2-3.3-2.7-5c-0.7-1.7-0.7-3.3-0.3-5c0.3-1.7,0.7-3.3,1.7-5c1-1.7,2-3,3.7-4.3
		c3-2.3,6.3-3.3,9.7-3l-0.3,2.7c-0.7,0-1.3-0.3-2,0c-0.7,0-1.3,0-2,0.3c-0.7,0.3-1.3,0.3-2,0.7c-0.7,0.3-1.3,0.7-2,1
		c-1.3,1-2.3,2.3-3,3.7c-0.7,1.3-1,2.7-1.3,4c0,1.3,0,2.7,0.7,4.3c0.3,1.3,1.3,2.7,2.3,4c1,1.3,2,2.3,3.3,3c1.3,0.7,2.7,1.3,4,1.7
		c1.3,0.3,2.7,0,4.3-0.3c1.3-0.3,3-1,4.3-2c1-1,2-1.7,3-2.7c1-1,1.3-2,2-3l-5.3-7l-5,4l-1.3-1.7l7-5.3L438.7,403.7z"/>
	<path fill="#59DFB4" d="M431,377.3l2-2.3l27.7,3.7l0,0l-17-15.3l1.7-1.7l19.3,17.7l-2,2.3L435,378l0,0l17,15.3l-1.7,1.7L431,377.3z
		"/>
</g>
<g>
	<path fill="#59DFB4" d="M153.3,86.3l2-1.7L176.7,97l-8.3-23l2-1.7l9.3,26.3l-2,1.3L153.3,86.3z"/>
	<path fill="#59DFB4" d="M174.7,69.3l2-1.3L192,89.3l-2,1.3L174.7,69.3z"/>
	<path fill="#59DFB4" d="M214,70.7c-0.3,2-1,4-2,5.3c-1,1.3-2.3,2.7-4,3.7c-1.7,1-3.3,1.7-5.3,2c-1.7,0.3-3.3,0-5-0.3
		S194.3,80,193,79c-1.3-1-2.7-2.7-3.7-4.3c-1-1.7-1.7-3.3-2-5.3c-0.3-1.7-0.3-3.7,0.3-5c0.3-1.7,1.3-3.3,2.3-4.7
		c1-1.3,2.7-2.7,4.3-3.7c1.7-1,3-1.3,4.7-1.7c1.7-0.3,3.3,0,5,0.7l-1,2.3c-1.3-0.7-2.7-0.7-4-0.7c-1.3,0-2.7,0.7-3.7,1.3
		c-1.3,1-2.7,2-3.7,3c-1,1.3-1.3,2.3-1.7,4c-0.3,1.3-0.3,2.7,0,4.3c0.3,1.3,0.7,3,1.7,4.3c0.7,1.3,1.7,2.7,3,3.7c1,1,2.3,1.7,3.7,2
		s2.7,0.7,4.3,0.3c1.3-0.3,3-0.7,4.3-1.7c0.7-0.3,1-0.7,1.7-1.3c0.7-0.3,1-1,1.3-1.7s0.7-1.3,1-2c0.3-0.7,0.3-1.7,0.3-2.3L214,70.7z
		"/>
	<path fill="#59DFB4" d="M209.3,48.7l2.3-1l4.3,10.7h0.3l7.3-15.7l3-1.3L219,57.7l18.3,7.7l-3.3,1.3l-17.3-7.3h-0.3l5.3,12.3l-2.3,1
		L209.3,48.7z"/>
	<path fill="#59DFB4" d="M232.7,39.3L248,35l0.7,2l-13,3.7l2.7,9l12.3-3.7l0.7,2L239,51.7l3,9.7l13.7-4l0.7,2L240,64.7L232.7,39.3z"
		/>
	<path fill="#59DFB4" d="M264.7,47l-12-13l3-0.3l10,11l6-13.7l2.7-0.3l-7.3,16l2,11l-2.3,0.3L264.7,47z"/>
	<path fill="#59DFB4" d="M290.7,28.7h3.7l9,22.3l10-21.7h3.3l0,26h-2.3l0.3-23l0,0l-10.3,23h-1L293.7,32l0,0l-0.3,23H291L290.7,28.7
		z"/>
	<path fill="#59DFB4" d="M327,30.7l16,2.7l-0.3,2.3l-13.3-2.3l-1.3,9.3l12.7,2l-1,2l-12.7-2l-1.7,10l14,2.3l-0.3,2.3l-16.3-2.7
		L327,30.7z M337,25l3,0.7l-5.7,4.3l-1.7-0.3L337,25z"/>
	<path fill="#59DFB4" d="M351.3,35l3,1l8.7,26.7l0,0l6.7-22l2.3,0.7l-7.7,25l-3-1l-8.7-26.7l0,0l-6.7,22l-2.3-0.7L351.3,35z"/>
	<path fill="#59DFB4" d="M389,48.3l2.3,1l-1,28.3l-2.7-1L388,69l-12.7-5.7l-5.3,5l-2.3-1L389,48.3z M389,51.3l-11.7,10.3l11,5
		L389,51.3z"/>
	<path fill="#59DFB4" d="M406.7,57.3l6,3.7c0.3,0.3,0.7,0.3,1.3,0.7c0.3,0.3,1,0.7,1.7,1.3c0.7,0.3,1,1,1.3,1.7c0.3,0.7,0.7,1.3,1,2
		c0.3,0.7,0.3,1.7,0,2.3c0,1-0.3,1.7-1,2.7c-0.7,1-1.3,2-2.3,2.3c-0.7,0.3-1.7,0.7-2.3,0.7s-1.7,0-2.3-0.3s-1.7-0.3-2.3-0.7
		l-0.3,14.7L405,87l0.3-14.3l-4-2.3L394.7,81l-2-1.3L406.7,57.3z M402.7,68.3L407,71c1,0.7,2,1,3,1.3c1,0,1.7,0,2.3,0s1-0.3,1.7-0.7
		c0.3-0.3,0.7-0.7,1-1c0.3-0.3,0.3-1,0.7-1.3c0-0.7,0-1,0-1.7s-0.3-1.3-1-2c-0.7-0.7-1.3-1.3-2.3-2L408,61L402.7,68.3z"/>
	<path fill="#59DFB4" d="M427.3,70.7l6.3,5c1.7,1.3,3,3,4,4.3c1,1.3,1.3,2.7,1.7,4c0.3,1.3,0.3,2.7,0,3.7c-0.3,1.3-0.3,2.3-1,3.3
		c-0.3,1-0.7,1.7-1.3,2.3c-0.3,0.7-0.7,1-1,1.3c-0.3,0.3-0.7,0.7-1,1.3c-0.7,0.7-1.3,1-2,1.7c-0.7,0.7-1.7,1-3,1.3
		c-1,0.3-2.3,0.7-3.7,0.7s-2.7-0.3-4.3-1c-1.7-0.7-3.3-1.7-5-3l-6.3-5L427.3,70.7z M414,90.7l4,3.3c1.3,1,2.7,2,4.3,2.7
		c1.3,0.7,3,1,4.3,1s2.7-0.3,4.3-1c1.3-0.7,2.7-1.7,3.7-3c1.3-1.3,2-3,2.3-4.3c0.3-1.3,0.3-3,0-4.3c-0.3-1.3-1-2.7-1.7-4
		c-1-1.3-2-2.3-3.3-3.7l-4-3.3L414,90.7z"/>
</g>
<g>
	<g>
		<path fill="#59DFB4" d="M136.3,356.7c-1.7-2.7-3.7-5.3-5.3-8l1.7-1c1.7,2.7,3.3,5.3,5,7.7L136.3,356.7z"/>
	</g>
	<g>
		<path fill="#59DFB4" d="M121.7,331.7c-3-5.7-5.7-12-7.7-18l1.7-0.7c2.3,6,5,12,7.7,17.7L121.7,331.7z M107.7,295
			c-1.7-6.3-3-12.7-4-19l1.7-0.3c1,6.3,2.3,12.7,4,19L107.7,295z M101.3,256.7c-0.3-4.3-0.3-8.7-0.3-13c0-2,0-4.3,0-6.3h2
			c0,2,0,4.3,0,6.3c0,4.3,0,8.7,0.3,13H101.3z M104.7,217.7l-1.7-0.3c1-6.3,2-13,3.3-19.3l1.7,0.3
			C106.7,205,105.3,211.3,104.7,217.7z M113.3,180l-1.7-0.7c2-6,4.7-12.3,7.3-18.3l1.7,0.7C117.7,168,115.3,174,113.3,180z
			 M129.3,145l-1.7-1c3.3-5.7,6.7-11,10.7-16.3l1.3,1C136,133.7,132.7,139.3,129.3,145z"/>
	</g>
	<g>
		<path fill="#59DFB4" d="M152,113.3l-1.3-1.3c2-2.3,4.3-4.7,6.3-7l1.3,1.3C156,108.7,154,111,152,113.3z"/>
	</g>
</g>
<g>
	<g>
		<path fill="#59DFB4" d="M445.3,111c-2-2.3-4.3-4.7-6.3-6.7l1.3-1.3c2.3,2.3,4.3,4.7,6.7,7L445.3,111z"/>
	</g>
	<g>
		<path fill="#59DFB4" d="M476.7,334l-1.7-1c3-6,5.7-12,8.3-18l1.7,0.7C482.3,322,479.7,328.3,476.7,334z M491,297l-1.7-0.3
			c1.7-6.3,3.3-13,4.3-19.3l1.7,0.3C494.3,284,493,290.3,491,297z M498,257.3h-2c0.3-4.7,0.3-9.3,0.3-13.7c0-2,0-4,0-6h2
			c0,2,0,4,0,6C498.3,248,498.3,252.7,498,257.3z M495,217.7c-1-6.7-2-13-3.7-19.7l1.7-0.3c1.7,6.3,2.7,13,3.7,19.7L495,217.7z
			 M485.7,179c-2-6.3-4.7-12.3-7.3-18.3l1.7-0.7c2.7,6,5.3,12.3,7.7,18.7L485.7,179z M469,143c-3.3-5.7-7-11.3-11-16.7l1.3-1
			c4,5.3,7.7,11,11,16.7L469,143z"/>
	</g>
	<g>
		<path fill="#59DFB4" d="M461,359.3l-1.3-1c1.7-2.7,3.7-5,5.3-7.7l1.7,1C464.7,354.3,463,357,461,359.3z"/>
	</g>
</g>
<text transform="matrix(1 0 0 1 -1396.6655 -643.3348)" font-family="'MyriadPro-Regular'" font-size="40">rgba(180,214,193,1);</text>
</svg>
