<?xml version="1.0" encoding="utf-8"?>
<!-- Generator: Adobe Illustrator 18.1.0, SVG Export Plug-In . SVG Version: 6.00 Build 0)  -->
<!DOCTYPE svg PUBLIC "-//W3C//DTD SVG 1.1//EN" "http://www.w3.org/Graphics/SVG/1.1/DTD/svg11.dtd">
<svg version="1.1" id="Layer_1" xmlns="http://www.w3.org/2000/svg" xmlns:xlink="http://www.w3.org/1999/xlink" x="0px" y="0px"
	 viewBox="0 0 144 144" enable-background="new 0 0 144 144" xml:space="preserve">
<g>
	<path fill="#54C0AE" d="M123,72.8c0-28.3-22.9-51.2-51.2-51.2c-10.2,0-19.8,3-27.8,8.2c1.4,0,2.8,0.2,4.2,0.4
		c2.4,0.4,4.9,1.2,6.8,2.7c3.2,2.5,5,6.2,6.6,9.8c2.3,5.2,4.4,10.5,6.3,15.8c0.1,0,0.3,0,0.4,0c0.8,0.1,5.1,0.5,5.5,1.7
		c0.4,1.3-2.7,0.9-3.4,0.9c-0.5,0-1.1-0.1-1.6-0.2c2.1,6.2,3.9,12.5,5.5,18.8C78.6,65.4,85,51.7,96.4,41.3c1.1-1,4.5-0.2,5.7,0.1
		c0.4,0.1,4,1,2.9,1.9c-6.3,5.7-11,12.5-14.7,19.9c0,0,0,0.1,0,0.1c-1.9,6.6-0.9,13.1-0.1,19.8c0.7,5.6,2.6,11.1,5.3,16
		c1.3,2.3,2.7,4.6,4.6,6.4c0.2,0.2,0.4,0.3,0.6,0.5c0.7-0.3,1.4-0.7,2-1.3c2.1-1.9,3.2-4.6,3.9-7.3c-0.8-0.2-1.5-0.4-2.2-0.6
		c-3.5-1.1-9.2-4-9.2-8.4c0-5.6,10-3.6,12.9-2.9c3.9,0.9,8.1,2.2,8.4,6.8c0.1,2.1-0.2,4.5-0.8,6.8C120.3,91.5,123,82.4,123,72.8z
		 M99.3,101.8c0.1,0.1,0.1,0.3,0,0.3c0,0-0.1,0.1-0.1,0.1c-0.1,0-0.1,0-0.2-0.1C88.7,89,90.9,66.8,90.9,66.6c0-0.1,0.1-0.2,0.3-0.2
		c0.1,0,0.2,0.1,0.2,0.3C91.3,66.9,89.1,88.8,99.3,101.8z M74.3,72.3C74.3,72.3,74.2,72.3,74.3,72.3c-0.2,0-0.3-0.1-0.3-0.2l-2.7-9
		c0-0.1,0-0.3,0.2-0.3c0.1,0,0.3,0,0.3,0.2l2.7,9C74.5,72.2,74.4,72.3,74.3,72.3z M72.1,25.4c-6.6,0-12.9,1.3-18.9,3.9
		c2.6,1,6.7,3.4,9.2,9.5c4,9.5,6.9,17.1,6.9,17.2c0,0.1,0,0.3-0.1,0.3c0,0-0.1,0-0.1,0c-0.1,0-0.2-0.1-0.2-0.2
		c0-0.1-2.9-7.7-6.9-17.1c-2.7-6.3-7-8.6-9.4-9.4c0,0,0,0,0,0c-0.1,0.1-0.3,0-0.4-0.1c-0.1-0.1,0-0.3,0.1-0.4
		c6.2-2.8,12.9-4.3,19.8-4.3c26.5,0,48.1,21.6,48.1,48.1c0,4.5-0.6,9-1.9,13.3c0,0.1-0.1,0.2-0.3,0.2c0,0-0.1,0-0.1,0
		c-0.1,0-0.2-0.2-0.2-0.3c1.2-4.3,1.9-8.7,1.9-13.2C119.7,46.7,98.4,25.4,72.1,25.4z"/>
	<path fill="#54C0AE" d="M42.2,110.9c0.2,0.1,0.4,0.3,0.6,0.4c0.5-0.2,1-0.3,1.5-0.6c5.3-2.9,7.5-9,9.2-14.5
		c3.8-12,5.4-24.5,5.5-37.1c-7.2-2-14.1-5.5-19.4-10.6c-2.7-2.7-5.1-6.4-4.8-10.3c0-0.3,0.1-0.7,0.1-1C26.1,46.5,20.6,59,20.6,72.8
		c0,10,2.9,19.4,7.9,27.3c0.2-3.3,1.7-6.5,4.1-9c1.2-1.2,2.5-2.3,4.2-2.5c1.7-0.2,3.5,0,5.2,0.2c1,0.1,2.2,0.2,3.2,0.6
		c1.8,0.7,1.8,3.2,2,4.9c0.3,2.2,0.5,4.4,0.6,6.6c0,0.4-9.1,0.2-9.2-0.8c0-1.1-0.1-2.1-0.2-3.1c-0.9,2.4-1.2,5.1-0.6,7.7
		C38.6,107.2,40.1,109.4,42.2,110.9z M33.5,45.3c-5.8,8.1-8.9,17.7-8.9,27.6c0,6.7,1.3,13.1,4,19.1c0.1,0.1,0,0.3-0.1,0.4
		c0,0-0.1,0-0.1,0c-0.1,0-0.2-0.1-0.3-0.2c-2.7-6.1-4.1-12.6-4.1-19.3c0-10.1,3.1-19.8,9-28c0.1-0.1,0.3-0.2,0.4-0.1
		C33.5,45,33.6,45.1,33.5,45.3z"/>
	<path fill="#54C0AE" d="M105.9,87.6c-0.1,0-0.1-0.1-0.1-0.1c0,0,0,0,0,0c0,0,0,0,0,0.1c-0.1,0.2-0.7,0.5-0.9,0.7
		c-0.4,0.5-0.6,1.1-0.5,1.8c0.2,1.5,1.5,3.2,2.9,4.3c0.3-1.8,0.5-3.7-0.2-5.2C106.8,88.6,106.4,88,105.9,87.6z"/>
	<path fill="#54C0AE" d="M48.9,49.8c2.7,2.5,6,4.6,9.5,6.2c-1.1-3-2.3-6.1-3.5-9.1c-1.5-3.6-2.9-7.3-5-10.6
		c-0.7-1.2-1.6-2.1-2.5-3.1c-2.4,1.6-3.6,4.8-3.5,7.6C44.1,44.4,46.4,47.5,48.9,49.8z"/>
	<path fill="#54C0AE" d="M91.9,105.5c-2.8-2.4-4.7-5.9-6.3-9.1c-1.6-3.3-2.9-6.7-3.7-10.3c-1.4,5-2.6,10-3.6,14.9
		c-0.4,1.6-8.8,0.3-9.1-1.5c-0.8-5.6-1.8-11.1-3-16.6c-0.4,2.1-0.8,4.2-1.3,6.2c-1,4.2-2.1,8.3-3.7,12.3c-1.4,3.7-3.4,7.2-6.7,9.5
		c-3.5,2.5-7.5,2.6-11.6,2.2c-1.1-0.1-2.1-0.2-3.2-0.4c8.8,7.1,19.9,11.3,32.1,11.3c14.5,0,27.6-6,36.9-15.7
		c-1.1,0.5-2.2,0.8-3.4,0.9C100.7,109.7,95.4,108.6,91.9,105.5z M99.5,112.5C91.4,118,82,121,72.1,121c-8,0-15.9-2-22.8-5.8
		c-0.1-0.1-0.2-0.2-0.1-0.3c0-0.1,0.1-0.2,0.3-0.2c0.1,0,10.7-0.7,14-16.1c0-0.1,0.2-0.2,0.3-0.2c0.1,0,0.2,0.2,0.2,0.3
		c-1.8,8.3-5.6,12.4-8.5,14.3c-2.1,1.4-4,2-5.1,2.2c6.7,3.5,14.2,5.3,21.8,5.3c9.7,0,19.1-2.9,27-8.4c0.1-0.1,0.3-0.1,0.4,0.1
		C99.6,112.2,99.6,112.4,99.5,112.5z"/>
</g>
<g>
	<path fill="#54C0AE" d="M27.2,117.3c-0.6,0.1-1.2,0-1.7-0.3c-0.5-0.2-0.9-0.6-1.3-1c-0.4-0.5-0.7-0.9-0.9-1.4
		c-0.2-0.5-0.2-1-0.2-1.5c0-0.5,0.2-1,0.4-1.5c0.2-0.5,0.6-0.9,1-1.3s0.9-0.7,1.4-0.9s1-0.3,1.5-0.2s1,0.2,1.5,0.4
		c0.5,0.2,0.9,0.6,1.3,1c0.4,0.4,0.6,0.8,0.8,1.3c0.2,0.5,0.2,1,0.1,1.5l-0.8-0.1c0.1-0.4,0.1-0.8,0-1.2s-0.3-0.7-0.6-1
		c-0.3-0.4-0.7-0.7-1.1-0.9c-0.4-0.2-0.8-0.3-1.2-0.3c-0.4,0-0.8,0.1-1.3,0.2c-0.4,0.2-0.8,0.4-1.2,0.7c-0.4,0.3-0.7,0.7-0.9,1.1
		c-0.2,0.4-0.3,0.8-0.4,1.2c0,0.4,0,0.8,0.1,1.3c0.1,0.4,0.4,0.8,0.7,1.2c0.1,0.1,0.3,0.3,0.5,0.4c0.2,0.1,0.4,0.2,0.6,0.3
		c0.2,0.1,0.4,0.1,0.7,0.2c0.2,0,0.5,0,0.7,0L27.2,117.3z"/>
	<path fill="#54C0AE" d="M33.7,114.3l1.6,1.3c0.1,0.1,0.2,0.2,0.3,0.3c0.1,0.1,0.3,0.3,0.4,0.4c0.1,0.2,0.3,0.3,0.4,0.5
		c0.1,0.2,0.2,0.4,0.2,0.6c0,0.2,0,0.5-0.1,0.7c-0.1,0.3-0.2,0.5-0.4,0.8c-0.2,0.3-0.5,0.5-0.8,0.6c-0.3,0.1-0.5,0.1-0.8,0.1
		c-0.2,0-0.5-0.1-0.7-0.2c-0.2-0.1-0.4-0.2-0.6-0.3l-0.7,4.4l-0.6-0.5l0.7-4.3l-1-0.9l-2.4,2.8l-0.6-0.5L33.7,114.3z M32,117.4
		l1.2,1c0.3,0.3,0.6,0.4,0.8,0.5c0.2,0.1,0.5,0.1,0.7,0.1c0.2,0,0.4-0.1,0.5-0.2c0.1-0.1,0.3-0.2,0.3-0.3c0.1-0.1,0.2-0.2,0.2-0.4
		c0.1-0.2,0.1-0.3,0.1-0.5s-0.1-0.4-0.2-0.6c-0.1-0.2-0.3-0.5-0.6-0.7l-1.2-1L32,117.4z"/>
	<path fill="#54C0AE" d="M39.3,118.8l4,2.6L43,122l-3.4-2.2l-1.5,2.3l3.2,2.1l-0.4,0.6l-3.2-2.1l-1.7,2.6l3.6,2.3l-0.4,0.6l-4.2-2.7
		L39.3,118.8z"/>
	<path fill="#54C0AE" d="M47.7,123.7l0.7,0.3l-0.4,8.5l-0.7-0.4l0.1-2.3l-3.8-1.8l-1.7,1.5l-0.7-0.3L47.7,123.7z M47.6,124.6
		l-3.5,3.1l3.3,1.5L47.6,124.6z"/>
	<path fill="#54C0AE" d="M53.8,126.9l-2.6-0.8l0.2-0.6l5.8,1.9L57,128l-2.6-0.8l-2.3,6.8l-0.7-0.2L53.8,126.9z"/>
	<path fill="#54C0AE" d="M58.9,127.7l0.7,0.2l-1.8,7.7l-0.7-0.2L58.9,127.7z"/>
	<path fill="#54C0AE" d="M61,128.2l0.8,0.1l1.6,7.2l3.5-6.5l0.8,0.1l-4,7.4l-0.7-0.1L61,128.2z"/>
	<path fill="#54C0AE" d="M69.2,129.2l4.8,0.1l0,0.7l-4.1-0.1l0,2.8l3.8,0.1l0,0.7l-3.8-0.1l0,3.1l4.3,0.1l0,0.7l-5-0.1L69.2,129.2z"
		/>
	<path fill="#54C0AE" d="M79.6,128.8l2.4-0.5c0.7-0.1,1.3-0.2,1.8-0.1c0.5,0.1,0.9,0.2,1.3,0.4c0.4,0.2,0.7,0.4,0.9,0.7
		c0.2,0.3,0.4,0.5,0.6,0.8c0.1,0.3,0.2,0.5,0.3,0.7c0.1,0.2,0.1,0.4,0.1,0.5c0,0.1,0,0.3,0.1,0.5c0,0.2,0,0.5,0,0.8
		c0,0.3-0.1,0.6-0.2,1c-0.1,0.3-0.3,0.7-0.6,1s-0.6,0.6-1,0.9s-1,0.4-1.7,0.6l-2.4,0.5L79.6,128.8z M81.7,135.7l1.5-0.3
		c0.5-0.1,1-0.3,1.4-0.5c0.4-0.2,0.8-0.5,1-0.8c0.3-0.3,0.5-0.7,0.6-1.1c0.1-0.4,0.1-0.9,0-1.5c-0.1-0.6-0.3-1-0.6-1.4
		s-0.6-0.6-1-0.8c-0.4-0.2-0.8-0.3-1.3-0.4c-0.5,0-1,0-1.5,0.1l-1.5,0.3L81.7,135.7z"/>
	<path fill="#54C0AE" d="M88.5,126.8l4.5-1.6l0.2,0.6l-3.8,1.4l0.9,2.6l3.6-1.3l0.2,0.6l-3.6,1.3l1,2.9l4-1.4l0.2,0.6l-4.7,1.7
		L88.5,126.8z"/>
	<path fill="#54C0AE" d="M98.2,129.8c0.3,0.2,0.7,0.3,1,0.3c0.3,0,0.7-0.1,1-0.3c0.2-0.1,0.4-0.2,0.6-0.4c0.2-0.2,0.3-0.3,0.4-0.5
		c0.1-0.2,0.1-0.4,0.1-0.6c0-0.2-0.1-0.4-0.2-0.6c-0.1-0.2-0.3-0.4-0.5-0.5c-0.2-0.1-0.4-0.2-0.6-0.2c-0.2,0-0.5,0-0.7,0
		c-0.3,0-0.5,0.1-0.8,0.1s-0.5,0.1-0.8,0.1c-0.3,0-0.5,0-0.8-0.1s-0.5-0.2-0.7-0.4c-0.2-0.2-0.4-0.4-0.6-0.8
		c-0.2-0.3-0.2-0.6-0.2-0.9c0-0.3,0.1-0.6,0.2-0.9c0.1-0.3,0.3-0.5,0.5-0.7c0.2-0.2,0.5-0.4,0.8-0.6c0.4-0.2,0.8-0.3,1.2-0.3
		c0.4,0,0.8,0.1,1.2,0.3l-0.4,0.7c-0.3-0.1-0.6-0.2-0.8-0.2c-0.3,0-0.6,0.1-0.9,0.2c-0.2,0.1-0.4,0.2-0.6,0.4
		c-0.2,0.2-0.3,0.3-0.4,0.5c-0.1,0.2-0.1,0.4-0.1,0.6c0,0.2,0.1,0.4,0.2,0.7c0.2,0.4,0.4,0.6,0.7,0.7c0.3,0.1,0.6,0.1,0.9,0.1
		c0.3,0,0.7-0.1,1-0.1c0.4-0.1,0.7-0.1,1-0.1c0.3,0,0.7,0.1,1,0.2c0.3,0.2,0.6,0.5,0.8,0.9c0.2,0.3,0.2,0.6,0.2,0.9
		c0,0.3-0.1,0.6-0.2,0.9c-0.1,0.3-0.3,0.5-0.5,0.7c-0.2,0.2-0.5,0.4-0.8,0.5c-0.5,0.2-0.9,0.4-1.4,0.4c-0.5,0-0.9-0.1-1.4-0.3
		L98.2,129.8z"/>
	<path fill="#54C0AE" d="M101,121.1l0.6-0.4l4.1,6.7l-0.6,0.4L101,121.1z"/>
	<path fill="#54C0AE" d="M113.6,121.1c-0.2,0.5-0.5,0.9-0.8,1.3c-0.3,0.4-0.7,0.7-1.1,1.1c-0.5,0.4-1,0.6-1.5,0.8
		c-0.5,0.1-1,0.2-1.5,0.1c-0.5-0.1-1-0.2-1.5-0.5c-0.5-0.3-0.9-0.7-1.3-1.1s-0.6-1-0.8-1.5c-0.2-0.5-0.2-1-0.1-1.5
		c0.1-0.5,0.2-1,0.5-1.5c0.3-0.5,0.6-0.9,1.1-1.3c0.9-0.7,1.9-1,2.9-0.9l-0.1,0.8c-0.2,0-0.4-0.1-0.6,0c-0.2,0-0.4,0-0.6,0.1
		c-0.2,0.1-0.4,0.1-0.6,0.2c-0.2,0.1-0.4,0.2-0.6,0.3c-0.4,0.3-0.7,0.7-0.9,1.1c-0.2,0.4-0.3,0.8-0.4,1.2c0,0.4,0,0.8,0.2,1.3
		c0.1,0.4,0.4,0.8,0.7,1.2c0.3,0.4,0.6,0.7,1,0.9c0.4,0.2,0.8,0.4,1.2,0.5c0.4,0.1,0.8,0,1.3-0.1c0.4-0.1,0.9-0.3,1.3-0.6
		c0.3-0.3,0.6-0.5,0.9-0.8c0.3-0.3,0.4-0.6,0.6-0.9l-1.6-2.1l-1.5,1.2l-0.4-0.5l2.1-1.6L113.6,121.1z"/>
	<path fill="#54C0AE" d="M111.3,113.2l0.6-0.7l8.3,1.1l0,0l-5.1-4.6l0.5-0.5l5.8,5.3l-0.6,0.7l-8.3-1.1l0,0l5.1,4.6l-0.5,0.5
		L111.3,113.2z"/>
</g>
<g>
	<path fill="#54C0AE" d="M28,25.9l0.6-0.5l6.4,3.7l-2.5-6.9l0.6-0.5l2.8,7.9L35.3,30L28,25.9z"/>
	<path fill="#54C0AE" d="M34.4,20.8l0.6-0.4l4.6,6.4l-0.6,0.4L34.4,20.8z"/>
	<path fill="#54C0AE" d="M46.2,21.2c-0.1,0.6-0.3,1.2-0.6,1.6s-0.7,0.8-1.2,1.1c-0.5,0.3-1,0.5-1.6,0.6c-0.5,0.1-1,0-1.5-0.1
		c-0.5-0.1-1-0.4-1.4-0.7c-0.4-0.3-0.8-0.8-1.1-1.3c-0.3-0.5-0.5-1-0.6-1.6c-0.1-0.5-0.1-1.1,0.1-1.5c0.1-0.5,0.4-1,0.7-1.4
		s0.8-0.8,1.3-1.1c0.5-0.3,0.9-0.4,1.4-0.5c0.5-0.1,1,0,1.5,0.2l-0.3,0.7C42.5,17,42.1,17,41.7,17c-0.4,0-0.8,0.2-1.1,0.4
		c-0.4,0.3-0.8,0.6-1.1,0.9c-0.3,0.4-0.4,0.7-0.5,1.2c-0.1,0.4-0.1,0.8,0,1.3c0.1,0.4,0.2,0.9,0.5,1.3c0.2,0.4,0.5,0.8,0.9,1.1
		c0.3,0.3,0.7,0.5,1.1,0.6c0.4,0.1,0.8,0.2,1.3,0.1c0.4-0.1,0.9-0.2,1.3-0.5c0.2-0.1,0.3-0.2,0.5-0.4c0.2-0.1,0.3-0.3,0.4-0.5
		c0.1-0.2,0.2-0.4,0.3-0.6c0.1-0.2,0.1-0.5,0.1-0.7L46.2,21.2z"/>
	<path fill="#54C0AE" d="M44.8,14.6l0.7-0.3l1.3,3.2l0.1,0l2.2-4.7l0.9-0.4l-2.3,4.9l5.5,2.3l-1,0.4L47,17.8l-0.1,0l1.6,3.7
		l-0.7,0.3L44.8,14.6z"/>
	<path fill="#54C0AE" d="M51.8,11.8l4.6-1.3l0.2,0.6l-3.9,1.1l0.8,2.7l3.7-1.1l0.2,0.6l-3.7,1.1l0.9,2.9l4.1-1.2l0.2,0.6L54,19.4
		L51.8,11.8z"/>
	<path fill="#54C0AE" d="M61.4,14.1l-3.6-3.9l0.9-0.1l3,3.3l1.8-4.1l0.8-0.1L62.1,14l0.6,3.3L62,17.4L61.4,14.1z"/>
	<path fill="#54C0AE" d="M69.2,8.6l1.1,0l2.7,6.7l3-6.5l1,0L77,16.6l-0.7,0l0.1-6.9h0l-3.1,6.9l-0.3,0l-2.9-7l0,0l-0.1,6.9l-0.7,0
		L69.2,8.6z"/>
	<path fill="#54C0AE" d="M80.1,9.2l4.8,0.8l-0.1,0.7l-4-0.7l-0.4,2.8l3.8,0.6L83.9,14l-3.8-0.6l-0.5,3l4.2,0.7l-0.1,0.7l-4.9-0.8
		L80.1,9.2z M83.1,7.5L84,7.7L82.3,9l-0.5-0.1L83.1,7.5z"/>
	<path fill="#54C0AE" d="M87.4,10.5l0.9,0.3l2.6,8l0,0l2-6.6l0.7,0.2l-2.3,7.5l-0.9-0.3l-2.6-8l0,0l-2,6.6L85.1,18L87.4,10.5z"/>
	<path fill="#54C0AE" d="M98.7,14.5l0.7,0.3l-0.3,8.5L98.3,23l0.1-2.3L94.6,19L93,20.5l-0.7-0.3L98.7,14.5z M98.7,15.4l-3.5,3.1
		l3.3,1.5L98.7,15.4z"/>
	<path fill="#54C0AE" d="M104,17.2l1.8,1.1c0.1,0.1,0.2,0.1,0.4,0.2c0.1,0.1,0.3,0.2,0.5,0.4c0.2,0.1,0.3,0.3,0.4,0.5
		c0.1,0.2,0.2,0.4,0.3,0.6c0.1,0.2,0.1,0.5,0,0.7c0,0.3-0.1,0.5-0.3,0.8c-0.2,0.3-0.4,0.6-0.7,0.7c-0.2,0.1-0.5,0.2-0.7,0.2
		c-0.2,0-0.5,0-0.7-0.1c-0.2-0.1-0.5-0.1-0.7-0.2l-0.1,4.4l-0.7-0.4l0.1-4.3l-1.2-0.7l-2,3.2l-0.6-0.4L104,17.2z M102.8,20.5
		l1.3,0.8c0.3,0.2,0.6,0.3,0.9,0.4c0.3,0,0.5,0,0.7,0c0.2,0,0.3-0.1,0.5-0.2c0.1-0.1,0.2-0.2,0.3-0.3c0.1-0.1,0.1-0.3,0.2-0.4
		c0-0.2,0-0.3,0-0.5c0-0.2-0.1-0.4-0.3-0.6c-0.2-0.2-0.4-0.4-0.7-0.6l-1.3-0.8L102.8,20.5z"/>
	<path fill="#54C0AE" d="M110.2,21.2l1.9,1.5c0.5,0.4,0.9,0.9,1.2,1.3c0.3,0.4,0.4,0.8,0.5,1.2c0.1,0.4,0.1,0.8,0,1.1
		c-0.1,0.4-0.1,0.7-0.3,1c-0.1,0.3-0.2,0.5-0.4,0.7c-0.1,0.2-0.2,0.3-0.3,0.4c-0.1,0.1-0.2,0.2-0.3,0.4c-0.2,0.2-0.4,0.3-0.6,0.5
		c-0.2,0.2-0.5,0.3-0.9,0.4c-0.3,0.1-0.7,0.2-1.1,0.2c-0.4,0-0.8-0.1-1.3-0.3c-0.5-0.2-1-0.5-1.5-0.9l-1.9-1.5L110.2,21.2z
		 M106.2,27.2l1.2,1c0.4,0.3,0.8,0.6,1.3,0.8c0.4,0.2,0.9,0.3,1.3,0.3c0.4,0,0.8-0.1,1.3-0.3c0.4-0.2,0.8-0.5,1.1-0.9
		c0.4-0.4,0.6-0.9,0.7-1.3c0.1-0.4,0.1-0.9,0-1.3c-0.1-0.4-0.3-0.8-0.5-1.2c-0.3-0.4-0.6-0.7-1-1.1l-1.2-1L106.2,27.2z"/>
</g>
<g>
	<g>
		<path fill="#54C0AE" d="M22.9,107c-0.5-0.8-1.1-1.6-1.6-2.4l0.5-0.3c0.5,0.8,1,1.6,1.5,2.3L22.9,107z"/>
	</g>
	<g>
		<path fill="#54C0AE" d="M18.5,99.5c-0.9-1.7-1.7-3.6-2.3-5.4l0.5-0.2c0.7,1.8,1.5,3.6,2.3,5.3L18.5,99.5z M14.3,88.5
			c-0.5-1.9-0.9-3.8-1.2-5.7l0.5-0.1c0.3,1.9,0.7,3.8,1.2,5.7L14.3,88.5z M12.4,77c-0.1-1.3-0.1-2.6-0.1-3.9c0-0.6,0-1.3,0-1.9
			l0.6,0c0,0.6,0,1.3,0,1.9c0,1.3,0,2.6,0.1,3.9L12.4,77z M13.4,65.3l-0.5-0.1c0.3-1.9,0.6-3.9,1-5.8l0.5,0.1
			C14,61.5,13.6,63.4,13.4,65.3z M16,54l-0.5-0.2c0.6-1.8,1.4-3.7,2.2-5.5l0.5,0.2C17.3,50.4,16.6,52.2,16,54z M20.8,43.5l-0.5-0.3
			c1-1.7,2-3.3,3.2-4.9l0.4,0.3C22.8,40.1,21.8,41.8,20.8,43.5z"/>
	</g>
	<g>
		<path fill="#54C0AE" d="M27.6,34l-0.4-0.4c0.6-0.7,1.3-1.4,1.9-2.1l0.4,0.4C28.8,32.6,28.2,33.3,27.6,34z"/>
	</g>
</g>
<g>
	<g>
		<path fill="#54C0AE" d="M115.6,33.3c-0.6-0.7-1.3-1.4-1.9-2l0.4-0.4c0.7,0.7,1.3,1.4,2,2.1L115.6,33.3z"/>
	</g>
	<g>
		<path fill="#54C0AE" d="M125,100.2l-0.5-0.3c0.9-1.8,1.7-3.6,2.5-5.4l0.5,0.2C126.7,96.6,125.9,98.5,125,100.2z M129.3,89.1
			l-0.5-0.1c0.5-1.9,1-3.9,1.3-5.8l0.5,0.1C130.3,85.2,129.9,87.1,129.3,89.1z M131.4,77.2l-0.6,0c0.1-1.4,0.1-2.8,0.1-4.1
			c0-0.6,0-1.2,0-1.8l0.6,0c0,0.6,0,1.2,0,1.8C131.5,74.4,131.5,75.8,131.4,77.2z M130.5,65.3c-0.3-2-0.6-3.9-1.1-5.9l0.5-0.1
			c0.5,1.9,0.8,3.9,1.1,5.9L130.5,65.3z M127.7,53.7c-0.6-1.9-1.4-3.7-2.2-5.5l0.5-0.2c0.8,1.8,1.6,3.7,2.3,5.6L127.7,53.7z
			 M122.7,42.9c-1-1.7-2.1-3.4-3.3-5l0.4-0.3c1.2,1.6,2.3,3.3,3.3,5L122.7,42.9z"/>
	</g>
	<g>
		<path fill="#54C0AE" d="M120.3,107.8l-0.4-0.3c0.5-0.8,1.1-1.5,1.6-2.3l0.5,0.3C121.4,106.3,120.9,107.1,120.3,107.8z"/>
	</g>
</g>
</svg>
