<?xml version="1.0" encoding="utf-8"?>
<!-- Generator: Adobe Illustrator 18.1.0, SVG Export Plug-In . SVG Version: 6.00 Build 0)  -->
<!DOCTYPE svg PUBLIC "-//W3C//DTD SVG 1.1//EN" "http://www.w3.org/Graphics/SVG/1.1/DTD/svg11.dtd">
<svg version="1.1" id="Layer_1" xmlns="http://www.w3.org/2000/svg" xmlns:xlink="http://www.w3.org/1999/xlink" x="0px" y="0px"
	 viewBox="0 0 792 238.7" enable-background="new 0 0 792 238.7" xml:space="preserve">
<g>
	<path fill="#FFFFFF" d="M154.7,44.3c-8.3-4.5-18-4.2-26.8-1.1c-9.7,3.5-15.5,10-19.3,19.5c-4.3,10.8-7.2,22.2-8.4,33.7
		c-1.1,10.3-0.8,21.3,5.1,30.3c12.5,19,38.2,11.6,55.2,3.4c9-4.3,18.3-10.3,22.5-19.9c4-9.2,3-20,1.3-29.6c-2-10.9-5.7-22-13.2-30.4
		c-8.1-9.1-18.9-11.7-30.5-9.1c-0.6,0.1-9,3.4-6.1,5.3c1.2,0.8,2.5,1.6,3.7,2.5c2.6,1.7,6.8,0.5,9.4-0.5c0.9-0.3,6.6-3.1,4.2-4.7
		c-1.2-0.8-2.5-1.6-3.7-2.5c-2,1.8-4,3.5-6.1,5.3c2.7-0.6,6.8,1.9,9,3.3c3.1,2,5.7,4.5,8,7.4c4.5,5.9,7.3,12.9,9.2,20
		c3.6,13.7,6.4,32.4-5.2,43.1c-5.5,5-12.8,8.3-19.9,10.3c-7.7,2.1-14.2,1.5-20.1-4.2c-11.5-11.3-9.4-29.9-6.5-44.2
		c1.8-8.8,4.3-17.7,8.2-25.8c3.6-7.5,8.5-11.4,16.5-7.1c2.8,1.5,6.6,0.6,9.4-0.5C151.3,48.7,157.2,45.6,154.7,44.3L154.7,44.3z"/>
</g>
<g>
	<path fill="#FFFFFF" d="M235.1,49.5c-9.4-5.9-21.3-4.4-31,0.1c-9.5,4.4-16,12.5-20.6,21.7c-5.5,11-9,23.1-10.4,35.3
		c-1.1,9.9-1.9,21.3,3.4,30.2c12.2,20.7,42.5,9.9,57.5-1.1c8.1-6,15.2-13.9,19.2-23.2c4.5-10.4,3.8-21.6,0.7-32.3
		c-3.5-12.4-8.7-25.3-15.9-36.1c-3.1-4.6-7.1-6.3-12.6-5.4c-4.9,0.8-11.3,3.2-11.6,8.8c-0.2,3.1,14.2,1.1,14.5-3.9
		c-1.1,0.4-2.2,0.8-3.2,1.2c-3.4,0.1-4.2,0.8-2.3,2.1c0.2,0.5,0.9,1.3,1.3,1.8c1.1,1.7,2.1,3.5,3.1,5.3c2,3.6,3.8,7.3,5.4,11
		c3.3,7.5,6.2,15.4,8,23.4c3.6,15.7-0.9,30.2-12.5,41.4c-5,4.8-11.8,9.9-18.7,11.3c-7.3,1.5-15.2-2.4-18.8-8.8
		c-7.3-12.9-3.5-32,0.4-45.4c3.2-11.1,13.9-42.6,30.6-32.2c2.7,1.7,6.7,0.7,9.5-0.4C231.9,54.1,237.7,51.1,235.1,49.5L235.1,49.5z"
		/>
</g>
<g>
	<path fill="#FFFFFF" d="M253.6,54.1c11.9,55.4,23.8,110.8,35.6,166.2c4.8-1.3,9.7-2.6,14.5-3.9c-12.2-37-21.2-75-26.8-113.5
		c-2.1-14.7-4.5-33.5,11.7-40.9c7-3.2,15.3-4,22.9-3c3.9,0.5,19.5,4.1,16.1,10.7c-1.4,2.7-5.6,3.8-8.3,4.6
		c-5.2,1.6-10.4,2.9-15.7,4.1c-10.8,2.4-21.8,3.6-32.9,4.1c-3.2,0.1-7.6,2.4-7.9,6c-0.3,3.7,3.8,5.2,6.8,5c12.1-0.5,24.1-2,35.9-4.6
		c10-2.1,21.8-4.2,30.1-10.6c7.4-5.6,9.8-15,2.2-21.7c-7.7-6.8-19.2-8.9-29.1-9c-19.1-0.2-41.2,7.9-46.7,28.1
		c-2.6,9.5-1.3,19.5,0.1,29.2c1.7,12,3.7,24,6.1,35.9c5.3,26.9,12.4,53.5,20.9,79.6c2.2,6.8,16,3.2,14.5-3.9
		C291.9,161,280,105.6,268.1,50.2C266.6,43.3,252.1,47,253.6,54.1L253.6,54.1z"/>
</g>
<g>
	<path fill="#FFFFFF" d="M389.9,61.3c7.2-13.3-14.5-18.5-23.4-18.8C353.7,42,338.5,52.9,348,66.1c14.3,20,40,27.4,55.7,45.9
		c1.2-2.4,2.3-4.8,3.5-7.3c-9.9,5.5-20.8,6.5-31.9,5.4c-9.3-1-21.2-2.4-26.9-10.8c-3.6-5.2-17.4,0.2-13.3,6.3
		c7.5,11,22.8,13.5,35.1,14.8c14.8,1.5,30.2-0.1,43.4-7.4c2.2-1.2,5.9-4.4,3.5-7.3c-10.9-12.9-25.9-20.8-39.4-30.6
		c-3.2-2.3-6.4-4.8-9.3-7.5c-2.9-2.7-7.3-6.4-8.5-10.3c-1.7-5.2,3.5-4.8,6.8-4.1c2.4,0.5,11.7,2.2,9.4,6.5c-1.7,3.2,1.5,5.5,4.4,5.9
		C383.9,66.1,388.2,64.4,389.9,61.3L389.9,61.3z"/>
</g>
<g>
	<path fill="#FFFFFF" d="M408.6,50.7c1,14.1,2,28.3,4.1,42.3c1,6.8,2.4,13.6,4.1,20.3c1.5,5.8,2.3,12.2,8.5,14.4
		c3.9,1.4,10.4-0.9,11.6-5.1c1.6-5.4,2.9-10.9,3.7-16.5c1-6.4-13.7-4.2-14.6,1.5c-0.9,5.6-2.1,11.1-3.7,16.5
		c3.9-1.7,7.7-3.4,11.6-5.1c-0.2-0.1-1.6-5.7-1.9-6.8c-0.8-3-1.6-6.1-2.2-9.1c-1.3-6.1-2.4-12.3-3.2-18.5c-1.7-12.5-2.6-25-3.4-37.6
		C422.7,41.3,408.2,44.5,408.6,50.7L408.6,50.7z"/>
</g>
<g>
	<path fill="#FFFFFF" d="M419.5,29.9c3,0,7.9-1,9.6-3.8c1.7-2.8-1.5-3.9-3.8-3.9c-3,0-7.9,1-9.6,3.8C414,28.9,417.2,29.9,419.5,29.9
		L419.5,29.9z"/>
</g>
<g>
	<path fill="#FFFFFF" d="M453.4,68.1c6.5,4.9,17.1,2.1,23.6-1.4c6.3-3.3,12.2-10.5,13.7-17.6c1.9-9.1-8.3-10.1-14.9-10.4
		c-9-0.4-18.6,1.6-26.5,6c-14.3,8-18.5,26.2-16.6,41.4c1.9,15.2,10.2,29.8,22.6,38.7c8.6,6.2,18.4,6.4,27.8,1.4
		c9.6-5.1,10.6-15.1,14.6-24.2c1-2.2-4.9-1.2-5.7-1c-2.1,0.4-7.5,1.4-8.5,3.7c-1.6,3.7-2.6,7.6-4,11.4c-0.5,1.4-3.9,9.8-6,9.3
		c0.8-0.5,1.5-1,2.3-1.5c-1-0.4-2-0.9-3-1.4c-1.3-0.7-2.6-1.6-3.8-2.5c-2.7-1.9-5.2-4.1-7.4-6.6c-8.7-9.4-13.9-22.1-14.7-34.8
		c-0.4-6.8,0.4-13.7,2.8-20.1c2-5.4,5.9-12.9,12-14.4c6.5-1.6,17,0.9,14.3,9.2c-1,3.1-3,6.4-5,8.9c-0.4,0.5-3.7,3.4-3.7,3.7
		c4.4-0.5,5.1-0.9,2.1-1.3c-0.8-0.3-1.5-0.8-2.2-1.4c-2.1-1.6-7.2,0.3-9.3,1C456.9,64.6,451.5,66.6,453.4,68.1L453.4,68.1z"/>
</g>
<g>
	<path fill="#FFFFFF" d="M551.5,60.7c5.6-18.4-24.2-26.8-37.4-27.2c-7.9-0.3-19.3,1.9-20,11.8c-0.5,7.4,6.3,14.4,11.2,19.1
		c12,11.6,27.3,18.7,42.3,25.4c7.3,3.3,15.2,6.2,21.9,10.5c2.6,1.7,6.1,4.2,6,7.7c-0.1,3.6-3.8,5.3-6.7,6.5
		c-9.7,3.9-21.1,6.2-31.6,6.4c-11.2,0.2-17.8-6.3-24.6-14.4c-4.2-5-18,0.7-13.3,6.4c5.2,6.2,10.8,12.5,18.4,15.8
		c8.3,3.6,17.8,3.3,26.6,2.1c9.5-1.3,19-3.4,28-6.7c7.2-2.6,15.7-7.1,17.4-15.3c3.4-15.7-20.5-22.9-31.2-27.6
		c-14.2-6.4-29.3-12.7-40.7-23.8c-3-2.9-6.3-6.4-8.2-10.1c-0.4-0.8-0.6-1.8-0.9-2.6c-0.2-0.5-0.2-1.1,0-1.6
		c-0.5,0.4-1.1,0.7-1.6,1.1c2,0,4-0.1,6,0.1c5.1,0.6,10,2,14.5,4.3c3,1.5,11.2,5.9,9.8,10.4C535.3,67.1,549.7,66.9,551.5,60.7
		L551.5,60.7z"/>
</g>
<g>
	<path fill="#FFFFFF" d="M629.9,102.9c-8.8,0.5-17.8,6.2-19.8,15.2c-1.9,8.7,4.5,17,12.8,19c8.4,2,18.5-1.5,23.1-8.9
		c6.7-10.7-8.2-15.4-14.9-7.8c-2.3,2.6-1.2,5.7,1.9,6.9c3.3,1.3,8-0.1,10.2-2.7c0.2-0.2,0.4-0.4,0.6-0.7c-1.6,0.9-3.2,1.9-4.7,2.8
		c0.3-0.1,0.6-0.1,0.9-0.2c-1.8,0-3.7,0-5.5-0.1c0.3,0.1,0.6,0.2,0.9,0.3c-0.8-0.6-1.6-1.1-2.4-1.7c0.6,0.6-2,1.9-2.5,2
		c-2,0.2-3.8-1.9-4.7-3.4c-1.9-3.1-2-10,2.8-10.3c3.1-0.2,7.6-2.3,8-5.8C637,103.9,632.7,102.7,629.9,102.9L629.9,102.9z"/>
</g>
<g>
	<path fill="#FFFFFF" d="M680,106.3c-12.5-0.4-31,2.8-31.7,18.4c-0.3,6.1,2.1,13.4,7.1,17.3c5.5,4.4,13.6,3.1,19.8,0.9
		c6.6-2.4,11.9-6.7,14-13.6c1.8-5.7,1.2-12.1-6-12.2c-3.7-0.1-16.6,2.3-14.2,8.4c2.5,6.3,15,1.2,18.7-0.4c1.9-0.8,4.3-2.5,1.7-3.9
		c-2.5-1.4-7.9,0.8-10.1,1.8c1.5-0.4,3-0.8,4.4-1.1c-7.3-1.4-10.2-0.5-8.7,2.7c0.1,0.9,0.5,1.8,0.5,2.7c0,2.5-0.8,5.2-1.9,7.4
		c-0.6,1.2-1.4,2.8-2.5,3.7c-0.7,0.6-0.7,0.7,0,0.4c1.1-0.3,0.7-0.6-1.1-1c-1.9-1.5-3.4-2.9-4.6-5.1c-2.1-3.9-3.2-8.6-2.6-13
		c0.3-2.6,1.3-4.5,2.8-6.6c0.4-0.5,1.9-1.1,0.6-0.7c1.2-0.3,3.1-0.1,4.3-0.1c3.4,0.1,7.5-0.8,10.2-2.7
		C683,108.1,683.1,106.4,680,106.3L680,106.3z"/>
</g>
<g>
	<path fill="#FFFFFF" d="M713.1,106.7c-9.5-2-22.2,4.1-22,15c0.1,5.2,2.9,9.9,6.1,13.8c3.6,4.4,7.8,6.2,13.5,5.1
		c8.4-1.6,20.1-12.8,14.9-22.2c-4.8-8.6-23.8-4.1-22,6.3c0.9,5.1,15.4,1.6,14.5-3.9c-0.4,0.1-0.9,0.3-1.3,0.4
		c-1.9,0.4-3.8,0.7-5.7,1.1c2.6,0-0.2,7.6-0.8,8.5c-0.9,1.6-3.7,3.1,0.2,1.8c3.3-1.1,1.2-1.5-0.4-3.5c-1.9-2.4-3.6-5.1-4.2-8.2
		c-0.3-1.5-0.4-3.2,0.2-4.7c0.2-0.4,0.5-0.9,0.7-1.3c1.6-1.6,0.8-1.7-2.4-0.1c3.3,0.7,7.8-0.3,10.2-2.7
		C716.7,109.9,716.3,107.4,713.1,106.7L713.1,106.7z"/>
</g>
<g>
	<g>
		<path d="M144.2-319.9c-8.3-4.5-18-4.2-26.8-1.1c-9.7,3.5-15.5,10-19.3,19.5c-4.3,10.8-7.2,22.2-8.4,33.7
			c-1.1,10.3-0.8,21.3,5.1,30.3c12.5,19,38.2,11.6,55.2,3.4c9-4.3,18.3-10.3,22.5-19.9c4-9.2,3-20,1.3-29.6
			c-2-10.9-5.7-22-13.2-30.4c-8.1-9.1-18.9-11.7-30.5-9.1c-0.6,0.1-9,3.4-6.1,5.3c1.2,0.8,2.5,1.6,3.7,2.5c2.6,1.7,6.8,0.5,9.4-0.5
			c0.9-0.3,6.6-3.1,4.2-4.7c-1.2-0.8-2.5-1.6-3.7-2.5c-2,1.8-4,3.5-6.1,5.3c2.7-0.6,6.8,1.9,9,3.3c3.1,2,5.7,4.5,8,7.4
			c4.5,5.9,7.3,12.9,9.2,20c3.6,13.7,6.4,32.4-5.2,43.1c-5.5,5-12.8,8.3-19.9,10.3c-7.7,2.1-14.2,1.5-20.1-4.2
			c-11.5-11.3-9.4-29.9-6.5-44.2c1.8-8.8,4.3-17.7,8.2-25.8c3.6-7.5,8.5-11.4,16.5-7.1c2.8,1.5,6.6,0.6,9.4-0.5
			C140.7-315.5,146.7-318.5,144.2-319.9L144.2-319.9z"/>
	</g>
</g>
<g>
	<g>
		<path d="M224.6-314.6c-9.4-5.9-21.3-4.4-31,0.1c-9.5,4.4-16,12.5-20.6,21.7c-5.5,11-9,23.1-10.4,35.3c-1.1,9.9-1.9,21.3,3.4,30.2
			c12.2,20.7,42.5,9.9,57.5-1.1c8.1-6,15.2-13.9,19.2-23.2c4.5-10.4,3.8-21.6,0.7-32.3c-3.5-12.4-8.7-25.3-15.9-36.1
			c-3.1-4.6-7.1-6.3-12.6-5.4c-4.9,0.8-11.3,3.2-11.6,8.8c-0.2,3.1,14.2,1.1,14.5-3.9c-1.1,0.4-2.2,0.8-3.2,1.2
			c-3.4,0.1-4.2,0.8-2.3,2.1c0.2,0.5,0.9,1.3,1.3,1.8c1.1,1.7,2.1,3.5,3.1,5.3c2,3.6,3.8,7.3,5.4,11c3.3,7.5,6.2,15.4,8,23.4
			c3.6,15.7-0.9,30.2-12.5,41.4c-5,4.8-11.8,9.9-18.7,11.3c-7.3,1.5-15.2-2.4-18.8-8.8c-7.3-12.9-3.5-32,0.4-45.4
			c3.2-11.1,13.9-42.6,30.6-32.2c2.7,1.7,6.7,0.7,9.5-0.4C221.4-310.1,227.1-313,224.6-314.6L224.6-314.6z"/>
	</g>
</g>
<g>
	<g>
		<path d="M243.1-310c11.9,55.4,23.8,110.8,35.6,166.2c4.8-1.3,9.7-2.6,14.5-3.9c-12.2-37-21.2-75-26.8-113.5
			c-2.1-14.7-4.5-33.5,11.7-40.9c7-3.2,15.3-4,22.9-3c3.9,0.5,19.5,4.1,16.1,10.7c-1.4,2.7-5.6,3.8-8.3,4.6
			c-5.2,1.6-10.4,2.9-15.7,4.1c-10.8,2.4-21.8,3.6-32.9,4.1c-3.2,0.1-7.6,2.4-7.9,6c-0.3,3.7,3.8,5.2,6.8,5
			c12.1-0.5,24.1-2,35.9-4.6c10-2.1,21.8-4.2,30.1-10.6c7.4-5.6,9.8-15,2.2-21.7c-7.7-6.8-19.2-8.9-29.1-9
			c-19.1-0.2-41.2,7.9-46.7,28.1c-2.6,9.5-1.3,19.5,0.1,29.2c1.7,12,3.7,24,6.1,35.9c5.3,26.9,12.4,53.5,20.9,79.6
			c2.2,6.8,16,3.2,14.5-3.9c-11.9-55.4-23.8-110.8-35.6-166.2C256.1-320.9,241.6-317.1,243.1-310L243.1-310z"/>
	</g>
</g>
<g>
	<g>
		<path d="M379.3-302.9c7.2-13.3-14.5-18.5-23.4-18.8c-12.7-0.4-27.9,10.5-18.4,23.7c14.3,20,40,27.4,55.7,45.9
			c1.2-2.4,2.3-4.8,3.5-7.3c-9.9,5.5-20.8,6.5-31.9,5.4c-9.3-1-21.2-2.4-26.9-10.8c-3.6-5.2-17.4,0.2-13.3,6.3
			c7.5,11,22.8,13.5,35.1,14.8c14.8,1.5,30.2-0.1,43.4-7.4c2.2-1.2,5.9-4.4,3.5-7.3c-10.9-12.9-25.9-20.8-39.4-30.6
			c-3.2-2.3-6.4-4.8-9.3-7.5c-2.9-2.7-7.3-6.4-8.5-10.3c-1.7-5.2,3.5-4.8,6.8-4.1c2.4,0.5,11.7,2.2,9.4,6.5
			c-1.7,3.2,1.5,5.5,4.4,5.9C373.3-298.1,377.6-299.8,379.3-302.9L379.3-302.9z"/>
	</g>
</g>
<g>
	<g>
		<path d="M398.1-313.5c1,14.1,2,28.3,4.1,42.3c1,6.8,2.4,13.6,4.1,20.3c1.5,5.8,2.3,12.2,8.5,14.4c3.9,1.4,10.4-0.9,11.6-5.1
			c1.6-5.4,2.9-10.9,3.7-16.5c1-6.4-13.7-4.2-14.6,1.5c-0.9,5.6-2.1,11.1-3.7,16.5c3.9-1.7,7.7-3.4,11.6-5.1
			c-0.2-0.1-1.6-5.7-1.9-6.8c-0.8-3-1.6-6.1-2.2-9.1c-1.3-6.1-2.4-12.3-3.2-18.5c-1.7-12.5-2.6-25-3.4-37.6
			C412.2-322.9,397.7-319.7,398.1-313.5L398.1-313.5z"/>
	</g>
</g>
<g>
	<g>
		<path d="M409-334.2c3,0,7.9-1,9.6-3.8c1.7-2.8-1.5-3.9-3.8-3.9c-3,0-7.9,1-9.6,3.8C403.4-335.3,406.7-334.2,409-334.2L409-334.2z"
			/>
	</g>
</g>
<g>
	<g>
		<path d="M442.8-296.1c6.5,4.9,17.1,2.1,23.6-1.4c6.3-3.3,12.2-10.5,13.7-17.6c1.9-9.1-8.3-10.1-14.9-10.4c-9-0.4-18.6,1.6-26.5,6
			c-14.3,8-18.5,26.2-16.6,41.4c1.9,15.2,10.2,29.8,22.6,38.7c8.6,6.2,18.4,6.4,27.8,1.4c9.6-5.1,10.6-15.1,14.6-24.2
			c1-2.2-4.9-1.2-5.7-1c-2.1,0.4-7.5,1.4-8.5,3.7c-1.6,3.7-2.6,7.6-4,11.4c-0.5,1.4-3.9,9.8-6,9.3c0.8-0.5,1.5-1,2.3-1.5
			c-1-0.4-2-0.9-3-1.4c-1.3-0.7-2.6-1.6-3.8-2.5c-2.7-1.9-5.2-4.1-7.4-6.6c-8.7-9.4-13.9-22.1-14.7-34.8c-0.4-6.8,0.4-13.7,2.8-20.1
			c2-5.4,5.9-12.9,12-14.4c6.5-1.6,17,0.9,14.3,9.2c-1,3.1-3,6.4-5,8.9c-0.4,0.5-3.7,3.4-3.7,3.7c4.4-0.5,5.1-0.9,2.1-1.3
			c-0.8-0.3-1.5-0.8-2.2-1.4c-2.1-1.6-7.2,0.3-9.3,1C446.4-299.6,441-297.5,442.8-296.1L442.8-296.1z"/>
	</g>
</g>
<g>
	<g>
		<path d="M541-303.4c5.6-18.4-24.2-26.8-37.4-27.2c-7.9-0.3-19.3,1.9-20,11.8c-0.5,7.4,6.3,14.4,11.2,19.1
			c12,11.6,27.3,18.7,42.3,25.4c7.3,3.3,15.2,6.2,21.9,10.5c2.6,1.7,6.1,4.2,6,7.7c-0.1,3.6-3.8,5.3-6.7,6.5
			c-9.7,3.9-21.1,6.2-31.6,6.4c-11.2,0.2-17.8-6.3-24.6-14.4c-4.2-5-18,0.7-13.3,6.4c5.2,6.2,10.8,12.5,18.4,15.8
			c8.3,3.6,17.8,3.3,26.6,2.1c9.5-1.3,19-3.4,28-6.7c7.2-2.6,15.7-7.1,17.4-15.3c3.4-15.7-20.5-22.9-31.2-27.6
			c-14.2-6.4-29.3-12.7-40.7-23.8c-3-2.9-6.3-6.4-8.2-10.1c-0.4-0.8-0.6-1.8-0.9-2.6c-0.2-0.5-0.2-1.1,0-1.6
			c-0.5,0.4-1.1,0.7-1.6,1.1c2,0,4-0.1,6,0.1c5.1,0.6,10,2,14.5,4.3c3,1.5,11.2,5.9,9.8,10.4C524.7-297.1,539.1-297.3,541-303.4
			L541-303.4z"/>
	</g>
</g>
<g>
	<g>
		<path d="M619.4-261.3c-8.8,0.5-17.8,6.2-19.8,15.2c-1.9,8.7,4.5,17,12.8,19c8.4,2,18.5-1.5,23.1-8.9c6.7-10.7-8.2-15.4-14.9-7.8
			c-2.3,2.6-1.2,5.7,1.9,6.9c3.3,1.3,8-0.1,10.2-2.7c0.2-0.2,0.4-0.4,0.6-0.7c-1.6,0.9-3.2,1.9-4.7,2.8c0.3-0.1,0.6-0.1,0.9-0.2
			c-1.8,0-3.7,0-5.5-0.1c0.3,0.1,0.6,0.2,0.9,0.3c-0.8-0.6-1.6-1.1-2.4-1.7c0.6,0.6-2,1.9-2.5,2c-2,0.2-3.8-1.9-4.7-3.4
			c-1.9-3.1-2-10,2.8-10.3c3.1-0.2,7.6-2.3,8-5.8C626.5-260.2,622.2-261.4,619.4-261.3L619.4-261.3z"/>
	</g>
</g>
<g>
	<g>
		<path d="M669.5-257.9c-12.5-0.4-31,2.8-31.7,18.4c-0.3,6.1,2.1,13.4,7.1,17.3c5.5,4.4,13.6,3.1,19.8,0.9c6.6-2.4,11.9-6.7,14-13.6
			c1.8-5.7,1.2-12.1-6-12.2c-3.7-0.1-16.6,2.3-14.2,8.4c2.5,6.3,15,1.2,18.7-0.4c1.9-0.8,4.3-2.5,1.7-3.9c-2.5-1.4-7.9,0.8-10.1,1.8
			c1.5-0.4,3-0.8,4.4-1.1c-7.3-1.4-10.2-0.5-8.7,2.7c0.1,0.9,0.5,1.8,0.5,2.7c0,2.5-0.8,5.2-1.9,7.4c-0.6,1.2-1.4,2.8-2.5,3.7
			c-0.7,0.6-0.7,0.7,0,0.4c1.1-0.3,0.7-0.6-1.1-1c-1.9-1.5-3.4-2.9-4.6-5.1c-2.1-3.9-3.2-8.6-2.6-13c0.3-2.6,1.3-4.5,2.8-6.6
			c0.4-0.5,1.9-1.1,0.6-0.7c1.2-0.3,3.1-0.1,4.3-0.1c3.4,0.1,7.5-0.8,10.2-2.7C672.5-256.1,672.5-257.8,669.5-257.9L669.5-257.9z"/>
	</g>
</g>
<g>
	<g>
		<path d="M702.6-257.5c-9.5-2-22.2,4.1-22,15c0.1,5.2,2.9,9.9,6.1,13.8c3.6,4.4,7.8,6.2,13.5,5.1c8.4-1.6,20.1-12.8,14.9-22.2
			c-4.8-8.6-23.8-4.1-22,6.3c0.9,5.1,15.4,1.6,14.5-3.9c-0.4,0.1-0.9,0.3-1.3,0.4c-1.9,0.4-3.8,0.7-5.7,1.1c2.6,0-0.2,7.6-0.8,8.5
			c-0.9,1.6-3.7,3.1,0.2,1.8c3.3-1.1,1.2-1.5-0.4-3.5c-1.9-2.4-3.6-5.1-4.2-8.2c-0.3-1.5-0.4-3.2,0.2-4.7c0.2-0.4,0.5-0.9,0.7-1.3
			c1.6-1.6,0.8-1.7-2.4-0.1c3.3,0.7,7.8-0.3,10.2-2.7C706.2-254.3,705.8-256.8,702.6-257.5L702.6-257.5z"/>
	</g>
</g>
</svg>
