<?xml version="1.0" encoding="utf-8"?>
<!-- Generator: Adobe Illustrator 18.1.0, SVG Export Plug-In . SVG Version: 6.00 Build 0)  -->
<!DOCTYPE svg PUBLIC "-//W3C//DTD SVG 1.1//EN" "http://www.w3.org/Graphics/SVG/1.1/DTD/svg11.dtd">
<svg version="1.1" id="Layer_1" xmlns="http://www.w3.org/2000/svg" xmlns:xlink="http://www.w3.org/1999/xlink" x="0px" y="0px"
	 viewBox="60.2 0 479.8 480" enable-background="new 60.2 0 479.8 480" xml:space="preserve">
<g>
	<path fill="#FFFFFF" d="M300,463.4C176.9,463.4,76.6,363.2,76.6,240S176.9,16.6,300,16.6S523.4,116.9,523.4,240
		S423.1,463.4,300,463.4z"/>
	<path fill="#3DBB98" d="M300,19c121.7,0,221,99.3,221,221s-99.3,221-221,221S79,361.7,79,240S178.3,19,300,19 M300,14.3
		C175.6,14.3,74.3,115.6,74.3,240S175.6,465.7,300,465.7S525.7,364.4,525.7,240S424.4,14.3,300,14.3L300,14.3z"/>
	<path fill="#59DFB4" d="M300,14.3c124.4,0,225.7,101.3,225.7,225.7S424.4,465.7,300,465.7S74.3,364.4,74.3,240S175.6,14.3,300,14.3
		 M300,0C167.8,0,60,108,60,240s107.8,240,240,240s240-107.8,240-240S432.2,0,300,0L300,0z"/>
</g>
<g>
	<path fill="#59DFB4" d="M440.2,175.8v26.6h-70.3c-10.9-10-26.2-15.7-41.8-15.7c-15.7,0-30.4,6.1-41.8,15.7H159.9v-26.6
		c0-12.8,10-23.3,23.3-23.3h233.9C429.9,152.5,440.2,163,440.2,175.8z"/>
	<path fill="#3DBB98" d="M440.2,210v111.6c0,12.8-10,23.3-23.3,23.3H183.1c-12.8,0-23.3-10-23.3-23.3V210h118.8
		c-8.5,10.4-13.3,24.2-13.3,38.5c0,34.7,28.6,62.7,62.8,62.7s62.8-28.6,62.8-62.7c0-14.3-5.3-28.1-13.3-38.5H440.2z"/>
	<g>
		<path fill="#3DBB98" d="M375.2,248.5c0,26.2-21,47-47,47s-47-21-47-47c0-16.1,8.5-30.4,20.4-38.5c7.6-5.3,16.1-8.1,26.2-8.1
			s18.6,2.9,26.2,8.1C366.6,218.6,375.2,232.9,375.2,248.5z"/>
	</g>
	<path fill="#3DBB98" d="M345.6,116.9h-62.8c-6.1,0-10.9,4.3-12.4,10l-5.6,25.7h99.3l-5.8-25.7C357.5,121.2,351.8,116.9,345.6,116.9
		z"/>
	<polygon fill="#3DBB98" points="213.5,140.2 187.4,140.2 183.2,152.5 217.8,152.5 	"/>
</g>
</svg>
