<?xml version="1.0" encoding="utf-8"?>
<!-- Generator: Adobe Illustrator 18.1.0, SVG Export Plug-In . SVG Version: 6.00 Build 0)  -->
<!DOCTYPE svg PUBLIC "-//W3C//DTD SVG 1.1//EN" "http://www.w3.org/Graphics/SVG/1.1/DTD/svg11.dtd">
<svg version="1.1" id="Layer_1" xmlns="http://www.w3.org/2000/svg" xmlns:xlink="http://www.w3.org/1999/xlink" x="0px" y="0px"
	 viewBox="0 0 1024 768" enable-background="new 0 0 1024 768" xml:space="preserve">
<g>
	<path fill="#FFFFFF" d="M512,634.7c-138.1,0-250.7-112.5-250.7-250.7S373.9,133.3,512,133.3S762.7,245.9,762.7,384
		S650.1,634.7,512,634.7z"/>
	<path fill="#51BFAE" d="M512,136c136.5,0,248,111.5,248,248S648.5,632,512,632S264,520.5,264,384S375.5,136,512,136 M512,130.7
		c-139.7,0-253.3,113.6-253.3,253.3S372.3,637.3,512,637.3S765.3,523.7,765.3,384S651.7,130.7,512,130.7L512,130.7z"/>
	<path fill="#FFFFFF" d="M512,130.7c139.7,0,253.3,113.6,253.3,253.3S651.7,637.3,512,637.3S258.7,523.7,258.7,384
		S372.3,130.7,512,130.7 M512,114.7c-148.3,0-269.3,121.1-269.3,269.3S363.7,653.3,512,653.3S781.3,532.3,781.3,384
		S660.3,114.7,512,114.7L512,114.7z"/>
</g>
<g>
	<path fill="#85CEC1" d="M662.9,312v29.9H584c-12.3-11.2-29.3-17.6-46.9-17.6c-17.6,0-34.1,6.9-46.9,17.6H348.3V312
		c0-14.4,11.2-26.1,26.1-26.1h262.4C651.2,285.9,662.9,297.6,662.9,312z"/>
	<path fill="#54C0AE" d="M662.9,350.4v125.3c0,14.4-11.2,26.1-26.1,26.1H374.4c-14.4,0-26.1-11.2-26.1-26.1V350.4h133.3
		c-9.6,11.7-14.9,27.2-14.9,43.2c0,38.9,32,70.4,70.4,70.4c38.4,0,70.4-32,70.4-70.4c0-16-5.9-31.5-14.9-43.2H662.9z"/>
	<g>
		<path fill="#54C0AE" d="M589.9,393.6c0,29.3-23.5,52.8-52.8,52.8c-29.3,0-52.8-23.5-52.8-52.8c0-18.1,9.6-34.1,22.9-43.2
			c8.5-5.9,18.1-9.1,29.3-9.1c11.2,0,20.8,3.2,29.3,9.1C580.3,360,589.9,376,589.9,393.6z"/>
	</g>
	<path fill="#54C0AE" d="M556.8,245.9h-70.4c-6.9,0-12.3,4.8-13.9,11.2l-6.4,28.8h111.5l-6.4-28.8
		C570.1,250.7,563.7,245.9,556.8,245.9z"/>
	<polygon fill="#54C0AE" points="408.5,272 379.2,272 374.4,285.9 413.3,285.9 	"/>
</g>
</svg>
