<?xml version="1.0" encoding="utf-8"?>
<!-- Generator: Adobe Illustrator 18.1.1, SVG Export Plug-In . SVG Version: 6.00 Build 0)  -->
<!DOCTYPE svg PUBLIC "-//W3C//DTD SVG 1.1//EN" "http://www.w3.org/Graphics/SVG/1.1/DTD/svg11.dtd">
<svg version="1.1" id="Layer_1" xmlns="http://www.w3.org/2000/svg" xmlns:xlink="http://www.w3.org/1999/xlink" x="0px" y="0px"
	 viewBox="360 0 144 144" enable-background="new 360 0 144 144" xml:space="preserve">
<g>
	<path fill="#59DFB4" d="M502.1,42.9v13.5h-35.6c-5.5-5.1-13.3-8-21.2-8c-8,0-15.4,3.1-21.2,8h-64.1V42.9c0-6.5,5.1-11.8,11.8-11.8
		h118.5C496.9,31.1,502.1,36.4,502.1,42.9z"/>
	<path fill="#3DBB98" d="M502.1,60.2v56.6c0,6.5-5.1,11.8-11.8,11.8H371.8c-6.5,0-11.8-5.1-11.8-11.8V60.2h60.2
		c-4.3,5.3-6.7,12.3-6.7,19.5c0,17.6,14.5,31.8,31.8,31.8c17.3,0,31.8-14.5,31.8-31.8c0-7.2-2.7-14.2-6.7-19.5
		C470.4,60.2,502.1,60.2,502.1,60.2z"/>
	<g>
		<path fill="#3DBB98" d="M469.2,79.7c0,13.3-10.6,23.8-23.8,23.8c-13.2,0-23.8-10.6-23.8-23.8c0-8.2,4.3-15.4,10.3-19.5
			c3.9-2.7,8.2-4.1,13.3-4.1c5.1,0,9.4,1.5,13.3,4.1C464.8,64.6,469.2,71.8,469.2,79.7z"/>
	</g>
	<path fill="#3DBB98" d="M454.2,13h-31.8c-3.1,0-5.5,2.2-6.3,5.1l-2.8,13h50.3l-2.9-13C460.2,15.2,457.3,13,454.2,13z"/>
	<polygon fill="#3DBB98" points="387.2,24.8 374,24.8 371.9,31.1 389.4,31.1 	"/>
</g>
</svg>
