<?xml version="1.0" encoding="utf-8"?>
<!-- Generator: Adobe Illustrator 18.1.0, SVG Export Plug-In . SVG Version: 6.00 Build 0)  -->
<!DOCTYPE svg PUBLIC "-//W3C//DTD SVG 1.1//EN" "http://www.w3.org/Graphics/SVG/1.1/DTD/svg11.dtd">
<svg version="1.1" id="Layer_1" xmlns="http://www.w3.org/2000/svg" xmlns:xlink="http://www.w3.org/1999/xlink" x="0px" y="0px"
	 viewBox="187.9 97.7 416.4 416.6" enable-background="new 187.9 97.7 416.4 416.6" xml:space="preserve">
<g>
	<path fill="#FFFFFF" d="M396,499.9c-106.8,0-193.9-87-193.9-193.9S289.2,112.1,396,112.1S589.9,199.2,589.9,306
		S502.8,499.9,396,499.9z"/>
	<path fill="#57364C" d="M396,114.2c105.6,0,191.8,86.2,191.8,191.8S501.6,497.8,396,497.8S204.2,411.6,204.2,306
		S290.4,114.2,396,114.2 M396,110.1c-108,0-195.9,87.9-195.9,195.9S288,501.9,396,501.9S591.9,414,591.9,306S504,110.1,396,110.1
		L396,110.1z"/>
	<path fill="#FFFFFF" d="M396,110.1c108,0,195.9,87.9,195.9,195.9S504,501.9,396,501.9S200.1,414,200.1,306S288,110.1,396,110.1
		 M396,97.7c-114.7,0-208.3,93.7-208.3,208.3S281.3,514.3,396,514.3S604.3,420.7,604.3,306S510.7,97.7,396,97.7L396,97.7z"/>
</g>
<g>
	<path fill="#805470" d="M512.7,250.3v23.1h-61c-9.5-8.7-22.7-13.6-36.3-13.6c-13.6,0-26.4,5.3-36.3,13.6H269.4v-23.1
		c0-11.1,8.7-20.2,20.2-20.2h203C503.7,230.1,512.7,239.2,512.7,250.3z"/>
	<path fill="#57364C" d="M512.7,280v96.9c0,11.1-8.7,20.2-20.2,20.2h-203c-11.1,0-20.2-8.7-20.2-20.2V280h103.1
		c-7.4,9-11.5,21-11.5,33.4c0,30.1,24.8,54.4,54.5,54.4s54.5-24.8,54.5-54.4c0-12.4-4.6-24.4-11.5-33.4H512.7z"/>
	<g>
		<path fill="#57364C" d="M456.3,313.4c0,22.7-18.2,40.8-40.8,40.8s-40.8-18.2-40.8-40.8c0-14,7.4-26.4,17.7-33.4
			c6.6-4.6,14-7,22.7-7c8.7,0,16.1,2.5,22.7,7C448.8,287.4,456.3,299.8,456.3,313.4z"/>
	</g>
	<path fill="#57364C" d="M430.6,199.2h-54.5c-5.3,0-9.5,3.7-10.8,8.7l-4.9,22.3h86.2l-5-22.3C440.9,202.9,436,199.2,430.6,199.2z"/>
	<polygon fill="#57364C" points="315.9,219.4 293.3,219.4 289.6,230.1 319.7,230.1 	"/>
</g>
</svg>
