<?xml version="1.0" encoding="utf-8"?>
<!-- Generator: Adobe Illustrator 18.1.0, SVG Export Plug-In . SVG Version: 6.00 Build 0)  -->
<!DOCTYPE svg PUBLIC "-//W3C//DTD SVG 1.1//EN" "http://www.w3.org/Graphics/SVG/1.1/DTD/svg11.dtd">
<svg version="1.1" id="Layer_1" xmlns="http://www.w3.org/2000/svg" xmlns:xlink="http://www.w3.org/1999/xlink" x="0px" y="0px"
	 viewBox="0 0 1024 768" enable-background="new 0 0 1024 768" xml:space="preserve">
<g>
	<path fill="#FFFFFF" d="M512,634.7c-138.1,0-250.7-112.5-250.7-250.7S373.9,133.3,512,133.3S762.7,245.9,762.7,384
		S650.1,634.7,512,634.7z"/>
	<path fill="#51BFAE" d="M512,136c136.5,0,248,111.5,248,248S648.5,632,512,632S264,520.5,264,384S375.5,136,512,136 M512,130.7
		c-139.7,0-253.3,113.6-253.3,253.3S372.3,637.3,512,637.3S765.3,523.7,765.3,384S651.7,130.7,512,130.7L512,130.7z"/>
	<path fill="#FFFFFF" d="M512,130.7c139.7,0,253.3,113.6,253.3,253.3S651.7,637.3,512,637.3S258.7,523.7,258.7,384
		S372.3,130.7,512,130.7 M512,114.7c-148.3,0-269.3,121.1-269.3,269.3S363.7,653.3,512,653.3S781.3,532.3,781.3,384
		S660.3,114.7,512,114.7L512,114.7z"/>
</g>
<path id="Path" fill="#51BFAE" d="M434.1,243.2c-40,16-66.7,45.9-74.1,86.9c-4.8,25.1-2.7,52.3,8,75.7c2.7,5.3,5.3,10.1,9.1,14.9
	c1.6,2.1,3.7,4.3,5.3,6.4c3.7-1.1,6.9-2.7,10.1-4.8c13.3-7.5,23.5-19.2,34.7-29.3c-38.4-44.8,2.1-99.7,53.3-112
	c47.5-11.2,112,8.5,126.4,57.1c5.9,20.3,2.1,42.7-14.4,57.1c-8.5,7.5-19.7,12.8-30.9,14.9c-6.9,1.1-13.9,1.6-20.8,0.5
	c-3.7-0.5-7.5-1.1-11.2-2.1c-6.4-1.6-11.7-1.1-11.7-8c0-17.6,0-35.7,0-53.3c0-9.1,0-17.6,0-26.7c0-5.3,0.5-4.3-3.7-4.8
	c-3.7-0.5-6.9-0.5-10.7-1.1c-12.8-1.1-25.6-1.6-38.4,0.5c-4.8,1.1-4.8,0-4.8,5.3c0,4.3,0,8,0,12.3c0,10.1,0,19.7,0,29.9
	c0,29.9,2.1,60.3,1.1,90.1c-0.5,9.1-0.5,30.4-10.7,34.7c-11.7,5.3-21.9-5.9-32.5-8c1.6,14.9-8,44.8,9.6,52.3
	c16,6.9,34.1,9.6,51.2,3.7c35.2-11.7,46.9-51.2,42.1-83.7c54.4,16.5,113.6-11.2,136.5-60.3c16.5-35.2,9.6-78.4-15.5-108.3
	C595.2,227.2,500.3,216.5,434.1,243.2z"/>
</svg>
