<?xml version="1.0" encoding="utf-8"?>
<!-- Generator: Adobe Illustrator 18.1.0, SVG Export Plug-In . SVG Version: 6.00 Build 0)  -->
<!DOCTYPE svg PUBLIC "-//W3C//DTD SVG 1.1//EN" "http://www.w3.org/Graphics/SVG/1.1/DTD/svg11.dtd">
<svg version="1.1" id="Layer_1" xmlns="http://www.w3.org/2000/svg" xmlns:xlink="http://www.w3.org/1999/xlink" x="0px" y="0px"
	 viewBox="144 84 313.6 311.5" enable-background="new 144 84 313.6 311.5" xml:space="preserve">
<path id="Path" fill="#59DFB4" d="M255.2,157.3c-23.4,9.4-39.1,26.9-43.4,50.9c-2.8,14.7-1.6,30.6,4.7,44.4c1.6,3.1,3.1,5.9,5.3,8.7
	c0.9,1.2,2.2,2.5,3.1,3.8c2.2-0.6,4-1.6,5.9-2.8c7.8-4.4,13.8-11.2,20.3-17.2c-22.5-26.2,1.2-58.4,31.2-65.6
	c27.8-6.6,65.6,5,74.1,33.5c3.5,11.9,1.2,25-8.4,33.5c-5,4.4-11.5,7.5-18.1,8.7c-4,0.6-8.1,0.9-12.2,0.3c-2.2-0.3-4.4-0.6-6.6-1.2
	c-3.8-0.9-6.9-0.6-6.9-4.7c0-10.3,0-20.9,0-31.2c0-5.3,0-10.3,0-15.6c0-3.1,0.3-2.5-2.2-2.8c-2.2-0.3-4-0.3-6.3-0.6
	c-7.5-0.6-15-0.9-22.5,0.3c-2.8,0.6-2.8,0-2.8,3.1c0,2.5,0,4.7,0,7.2c0,5.9,0,11.5,0,17.5c0,17.5,1.2,35.3,0.6,52.8
	c-0.3,5.3-0.3,17.8-6.3,20.3c-6.9,3.1-12.8-3.5-19-4.7c0.9,8.7-4.7,26.2,5.6,30.6c9.4,4,20,5.6,30,2.2c20.6-6.9,27.5-30,24.7-49
	c31.9,9.7,66.6-6.6,80-35.3c9.7-20.6,5.6-45.9-9.1-63.5C349.6,148,294,141.7,255.2,157.3z"/>
<g>
	<path fill="#59DFB4" d="M299.8,94c38.9,0,75.5,15.2,103.1,42.7c27.5,27.5,42.7,64.1,42.7,103.1s-15.2,75.5-42.7,103.1
		c-27.5,27.5-64.1,42.7-103.1,42.7s-75.5-15.2-103.1-42.7c-27.5-27.5-42.7-64.1-42.7-103.1s15.2-75.5,42.7-103.1
		C224.3,109.2,260.9,94,299.8,94 M299.8,84c-86,0-155.8,69.7-155.8,155.8s69.7,155.8,155.8,155.8s155.8-69.7,155.8-155.8
		S385.8,84,299.8,84L299.8,84z"/>
</g>
</svg>
