<?xml version="1.0" encoding="utf-8"?>
<!-- Generator: Adobe Illustrator 18.1.0, SVG Export Plug-In . SVG Version: 6.00 Build 0)  -->
<!DOCTYPE svg PUBLIC "-//W3C//DTD SVG 1.1//EN" "http://www.w3.org/Graphics/SVG/1.1/DTD/svg11.dtd">
<svg version="1.1" id="Layer_1" xmlns="http://www.w3.org/2000/svg" xmlns:xlink="http://www.w3.org/1999/xlink" x="0px" y="0px"
	 viewBox="60 0 480 480" enable-background="new 60 0 480 480" xml:space="preserve">
<g>
	<path fill="#FFFFFF" d="M300,463.4C176.9,463.4,76.6,363.2,76.6,240S176.9,16.6,300,16.6S523.4,116.9,523.4,240
		S423.1,463.4,300,463.4z"/>
	<path fill="#3DBB98" d="M300,19c121.7,0,221,99.3,221,221s-99.3,221-221,221S79,361.7,79,240S178.3,19,300,19 M300,14.3
		C175.6,14.3,74.3,115.6,74.3,240S175.6,465.7,300,465.7S525.7,364.4,525.7,240S424.4,14.3,300,14.3L300,14.3z"/>
	<path fill="#59DFB4" d="M300,14.3c124.4,0,225.7,101.3,225.7,225.7S424.4,465.7,300,465.7S74.3,364.4,74.3,240S175.6,14.3,300,14.3
		 M300,0C167.8,0,60,108,60,240s107.8,240,240,240s240-107.8,240-240S432.2,0,300,0L300,0z"/>
</g>
<g>
	<g>
		<rect x="187.3" y="96" fill="#3DBB98" width="224.8" height="288.5"/>
		<polygon fill="#FFFFFF" points="382.3,359.4 217.7,359.4 266.8,260.4 303.8,335.1 333.2,298.9 		"/>
		<circle fill="#FFFFFF" cx="374.5" cy="252.4" r="12.4"/>
	</g>
	<polygon fill="#59DFB4" points="412.7,96 348,96 412.7,146.9 	"/>
</g>
</svg>
