<?xml version="1.0" encoding="utf-8"?>
<!-- Generator: Adobe Illustrator 18.1.0, SVG Export Plug-In . SVG Version: 6.00 Build 0)  -->
<!DOCTYPE svg PUBLIC "-//W3C//DTD SVG 1.1//EN" "http://www.w3.org/Graphics/SVG/1.1/DTD/svg11.dtd">
<svg version="1.1" id="Layer_1" xmlns="http://www.w3.org/2000/svg" xmlns:xlink="http://www.w3.org/1999/xlink" x="0px" y="0px"
	 viewBox="187.7 97.7 416.6 416.6" enable-background="new 187.7 97.7 416.6 416.6" xml:space="preserve">
<g>
	<path fill="#FFFFFF" d="M396,499.9c-106.8,0-193.9-87-193.9-193.9S289.2,112.1,396,112.1S589.9,199.2,589.9,306
		S502.8,499.9,396,499.9z"/>
	<path fill="#57364C" d="M396,114.2c105.6,0,191.8,86.2,191.8,191.8S501.6,497.8,396,497.8S204.2,411.6,204.2,306
		S290.4,114.2,396,114.2 M396,110.1c-108,0-195.9,87.9-195.9,195.9S288,501.9,396,501.9S591.9,414,591.9,306S504,110.1,396,110.1
		L396,110.1z"/>
	<path fill="#FFFFFF" d="M396,110.1c108,0,195.9,87.9,195.9,195.9S504,501.9,396,501.9S200.1,414,200.1,306S288,110.1,396,110.1
		 M396,97.7c-114.7,0-208.3,93.7-208.3,208.3S281.3,514.3,396,514.3S604.3,420.7,604.3,306S510.7,97.7,396,97.7L396,97.7z"/>
</g>
<g>
	<g>
		<rect x="298.2" y="181" fill="#57364C" width="195.1" height="250.4"/>
		<polygon fill="#FFFFFF" points="467.4,409.6 324.6,409.6 367.2,323.7 399.3,388.5 424.8,357.1 		"/>
		<circle fill="#FFFFFF" cx="460.7" cy="316.8" r="10.8"/>
	</g>
	<polygon fill="#805470" points="493.8,181 437.7,181 493.8,225.2 	"/>
</g>
</svg>
