<?xml version="1.0" encoding="utf-8"?>
<!-- Generator: Adobe Illustrator 18.1.0, SVG Export Plug-In . SVG Version: 6.00 Build 0)  -->
<!DOCTYPE svg PUBLIC "-//W3C//DTD SVG 1.1//EN" "http://www.w3.org/Graphics/SVG/1.1/DTD/svg11.dtd">
<svg version="1.1" id="Layer_1" xmlns="http://www.w3.org/2000/svg" xmlns:xlink="http://www.w3.org/1999/xlink" x="0px" y="0px"
	 viewBox="0 0 144 144" enable-background="new 0 0 144 144" xml:space="preserve">
<g>
	<path fill="#FFFFFF" d="M72,119c-25.9,0-47-21.1-47-47s21.1-47,47-47s47,21.1,47,47S97.9,119,72,119z"/>
	<path fill="#51BFAE" d="M72,25.5c25.6,0,46.5,20.9,46.5,46.5S97.6,118.5,72,118.5S25.5,97.6,25.5,72S46.4,25.5,72,25.5 M72,24.5
		c-26.2,0-47.5,21.3-47.5,47.5s21.3,47.5,47.5,47.5s47.5-21.3,47.5-47.5S98.2,24.5,72,24.5L72,24.5z"/>
	<path fill="#FFFFFF" d="M72,24.5c26.2,0,47.5,21.3,47.5,47.5S98.2,119.5,72,119.5S24.5,98.2,24.5,72S45.8,24.5,72,24.5 M72,21.5
		c-27.8,0-50.5,22.7-50.5,50.5s22.7,50.5,50.5,50.5s50.5-22.7,50.5-50.5S99.8,21.5,72,21.5L72,21.5z"/>
</g>
<path id="Vimeo_2_" fill="#51BFAE" d="M93.6,47.5c-8.5-0.3-14.3,4.5-17.3,14.3c1.6-0.6,3.1-1,4.5-1c3.1,0,4.5,1.7,4.1,5.2
	c-0.2,2.1-1.6,5.2-4.1,9.2c-2.6,4-4.5,6.1-5.8,6.1c-1.7,0-3.2-3.1-4.5-9.4c-0.5-1.8-1.3-6.5-2.5-14c-1.1-7-4-10.2-8.8-9.8
	c-2,0.2-5,2-9,5.5c-2.9,2.7-5.9,5.3-8.9,8l2.9,3.7c2.7-1.9,4.4-2.9,4.8-2.9c2.1,0,4.1,3.3,5.9,9.9c1.6,6.1,3.3,12.1,4.9,18.2
	c2.5,6.6,5.5,9.9,9,9.9c5.8,0,12.8-5.4,21.1-16.2c8-10.4,12.2-18.5,12.5-24.5C102.9,51.8,99.9,47.7,93.6,47.5z"/>
</svg>
