<?xml version="1.0" encoding="utf-8"?>
<!-- Generator: Adobe Illustrator 18.1.0, SVG Export Plug-In . SVG Version: 6.00 Build 0)  -->
<!DOCTYPE svg PUBLIC "-//W3C//DTD SVG 1.1//EN" "http://www.w3.org/Graphics/SVG/1.1/DTD/svg11.dtd">
<svg version="1.1" id="Layer_1" xmlns="http://www.w3.org/2000/svg" xmlns:xlink="http://www.w3.org/1999/xlink" x="0px" y="0px"
	 viewBox="0 0 1024 768" enable-background="new 0 0 1024 768" xml:space="preserve">
<g>
	<path fill="#FFFFFF" d="M512,634.7c-138.1,0-250.7-112.5-250.7-250.7S373.9,133.3,512,133.3S762.7,245.9,762.7,384
		S650.1,634.7,512,634.7z"/>
	<path fill="#51BFAE" d="M512,136c136.5,0,248,111.5,248,248S648.5,632,512,632S264,520.5,264,384S375.5,136,512,136 M512,130.7
		c-139.7,0-253.3,113.6-253.3,253.3S372.3,637.3,512,637.3S765.3,523.7,765.3,384S651.7,130.7,512,130.7L512,130.7z"/>
	<path fill="#FFFFFF" d="M512,130.7c139.7,0,253.3,113.6,253.3,253.3S651.7,637.3,512,637.3S258.7,523.7,258.7,384
		S372.3,130.7,512,130.7 M512,114.7c-148.3,0-269.3,121.1-269.3,269.3S363.7,653.3,512,653.3S781.3,532.3,781.3,384
		S660.3,114.7,512,114.7L512,114.7z"/>
</g>
<path id="Vimeo_2_" fill="#51BFAE" d="M627.2,253.3c-45.3-1.6-76.3,24-92.3,76.3c8.5-3.2,16.5-5.3,24-5.3c16.5,0,24,9.1,21.9,27.7
	c-1.1,11.2-8.5,27.7-21.9,49.1c-13.9,21.3-24,32.5-30.9,32.5c-9.1,0-17.1-16.5-24-50.1c-2.7-9.6-6.9-34.7-13.3-74.7
	c-5.9-37.3-21.3-54.4-46.9-52.3c-10.7,1.1-26.7,10.7-48,29.3c-15.5,14.4-31.5,28.3-47.5,42.7l15.5,19.7
	c14.4-10.1,23.5-15.5,25.6-15.5c11.2,0,21.9,17.6,31.5,52.8c8.5,32.5,17.6,64.5,26.1,97.1c13.3,35.2,29.3,52.8,48,52.8
	c30.9,0,68.3-28.8,112.5-86.4c42.7-55.5,65.1-98.7,66.7-130.7C676.8,276.3,660.8,254.4,627.2,253.3z"/>
</svg>
