<?xml version="1.0" encoding="utf-8"?>
<!-- Generator: Adobe Illustrator 18.1.1, SVG Export Plug-In . SVG Version: 6.00 Build 0)  -->
<!DOCTYPE svg PUBLIC "-//W3C//DTD SVG 1.1//EN" "http://www.w3.org/Graphics/SVG/1.1/DTD/svg11.dtd">
<svg version="1.1" id="Layer_1" xmlns="http://www.w3.org/2000/svg" xmlns:xlink="http://www.w3.org/1999/xlink" x="0px" y="0px"
	 viewBox="503.1 83.1 142.2 142.2" enable-background="new 503.1 83.1 142.2 142.2" xml:space="preserve">
<path fill="#59DFB4" d="M605,119.2c-12.1-0.4-20.4,6.4-24.7,20.4c2.3-0.9,4.4-1.4,6.4-1.4c4.4,0,6.4,2.4,5.8,7.4
	c-0.3,3-2.3,7.4-5.8,13.1c-3.7,5.7-6.4,8.7-8.3,8.7c-2.4,0-4.6-4.4-6.4-13.4c-0.7-2.6-1.8-9.3-3.6-20c-1.6-10-5.7-14.6-12.5-14
	c-2.9,0.3-7.1,2.9-12.8,7.8c-4.2,3.8-8.4,7.6-12.7,11.4l4.2,5.2c3.8-2.7,6.3-4.2,6.8-4.2c3,0,5.8,4.7,8.4,14.1
	c2.3,8.7,4.7,17.2,7,26c3.6,9.4,7.8,14.1,12.8,14.1c8.3,0,18.3-7.7,30.1-23.1c11.4-14.8,17.4-26.4,17.8-35
	C618.3,125.4,614,119.6,605,119.2z M574.2,87.7c17.7,0,34.4,6.9,47,19.5c12.5,12.5,19.5,29.2,19.5,47s-6.9,34.4-19.5,47
	c-12.5,12.5-29.2,19.5-47,19.5s-34.4-6.9-47-19.5c-12.5-12.5-19.5-29.2-19.5-47s6.9-34.4,19.5-47C539.8,94.6,556.5,87.7,574.2,87.7
	 M574.2,83.1c-39.2,0-71.1,31.8-71.1,71.1s31.8,71.1,71.1,71.1c39.2,0,71.1-31.8,71.1-71.1S613.4,83.1,574.2,83.1L574.2,83.1z"/>
</svg>
