<?xml version="1.0" encoding="utf-8"?>
<!-- Generator: Adobe Illustrator 18.1.1, SVG Export Plug-In . SVG Version: 6.00 Build 0)  -->
<!DOCTYPE svg PUBLIC "-//W3C//DTD SVG 1.1//EN" "http://www.w3.org/Graphics/SVG/1.1/DTD/svg11.dtd">
<svg version="1.1" id="Layer_1" xmlns="http://www.w3.org/2000/svg" xmlns:xlink="http://www.w3.org/1999/xlink" x="0px" y="0px"
	 viewBox="0 0 576 576" enable-background="new 0 0 576 576" xml:space="preserve">
<path fill="#3DBB98" d="M526.5,352.8H49.5c-13.2,0-24-10.7-24-24V61.2c0-13.2,10.7-24,24-24h477.1c13.2,0,24,10.7,24,24v267.6
	C550.5,342,539.8,352.8,526.5,352.8z"/>
<rect x="51.5" y="63.5" fill="#FFFFFF" width="473.1" height="243.9"/>
<circle fill="#FFFFFF" cx="288" cy="328.1" r="9.9"/>
<path fill="#3DBB98" d="M257.4,359.1c-3.1,26.7-12.9,44.2-20.2,53.9c-2.9,3.8-0.2,9.2,4.6,9.2h34.5h57.9c4.8,0,7.5-5.4,4.6-9.2
	c-7.3-9.7-17.1-27.3-20.2-53.9H257.4z"/>
<polygon fill="#59DFB4" points="498.7,552.6 77.3,552.6 117.3,453.4 468.7,453.4 "/>
<line fill="none" stroke="#FFFFFF" stroke-width="3" stroke-miterlimit="10" x1="116" y1="524" x2="460" y2="524"/>
<line fill="none" stroke="#FFFFFF" stroke-width="3" stroke-miterlimit="10" x1="126" y1="503" x2="450" y2="503"/>
<line fill="none" stroke="#FFFFFF" stroke-width="3" stroke-miterlimit="10" x1="131" y1="482" x2="445" y2="482"/>
</svg>
