<?xml version="1.0" encoding="utf-8"?>
<!-- Generator: Adobe Illustrator 18.1.1, SVG Export Plug-In . SVG Version: 6.00 Build 0)  -->
<!DOCTYPE svg PUBLIC "-//W3C//DTD SVG 1.1//EN" "http://www.w3.org/Graphics/SVG/1.1/DTD/svg11.dtd">
<svg version="1.1" id="Layer_1" xmlns="http://www.w3.org/2000/svg" xmlns:xlink="http://www.w3.org/1999/xlink" x="0px" y="0px"
	 viewBox="0 0 201 40.2" enable-background="new 0 0 201 40.2" xml:space="preserve">
<path fill="#70C6AA" d="M42.4,0h5.4v40.2h-5.4V0z"/>
<path fill="#70C6AA" d="M83,9.3c-2.2-2.8-5.7-4.4-9.2-4.4c-8.6,0-14.2,6.9-14.2,15.5c0,8,5.3,14.9,14.2,14.9c4.4,0,7.7-1.9,10-5.1
	l4.4,3.3c-1.1,1.6-5.7,6.7-14.5,6.7c-12.1,0-19.6-10.1-19.6-19.8C54.1,8.6,62.2,0.1,74,0.1C79,0.1,84.3,2,87.4,6L83,9.3z"/>
<path fill="#70C6AA" d="M132.6,0h25.9l0.1,5.1h-20.6v12h19.1v5.1h-19.1v12.9h21.5v5.1h-27V0z"/>
<g>
	<polygon fill="#70C6AA" points="15.5,40.2 0,0 1,0 16.5,40.2 	"/>
</g>
<polygon fill="#70C6AA" points="6.8,0 18.6,32.7 31,0 "/>
<g>
	<polygon fill="#70C6AA" points="21.6,40.2 20.6,40.2 36.4,0 37.5,0 	"/>
</g>
<polygon fill="#70C6AA" points="100.1,0 100.1,17.4 119.6,0 "/>
<polygon fill="#70C6AA" points="100.1,40.2 100.1,20.1 119.3,40.2 "/>
<g>
	<polygon fill="#70C6AA" points="126.6,40.2 105.8,18.6 126.5,0 127.9,0 107.2,18.6 127.8,40.2 	"/>
</g>
<g>
	<polygon fill="#70C6AA" points="182.5,18.6 170.9,0 172,0 193.2,0 194.4,0 	"/>
</g>
<g>
	<polygon fill="#70C6AA" points="180.2,40.2 179.3,40.2 179.3,23.2 163.9,0 165.1,0 180.2,22.9 	"/>
</g>
<g>
	<polygon fill="#70C6AA" points="185.7,40.2 184.7,40.2 184.7,22.9 199.8,0 201,0 185.7,23.2 	"/>
</g>
<g>
	<rect x="94.2" y="0" fill="#70C6AA" width="0.9" height="40.2"/>
</g>
</svg>
